<svg xmlns="http://www.w3.org/2000/svg" width="910.509" height="532.987" viewBox="-4615.509 849.839 910.509 532.987"><g data-name="CompositeLayer"><g data-name="undraw_podcast_q6p7000000000"><path d="M-4202.165 1066.471h16.982v3.396h-16.982v-3.396z" fill="#6c63ff" fill-rule="evenodd" data-name="Rectangle 68"/><path d="M-4176.693 1066.471h16.982v3.396h-16.982v-3.396z" fill="#6c63ff" fill-rule="evenodd" data-name="Rectangle 71"/><path d="M-4151.22 1066.471h16.981v3.396h-16.981v-3.396z" fill="#6c63ff" fill-rule="evenodd" data-name="Rectangle 74"/><path d="M-4125.748 1066.471h16.981v3.396h-16.981v-3.396z" fill="#6c63ff" fill-rule="evenodd" data-name="Rectangle 77"/><path d="M-4100.276 1066.471h16.981v3.396h-16.981v-3.396z" fill="#6c63ff" fill-rule="evenodd" data-name="Rectangle 80"/><path d="M-4074.804 1066.471h16.981v3.396h-16.981v-3.396z" fill="#6c63ff" fill-rule="evenodd" data-name="Rectangle 83"/><path d="M-3865.296 1307.193a45.85 16.302 0 1 1 0 .1z" fill-rule="evenodd" data-name="Ellipse 13"/><path d="M-3819.412 1307.429s26.16-88.804-4.908-154.174c-13.033-27.434-17.363-58.23-11.343-87.998a235.89 235.89 0 0 1 12.455-41.307" stroke-linejoin="round" stroke-linecap="round" stroke-width="2" stroke="#535461" fill="transparent" data-name="Path 156"/><path d="M-3842.532 982.634c0 10.885 19.707 42.453 19.707 42.453s19.706-31.56 19.706-42.453c0-10.884-8.823-19.707-19.706-19.707-10.884 0-19.707 8.823-19.707 19.707Z" fill="#9946b7" fill-rule="evenodd" data-name="Path 157"/><path d="M-3875.111 1042.918c5.943 9.136 39.609 24.92 39.609 24.92s-.611-37.206-6.53-46.342c-5.915-9.144-18.123-11.762-27.267-5.846-9.144 5.915-11.762 18.124-5.846 27.268Z" fill="#9326b4" fill-rule="evenodd" data-name="Path 158"/><path d="M-3873.71 1145.944c9.721 4.9 46.775 1.511 46.775 1.511s-19.308-31.806-29.03-36.705c-9.718-4.9-21.57-.994-26.47 8.724-4.9 9.719-.994 21.57 8.725 26.47Z" fill="#981199" fill-rule="evenodd" data-name="Path 159"/><path d="M-3855.03 1223.651c8.753 6.47 45.85 9.4 45.85 9.4s-13.654-34.617-22.408-41.087c-8.75-6.474-21.092-4.628-27.565 4.122-6.474 8.75-4.628 21.091 4.122 27.565Z" fill="#bb18b1" fill-rule="evenodd" data-name="Path 160"/><path d="M-3794.118 1069.944c-7.803 7.582-44.152 15.436-44.152 15.436s8.907-36.128 16.71-43.71c7.807-7.583 20.283-7.4 27.866.407 7.583 7.808 7.4 20.284-.407 27.867Z" fill="#8e1299" fill-rule="evenodd" data-name="Path 161"/><path d="M-3773.52 1161.1c-9.722 4.9-46.775 1.511-46.775 1.511s19.307-31.806 29.03-36.705c9.718-4.9 21.569-.994 26.469 8.724 4.9 9.719.994 21.57-8.724 26.47Z" fill="#9c129c" fill-rule="evenodd" data-name="Path 162"/><path d="M-3765.59 1252.451c-8.754 6.47-45.85 9.4-45.85 9.4s13.654-34.617 22.408-41.087c8.75-6.473 21.09-4.625 27.561 4.126 6.472 8.75 4.625 21.09-4.126 27.562Z" fill="#e611d4" fill-rule="evenodd" data-name="Path 163"/><path d="M-3979.411 1260.324a45.85 16.302 0 1 1 0 .1z" fill-rule="evenodd" data-name="Ellipse 14"/><path d="M-3935.42 1262.742s12.251-41.604-2.302-72.23a65.718 65.718 0 0 1-5.315-41.231 110.532 110.532 0 0 1 5.842-19.35" stroke-linejoin="round" stroke-linecap="round" stroke-width="2" stroke="#535461" fill="transparent" data-name="Path 164"/><path d="M-3946.255 1110.572c0 5.094 9.23 19.885 9.23 19.885s9.229-14.79 9.229-19.885a9.234 9.234 0 0 0-18.467 0Z" fill="#9946b7" fill-rule="evenodd" data-name="Path 165"/><path d="M-3961.513 1138.812c2.768 4.245 18.561 11.675 18.561 11.675s-.289-17.432-3.056-21.711a9.235 9.235 0 0 0-15.505 10.036Z" fill="#9326b4" fill-rule="evenodd" data-name="Path 166"/><path d="M-3960.85 1187.082c4.55 2.292 21.914.713 21.914.713s-9.042-14.901-13.585-17.202a9.233 9.233 0 0 0-8.312 16.489Z" fill="#981199" fill-rule="evenodd" data-name="Path 167"/><path d="M-3952.122 1223.49c4.101 3.03 21.482 4.406 21.482 4.406s-6.402-16.217-10.495-19.248a9.234 9.234 0 0 0-10.978 14.85Z" fill="#bb18b1" fill-rule="evenodd" data-name="Path 168"/><path d="M-3923.568 1151.48c-3.66 3.55-20.7 7.234-20.7 7.234s4.177-16.93 7.828-20.48a9.232 9.232 0 0 1 13.055.192 9.232 9.232 0 0 1-.191 13.054Z" fill="#8e1299" fill-rule="evenodd" data-name="Path 169"/><path d="M-3913.897 1194.188c-4.55 2.293-21.914.714-21.914.714s9.042-14.902 13.585-17.203a9.233 9.233 0 0 1 12.4 4.089 9.233 9.233 0 0 1-4.088 12.4Z" fill="#9c129c" fill-rule="evenodd" data-name="Path 170"/><path d="M-3910.22 1236.956c-4.101 3.031-21.482 4.407-21.482 4.407s6.402-16.218 10.495-19.249a9.233 9.233 0 0 1 12.914 1.928 9.233 9.233 0 0 1-1.927 12.914Z" fill="#e611d4" fill-rule="evenodd" data-name="Path 171"/><path d="M-4319.778 968.837h-7.242V918.74h7.242c11.517 0 20.853 9.337 20.853 20.853v8.338a20.853 20.853 0 0 1-20.853 20.904Z" fill="#dfe6f5" fill-rule="evenodd" data-name="Path 173"/><path d="M-4326.903 968.837h-.235a6.03 6.03 0 0 1-6.03-6.03v-37.993a6.03 6.03 0 0 1 6.03-6.03h.235a6.03 6.03 0 0 1 6.03 6.03v37.993a6.03 6.03 0 0 1-6.03 6.03z" fill="#535461" fill-rule="evenodd" data-name="Rectangle 87"/><g data-name="Group 6"><path d="M-4319.778 968.836h-7.242v-50.095h7.242c11.517 0 20.853 9.337 20.853 20.853v8.338a20.853 20.853 0 0 1-20.853 20.904Z" fill-rule="evenodd" data-name="Path 174"/><path d="M-4326.903 968.836h-.235a6.03 6.03 0 0 1-6.03-6.03v-37.992a6.03 6.03 0 0 1 6.03-6.03h.235a6.03 6.03 0 0 1 6.03 6.03v37.992a6.03 6.03 0 0 1-6.03 6.03z" fill-rule="evenodd" data-name="Rectangle 88"/></g><path d="M-4442.919 945.258h126.588v131.309h-126.588v-131.31z" fill="#865a61" fill-rule="evenodd" data-name="Rectangle 89"/><path d="M-4442.919 927.173h126.588v131.308h-126.588V927.173z" fill-rule="evenodd" data-name="Rectangle 90"/><path d="m-4320.652 1054.16-7.642 55.529-3.6 26.1-1.325 9.586-11.097 21.634-20.378 39.703-39.312 4.72-69.148-97.515s-36.204-69.19 18.841-62.908c30.864 3.533 38.208-24.096 38.76-49.05.139-12.564-1-25.11-3.396-37.444l55.037 26.737c-1.28 5.96-2.242 11.437-2.887 16.43-2.683 20.428-.459 33.164 4.194 40.882 12.388 20.556 41.953 5.596 41.953 5.596Z" fill="#fdc2cc" fill-rule="evenodd" data-name="Path 175"/><path d="M-4363.896 991.26c-1.279 5.96-2.241 11.437-2.886 16.43a64.028 64.028 0 0 1-17.56 2.445 63.374 63.374 0 0 1-31.211-8.16c.139-12.563-1-25.11-3.396-37.443l55.053 26.728Z" fill-rule="evenodd" data-name="Path 176"/><path d="M-4448.03 944.767a63.689 63.689 0 1 1 0 .1z" fill="#fdc2cc" fill-rule="evenodd" data-name="Ellipse 15"/><path d="m-4299.417 1307.344-261.836 20.462 42.453-49.534c45.553-27.833 45.162-66.092 39.108-89.824a92.35 92.35 0 0 0-8.448-21.83l90.502.426h.765l7.437 16.904.34.765 5.536 12.574 18.866-33.81 6.564-10.579 3.668-5.944s54.255-12.583 55.036 19.656a86.18 86.18 0 0 1-.433 11.09c-2.7 25.947-16.896 43.2-28.656 54.96-13.364 13.355 29.098 74.684 29.098 74.684Z" fill="#ec7580" fill-rule="evenodd" data-name="Path 177"/><path d="M-4330.688 1238.263c-1.92 7.642 2.92 20.777 9.34 33.675-30.78 3.311-64.53 1.587-64.53 1.587l-34.634 9.442-97.49 28.308c-4.245-5.493-7.641-12.396-10.452-20.174l9.663-11.276c30.405-18.577 40.339-41.8 41.79-62.245a87.454 87.454 0 0 0-2.682-27.586 92.346 92.346 0 0 0-8.44-21.813l90.502.425h.765l7.437 16.905.34.764 5.536 12.575 18.866-33.81 6.547-10.58 3.668-5.943s54.255-12.6 55.045 19.664a86.173 86.173 0 0 1-.433 11.09c-2.7 25.947-16.897 43.2-28.656 54.96a8.49 8.49 0 0 0-2.182 4.032Z" fill="#ec7580" fill-rule="evenodd" data-name="Path 178"/><path d="M-4126.436 1279.036c-1.57 18.866-47.174-6.292-47.174-6.292s-14.154-4.72-62.118-35.38a146.447 146.447 0 0 1-55.19-64.436 92.543 92.543 0 0 1-4.593-12.618l33.045-24.393 9.637 14.73 32.036 48.95 47.174 31.415s48.754 29.158 47.183 48.024Z" fill="#fdc2cc" fill-rule="evenodd" data-name="Path 179"/><path d="M-3706.57 1341.154h-906.579l90.758-26.856 226.888-67.145 144.682-42.818h186.354l257.896 136.819Z" fill="#cbcdda" fill-rule="evenodd" data-name="Path 180"/><path d="m-4613.149 1341.154-2.36 41.672H-3705l-1.57-41.672h-906.579Z" fill="#cbcdda" fill-rule="evenodd" data-name="Path 181"/><path d="m-4613.149 1341.154-2.36 41.672H-3705l-1.57-41.672h-906.579Z" fill-rule="evenodd" data-name="Path 182"/><path d="m-4375.468 1282.22 191.626-19.69 2.36 37.741-87.59 8.686a57.211 57.211 0 0 1-18.017-1.4l-88.54-22.875a1.257 1.257 0 0 1 .16-2.462Z" fill="#535461" fill-rule="evenodd" data-name="Path 183"/><path d="m-4375.468 1282.22 191.626-19.69 2.36 37.741-87.59 8.686a57.211 57.211 0 0 1-18.017-1.4l-88.54-22.875a1.257 1.257 0 0 1 .16-2.462Z" fill-rule="evenodd" data-name="Path 184"/><path d="m-4375.468 1281.43 193.206-19.69 2.36 37.741-87.599 7.099a57.21 57.21 0 0 1-18.008-1.376l-90.12-21.303a1.257 1.257 0 0 1 .16-2.47Z" fill="#535461" fill-rule="evenodd" data-name="Path 185"/><path d="m-4329.661 1282.806 102.16-10.41 1.248 19.953-46.317 3.762c-3.194.26-6.41.01-9.526-.739l-47.65-11.267a.662.662 0 0 1 .085-1.3Z" fill="#fff" fill-rule="evenodd" data-name="Path 186"/><path d="M-4252.829 1150.665c-.62.849-1.698 1.231-3.345.993-15.725-2.36-33.81 20.446-33.81 20.446s-.323.306-.909.849a92.542 92.542 0 0 1-4.593-12.617l33.02-24.42 9.637 14.749Z" fill-rule="evenodd" data-name="Path 187"/><path d="M-4299.85 1179.22c-7.396 4.117-17.576 7.072-25.515-.85-13.712-13.712-37.75-11.887-39.244-11.802 2.454-.34 4.628-5.383 6.479-12.142l3.668-5.943s54.255-12.566 55.045 19.698a86.188 86.188 0 0 1-.433 11.038Z" fill-rule="evenodd" data-name="Path 188"/><path d="m-4328.311 1109.689-4.925 35.66-11.097 21.635a67.656 67.656 0 0 0-21.074-1.978c7.82-1.079 12.872-49.943 12.872-49.943l.45-.101 23.774-5.273Z" fill-rule="evenodd" data-name="Path 189"/><path d="M-4256.174 1150.088c-15.725-2.36-33.81 20.445-33.81 20.445s-21.227 20.446-35.38 6.292c-13.713-13.713-37.75-11.887-39.245-11.802 7.82-1.087 12.872-49.951 12.872-49.951l.45-.102 75.457-16.778s4.5 6.895 9.578 15.674c9.161 15.818 20.199 37.741 10.078 36.222Z" fill="#ec7580" fill-rule="evenodd" data-name="Path 190"/><path d="M-4275.049 1118.638c.79 1.57-12.583 9.433-18.866 7.073-6.283-2.36-22.017 10.189-23.587 11.793-1.571 1.605-36.952-2.36-36.952-2.36a166.266 166.266 0 0 0 3.167-20.174l75.457-16.778s4.5 6.895 9.578 15.674c-4.696 1.928-9.179 4-8.797 4.772Z" fill-rule="evenodd" data-name="Path 191"/><path d="m-4320.652 1054.16-7.642 55.529-3.6 26.1c-10.546-.79-23.333-2.207-23.333-2.207s13.365-55.827-8.652-84.907c0 0 .467 0 1.308-.085 12.354 20.53 41.919 5.57 41.919 5.57Z" fill-rule="evenodd" data-name="Path 192"/><path d="M-4363.106 1048.658s40.102-3.142 55.826 7.862c15.725 11.004 38.531 44.033 38.531 44.033l12.583 7.862s-19.655 7.073-18.866 8.652c.79 1.58-12.583 9.433-18.866 7.073-6.283-2.36-22.017 10.189-23.587 11.794-1.571 1.604-36.952-2.36-36.952-2.36s13.347-55.827-8.669-84.916Z" fill="#ec7580" fill-rule="evenodd" data-name="Path 193"/><path d="M-4073.386 1265.272c-9.102-.22-223.093-5.773-243.522-28.562-21.753-24.267-.637-94.188 17.143-144.673 19.35-54.96-3.72-133.882-3.948-134.782l1.52-.399c.237.909 23.425 80.288 3.914 135.699-27.655 78.547-33.369 125.356-17.457 143.102 19.987 22.288 240.168 28.02 242.392 28.02l-.042 1.595Z" fill="#dfe6f5" fill-rule="evenodd" data-name="Path 194"/><path d="m-4221.328 1069.358 197.952-3.006a19.308 19.308 0 0 1 17.21 21.516l-22.457 186.965a19.308 19.308 0 0 1-18.009 16.981l-202.325 12.524a19.308 19.308 0 0 1-20.259-22.076l26.865-196.492c1.496-10.21 10.755-17.438 21.023-16.412Z" fill="#535461" fill-rule="evenodd" data-name="Path 195"/><path d="m-4221.328 1069.358 197.952-3.006a19.308 19.308 0 0 1 17.21 21.516l-22.457 186.965a19.308 19.308 0 0 1-18.009 16.981l-202.325 12.524a19.308 19.308 0 0 1-20.259-22.076l26.865-196.492c1.496-10.21 10.755-17.438 21.023-16.412Z" fill-rule="evenodd" data-name="Path 196"/><path d="m-4219.757 1069.358 197.952-3.006a19.308 19.308 0 0 1 17.244 21.516l-22.457 186.965a19.308 19.308 0 0 1-18.01 16.981l-202.35 12.524a19.307 19.307 0 0 1-20.258-22.076l26.864-196.492c1.496-10.205 10.75-17.433 21.015-16.412Z" fill="#535461" fill-rule="evenodd" data-name="Path 197"/><path d="M-4321.349 1271.946c-30.778 3.311-64.529 1.588-64.529 1.588l-34.634 9.433-97.49 28.308c-4.245-5.493-7.641-12.396-10.452-20.174l9.663-11.276c30.405-18.577 40.339-41.8 41.79-62.245 2.599 20.335 3.032 38.65 3.032 38.65l39.312-3.931 57.117-13.586a51.575 51.575 0 0 1 12.006-1.4c7.438 0 20.675.16 34.812.925-1.885 7.65 2.954 20.794 9.373 33.708Z" fill-rule="evenodd" data-name="Path 198"/><path d="M-4278.19 1261.74c-18.086 21.227-110.863 16.515-110.863 16.515l-34.6 9.433-97.499 28.3a31.107 31.107 0 0 1-1.24-1.699l226.898-67.144c14.485 2.92 23.374 7.472 17.304 14.595Z" fill-rule="evenodd" data-name="Path 199"/><path d="M-4278.19 1260.17c-18.086 21.226-110.863 16.514-110.863 16.514l-34.6 9.425-97.499 28.308c-22.925-29.718-22.415-100.539-21.167-129.187.34-7.692.722-12.345.722-12.345s33.02-20.446 47.964 0c2.666 3.642 4.899 8.737 6.792 14.646 8.67 27.247 9.73 71.84 9.73 71.84l39.312-3.93 57.117-13.586a51.61 51.61 0 0 1 12.015-1.401c23.672.068 105.998 1.494 90.477 19.715Z" fill="#fdc2cc" fill-rule="evenodd" data-name="Path 200"/><path d="M-4486.85 1187.54c-5.017-1.087-11.105-.85-19.358 2.649-16.515 7.073-29.09 5.502-29.09 5.502s1.011-8.024-7.013-10.46c.34-7.693.722-12.346.722-12.346s33.02-20.446 47.964 0c2.64 3.643 4.89 8.737 6.776 14.655Z" fill-rule="evenodd" data-name="Path 201"/><path d="M-4389.096 1186.258c-.526.11-7.6 1.443-21.227-1.58-14.154-3.14-19.656 3.142-27.518 6.292-7.862 3.15-28.266 4.721-36.162 1.58-1.86-.748-3.727-1.699-5.706-2.548a92.346 92.346 0 0 0-8.414-21.82l90.502.424 8.202 16.905.323.747Z" fill-rule="evenodd" data-name="Path 202"/><path d="M-4389.096 1184.687s-7.073 1.57-21.227-1.57c-14.154-3.142-19.656 3.14-27.518 6.291-7.862 3.15-28.308 4.72-36.17 1.57-7.863-3.15-15.725-9.432-32.265-2.36-16.54 7.073-29.09 5.502-29.09 5.502s1.572-12.583-14.934-11.038c-16.506 1.546-27.519-6.291-27.519-6.291l17.542-40.518 5.264-12.167 131.555-8.992h.629l33.733 69.573Z" fill="#ec7580" fill-rule="evenodd" data-name="Path 203"/><path d="M-4410.323 1146.954c-8.652-14.154-54.255-1.57-54.255-1.57s-22.017 6.291-26.737-5.502c-4.721-11.794-38.48-3.965-38.48-3.965s-24.496 9.187-30.423.373l5.265-12.167 131.495-9.009 13.135 31.84Z" fill-rule="evenodd" data-name="Path 204"/><path d="M-4448.03 1054.16s-43.243-8.652-63.68 2.36c-20.437 11.012-36.162 35.38-36.162 35.38l-29.887 27.52s11.793 5.501 17.295 14.934c5.502 9.433 30.669 0 30.669 0s33.81-7.862 38.53 3.931c4.721 11.794 26.738 5.502 26.738 5.502s45.603-12.583 54.255 1.571l-37.758-91.198Z" fill="#ec7580" fill-rule="evenodd" data-name="Path 205"/><path d="M-4398.181 852.692c-5.859-.985-11.887-1.944-17.695-.68-9.577 2.081-16.88 9.85-22.254 18.035-5.374 8.185-9.552 17.27-16.183 24.479-4.44 4.831-9.9 8.711-13.857 13.942-5.824 7.7-7.854 17.524-9.73 27-2.751 13.908-5.51 28.02-4.296 42.173.61 7.099 2.224 14.086 2.606 21.227.773 14.34-3.464 28.418-7.641 42.156-2.896 9.493-5.885 19.164-11.607 27.273-3.796 5.374-8.66 9.874-13.297 14.536a8.16 8.16 0 0 0-2.437 3.574c-1.001 4.059 3.898 6.793 7.642 8.627 11.454 5.714 18.968 16.862 27.875 26.05 8.907 9.186 21.651 17.074 33.903 13.39 3.634-1.096 7.082-3.176 10.869-3.108 2.547.042 4.992 1.078 7.412 1.927a55.64 55.64 0 0 0 18.739 3.141 7.242 7.242 0 0 0 4.067-.849c1.893-1.282 2.258-3.863 2.445-6.138 1.197-14.282 2.386-28.614 1.58-42.92-1.826-32.401-31.764-69.88-20.378-100.285 4.95-13.262 14.001-24.674 19.01-37.91 5.282-13.95 23.902-25.277 27.595-39.737.416-1.63.985-3.396 2.412-4.245 1.961-1.206 4.517-.153 6.41 1.154 10.715 7.387 14.205 21.278 18.102 33.691a208.154 208.154 0 0 0 11.641 29.158c2.547 5.094 8.015 10.995 12.804 7.904-2.411 21.465-16.336 40.212-19.486 61.575-3.074 20.82 4.373 42.097 1.486 62.933a64.53 64.53 0 0 1-17.364 35.661 86.334 86.334 0 0 0 32.12.289c10.775-1.945 22.306-7.048 26.194-17.287 4.246-11.268-2.318-23.358-5.654-34.94-8.007-27.84-7.387-60.768-4.849-89.628 2.616-29.675 6.538-55.656-.11-84.694-1.63-7.124-3.286-14.307-6.41-20.913-6.572-13.882-20.09-23.816-34.906-27.314-7.641-1.8-15.436.993-22.551-.332-3.583-.67-6.793-4.1-10.274-5.493-4.466-1.826-9.255-2.64-13.933-3.422Z" fill-rule="evenodd" data-name="Path 206"/><path d="M-4299.536 1117.797c-3.889 10.24-15.42 15.343-26.202 17.288a86.511 86.511 0 0 1-32.12-.29 64.58 64.58 0 0 0 17.363-35.66c2.895-20.845-4.551-42.123-1.486-62.933 3.15-21.371 17.075-40.119 19.486-61.583-4.789 3.09-10.3-2.785-12.812-7.905a208.615 208.615 0 0 1-11.641-29.157c-3.897-12.414-7.387-26.321-18.102-33.691-1.894-1.308-4.45-2.36-6.41-1.147-1.436.85-1.996 2.641-2.412 4.246-3.685 14.434-22.314 25.778-27.586 39.728-5.018 13.237-14.07 24.623-19.02 37.91-11.343 30.398 18.595 67.875 20.378 100.276.798 14.307-.39 28.648-1.58 42.92-.194 2.284-.56 4.866-2.453 6.148a7.225 7.225 0 0 1-4.059.849 55.453 55.453 0 0 1-18.688-3.125c-2.42-.849-4.848-1.885-7.412-1.927-3.787-.06-7.234 2.02-10.868 3.107-12.252 3.685-25.005-4.202-33.903-13.39-8.899-9.186-16.438-20.318-27.884-25.998-3.744-1.868-8.643-4.568-7.642-8.635a8.218 8.218 0 0 1 2.437-3.566c4.636-4.662 9.51-9.17 13.305-14.536 5.723-8.109 8.703-17.78 11.607-27.272 4.194-13.738 8.431-27.816 7.642-42.157-.374-7.106-1.987-14.094-2.607-21.226-1.223-14.129 1.545-28.257 4.296-42.165 1.868-9.476 3.898-19.3 9.73-27 3.966-5.231 9.417-9.111 13.866-13.942 6.64-7.21 10.8-16.294 16.183-24.488 5.383-8.193 12.685-15.954 22.263-18.034 5.799-1.265 11.836-.297 17.694.68 4.679.789 9.468 1.604 13.891 3.396 3.49 1.392 6.7 4.83 10.274 5.485 7.115 1.333 14.935-1.46 22.551.34 14.817 3.489 28.334 13.423 34.906 27.305a62.49 62.49 0 0 1 3.243 8.491c1.257 4.076 2.216 8.245 3.167 12.405.204.85.4 1.766.586 2.64 5.816 27.646 2.063 47.778-.476 76.536-2.538 28.758-3.158 67.289 4.84 95.096 3.337 11.615 9.934 23.714 5.655 34.981Z" fill="#865a61" fill-rule="evenodd" data-name="Path 207"/><path d="M-4390.234 1167.782s6.292 10.189 6.292 17.296c0 0 4.72-17.296 8.652-17.296" fill-rule="evenodd" data-name="Path 208"/><path d="M-4405.177 1170.134v51.895a37.572 37.572 0 0 1-8.1 23.358 37.741 37.741 0 0 1-59.248 0 37.571 37.571 0 0 1-8.1-23.358v-51.895a37.538 37.538 0 0 1 8.72-24.13 35.875 35.875 0 0 1 3.234-3.397c14.505-13.599 37.077-13.599 51.581 0 .306.272.603.57.9.85.85.848 1.588 1.697 2.335 2.546a37.538 37.538 0 0 1 8.678 24.131Z" fill="#dfe6f5" fill-rule="evenodd" data-name="Path 209"/><path d="M-4405.177 1170.134v51.895a37.572 37.572 0 0 1-8.1 23.358 37.741 37.741 0 0 1-59.248 0 37.571 37.571 0 0 1-8.1-23.358v-51.895a37.538 37.538 0 0 1 8.72-24.13 35.875 35.875 0 0 1 3.234-3.397c14.505-13.599 37.077-13.599 51.581 0 .306.272.603.57.9.85.85.848 1.588 1.697 2.335 2.546a37.538 37.538 0 0 1 8.678 24.131Z" fill-rule="evenodd" data-name="Path 210"/><path d="M-4403.598 1170.134v51.895a37.572 37.572 0 0 1-8.1 23.358 37.741 37.741 0 0 1-59.248 0 37.572 37.572 0 0 1-8.151-23.358v-51.895a37.538 37.538 0 0 1 8.72-24.13 35.864 35.864 0 0 1 3.235-3.397c14.504-13.599 37.076-13.599 51.58 0 .306.272.603.57.9.85.85.848 1.588 1.697 2.335 2.546a37.537 37.537 0 0 1 8.729 24.131Z" fill="#dfe6f5" fill-rule="evenodd" data-name="Path 211"/><path d="M-4460.223 1144.086a2.36 2.36 0 1 1 0 .1z" fill-rule="evenodd" data-name="Ellipse 17"/><path d="M-4460.223 1151.949a2.36 2.36 0 1 1 0 .1z" fill-rule="evenodd" data-name="Ellipse 18"/><path d="M-4460.223 1159.811a2.36 2.36 0 1 1 0 .1z" fill-rule="evenodd" data-name="Ellipse 19"/><path d="M-4460.223 1167.674a2.36 2.36 0 1 1 0 .1z" fill-rule="evenodd" data-name="Ellipse 20"/><path d="M-4460.223 1175.536a2.36 2.36 0 1 1 0 .1z" fill-rule="evenodd" data-name="Ellipse 21"/><path d="M-4460.223 1183.398a2.36 2.36 0 1 1 0 .1z" fill-rule="evenodd" data-name="Ellipse 22"/><path d="M-4460.223 1191.26a2.36 2.36 0 1 1 0 .1z" fill-rule="evenodd" data-name="Ellipse 23"/><path d="M-4460.223 1199.132a2.36 2.36 0 1 1 0 .1z" fill-rule="evenodd" data-name="Ellipse 24"/><path d="M-4460.223 1206.994a2.36 2.36 0 1 1 0 .1z" fill-rule="evenodd" data-name="Ellipse 25"/><path d="M-4460.223 1214.857a2.36 2.36 0 1 1 0 .1z" fill-rule="evenodd" data-name="Ellipse 26"/><path d="M-4460.223 1222.719a2.36 2.36 0 1 1 0 .1z" fill-rule="evenodd" data-name="Ellipse 27"/><path d="M-4460.223 1230.581a2.36 2.36 0 1 1 0 .1z" fill-rule="evenodd" data-name="Ellipse 28"/><path d="M-4460.223 1238.444a2.36 2.36 0 1 1 0 .1z" fill-rule="evenodd" data-name="Ellipse 29"/><path d="M-4460.223 1246.306a2.36 2.36 0 1 1 0 .1z" fill-rule="evenodd" data-name="Ellipse 30"/><path d="M-4466.506 1144.187a2.36 2.36 0 0 1-3.863 1.817 35.874 35.874 0 0 1 3.235-3.397c.403.428.627.992.628 1.58Z" fill-rule="evenodd" data-name="Path 212"/><path d="M-4471.227 1151.949a2.36 2.36 0 1 1 0 .1z" fill-rule="evenodd" data-name="Ellipse 31"/><path d="M-4471.227 1159.811a2.36 2.36 0 1 1 0 .1z" fill-rule="evenodd" data-name="Ellipse 32"/><path d="M-4471.227 1167.674a2.36 2.36 0 1 1 0 .1z" fill-rule="evenodd" data-name="Ellipse 33"/><path d="M-4471.227 1175.536a2.36 2.36 0 1 1 0 .1z" fill-rule="evenodd" data-name="Ellipse 34"/><path d="M-4471.227 1183.398a2.36 2.36 0 1 1 0 .1z" fill-rule="evenodd" data-name="Ellipse 35"/><path d="M-4471.227 1191.26a2.36 2.36 0 1 1 0 .1z" fill-rule="evenodd" data-name="Ellipse 36"/><path d="M-4471.227 1199.132a2.36 2.36 0 1 1 0 .1z" fill-rule="evenodd" data-name="Ellipse 37"/><path d="M-4471.227 1206.994a2.36 2.36 0 1 1 0 .1z" fill-rule="evenodd" data-name="Ellipse 38"/><path d="M-4471.227 1214.857a2.36 2.36 0 1 1 0 .1z" fill-rule="evenodd" data-name="Ellipse 39"/><path d="M-4471.227 1222.719a2.36 2.36 0 1 1 0 .1z" fill-rule="evenodd" data-name="Ellipse 40"/><path d="M-4471.227 1230.581a2.36 2.36 0 1 1 0 .1z" fill-rule="evenodd" data-name="Ellipse 41"/><path d="M-4471.227 1238.444a2.36 2.36 0 1 1 0 .1z" fill-rule="evenodd" data-name="Ellipse 42"/><path d="M-4466.506 1246.406a2.352 2.352 0 0 1-1.604 2.233 38.765 38.765 0 0 1-2.879-3.243 2.352 2.352 0 0 1 4.483 1.01Z" fill-rule="evenodd" data-name="Path 213"/><path d="M-4449.21 1144.086a2.36 2.36 0 1 1 0 .1z" fill-rule="evenodd" data-name="Ellipse 43"/><path d="M-4449.21 1151.949a2.36 2.36 0 1 1 0 .1z" fill-rule="evenodd" data-name="Ellipse 44"/><path d="M-4449.21 1159.811a2.36 2.36 0 1 1 0 .1z" fill-rule="evenodd" data-name="Ellipse 45"/><path d="M-4449.21 1167.674a2.36 2.36 0 1 1 0 .1z" fill-rule="evenodd" data-name="Ellipse 46"/><path d="M-4449.21 1175.536a2.36 2.36 0 1 1 0 .1z" fill-rule="evenodd" data-name="Ellipse 47"/><path d="M-4449.21 1183.398a2.36 2.36 0 1 1 0 .1z" fill-rule="evenodd" data-name="Ellipse 48"/><path d="M-4449.21 1191.26a2.36 2.36 0 1 1 0 .1z" fill-rule="evenodd" data-name="Ellipse 49"/><path d="M-4449.21 1199.132a2.36 2.36 0 1 1 0 .1z" fill-rule="evenodd" data-name="Ellipse 50"/><path d="M-4449.21 1206.994a2.36 2.36 0 1 1 0 .1z" fill-rule="evenodd" data-name="Ellipse 51"/><path d="M-4449.21 1214.857a2.36 2.36 0 1 1 0 .1z" fill-rule="evenodd" data-name="Ellipse 52"/><path d="M-4449.21 1222.719a2.36 2.36 0 1 1 0 .1z" fill-rule="evenodd" data-name="Ellipse 53"/><path d="M-4449.21 1230.581a2.36 2.36 0 1 1 0 .1z" fill-rule="evenodd" data-name="Ellipse 54"/><path d="M-4449.21 1238.444a2.36 2.36 0 1 1 0 .1z" fill-rule="evenodd" data-name="Ellipse 55"/><path d="M-4449.21 1246.306a2.36 2.36 0 1 1 0 .1z" fill-rule="evenodd" data-name="Ellipse 56"/><path d="M-4438.206 1144.086a2.36 2.36 0 1 1 0 .1z" fill-rule="evenodd" data-name="Ellipse 57"/><path d="M-4438.206 1151.949a2.36 2.36 0 1 1 0 .1z" fill-rule="evenodd" data-name="Ellipse 58"/><path d="M-4438.206 1159.811a2.36 2.36 0 1 1 0 .1z" fill-rule="evenodd" data-name="Ellipse 59"/><path d="M-4438.206 1167.674a2.36 2.36 0 1 1 0 .1z" fill-rule="evenodd" data-name="Ellipse 60"/><path d="M-4438.206 1175.536a2.36 2.36 0 1 1 0 .1z" fill-rule="evenodd" data-name="Ellipse 61"/><path d="M-4438.206 1183.398a2.36 2.36 0 1 1 0 .1z" fill-rule="evenodd" data-name="Ellipse 62"/><path d="M-4438.206 1191.26a2.36 2.36 0 1 1 0 .1z" fill-rule="evenodd" data-name="Ellipse 63"/><path d="M-4438.206 1199.132a2.36 2.36 0 1 1 0 .1z" fill-rule="evenodd" data-name="Ellipse 64"/><path d="M-4438.206 1206.994a2.36 2.36 0 1 1 0 .1z" fill-rule="evenodd" data-name="Ellipse 65"/><path d="M-4438.206 1214.857a2.36 2.36 0 1 1 0 .1z" fill-rule="evenodd" data-name="Ellipse 66"/><path d="M-4438.206 1222.719a2.36 2.36 0 1 1 0 .1z" fill-rule="evenodd" data-name="Ellipse 67"/><path d="M-4438.206 1230.581a2.36 2.36 0 1 1 0 .1z" fill-rule="evenodd" data-name="Ellipse 68"/><path d="M-4438.206 1238.444a2.36 2.36 0 1 1 0 .1z" fill-rule="evenodd" data-name="Ellipse 69"/><path d="M-4438.206 1246.306a2.36 2.36 0 1 1 0 .1z" fill-rule="evenodd" data-name="Ellipse 70"/><path d="M-4427.194 1144.086a2.36 2.36 0 1 1 0 .1z" fill-rule="evenodd" data-name="Ellipse 71"/><path d="M-4427.194 1151.949a2.36 2.36 0 1 1 0 .1z" fill-rule="evenodd" data-name="Ellipse 72"/><path d="M-4427.194 1159.811a2.36 2.36 0 1 1 0 .1z" fill-rule="evenodd" data-name="Ellipse 73"/><path d="M-4427.194 1167.674a2.36 2.36 0 1 1 0 .1z" fill-rule="evenodd" data-name="Ellipse 74"/><path d="M-4427.194 1175.536a2.36 2.36 0 1 1 0 .1z" fill-rule="evenodd" data-name="Ellipse 75"/><path d="M-4427.194 1183.398a2.36 2.36 0 1 1 0 .1z" fill-rule="evenodd" data-name="Ellipse 76"/><path d="M-4427.194 1191.26a2.36 2.36 0 1 1 0 .1z" fill-rule="evenodd" data-name="Ellipse 77"/><path d="M-4427.194 1199.132a2.36 2.36 0 1 1 0 .1z" fill-rule="evenodd" data-name="Ellipse 78"/><path d="M-4427.194 1206.994a2.36 2.36 0 1 1 0 .1z" fill-rule="evenodd" data-name="Ellipse 79"/><path d="M-4427.194 1214.857a2.36 2.36 0 1 1 0 .1z" fill-rule="evenodd" data-name="Ellipse 80"/><path d="M-4427.194 1222.719a2.36 2.36 0 1 1 0 .1z" fill-rule="evenodd" data-name="Ellipse 81"/><path d="M-4427.194 1230.581a2.36 2.36 0 1 1 0 .1z" fill-rule="evenodd" data-name="Ellipse 82"/><path d="M-4427.194 1238.444a2.36 2.36 0 1 1 0 .1z" fill-rule="evenodd" data-name="Ellipse 83"/><path d="M-4427.194 1246.306a2.36 2.36 0 1 1 0 .1z" fill-rule="evenodd" data-name="Ellipse 84"/><path d="M-4412.318 1146.004a2.36 2.36 0 0 1-3.863-1.818 2.31 2.31 0 0 1 .628-1.596c.306.272.603.57.9.85a47.426 47.426 0 0 1 2.335 2.564Z" fill-rule="evenodd" data-name="Path 214"/><path d="M-4416.19 1151.949a2.36 2.36 0 1 1 0 .1z" fill-rule="evenodd" data-name="Ellipse 85"/><path d="M-4416.19 1159.811a2.36 2.36 0 1 1 0 .1z" fill-rule="evenodd" data-name="Ellipse 86"/><path d="M-4416.19 1167.674a2.36 2.36 0 1 1 0 .1z" fill-rule="evenodd" data-name="Ellipse 87"/><path d="M-4416.19 1175.536a2.36 2.36 0 1 1 0 .1z" fill-rule="evenodd" data-name="Ellipse 88"/><path d="M-4416.19 1183.398a2.36 2.36 0 1 1 0 .1z" fill-rule="evenodd" data-name="Ellipse 89"/><path d="M-4416.19 1191.26a2.36 2.36 0 1 1 0 .1z" fill-rule="evenodd" data-name="Ellipse 90"/><path d="M-4416.19 1199.132a2.36 2.36 0 1 1 0 .1z" fill-rule="evenodd" data-name="Ellipse 91"/><path d="M-4416.19 1206.994a2.36 2.36 0 1 1 0 .1z" fill-rule="evenodd" data-name="Ellipse 92"/><path d="M-4416.19 1214.857a2.36 2.36 0 1 1 0 .1z" fill-rule="evenodd" data-name="Ellipse 93"/><path d="M-4416.19 1222.719a2.36 2.36 0 1 1 0 .1z" fill-rule="evenodd" data-name="Ellipse 94"/><path d="M-4416.19 1230.581a2.36 2.36 0 1 1 0 .1z" fill-rule="evenodd" data-name="Ellipse 95"/><path d="M-4416.19 1238.444a2.36 2.36 0 1 1 0 .1z" fill-rule="evenodd" data-name="Ellipse 96"/><path d="M-4411.698 1245.387a38.748 38.748 0 0 1-2.879 3.243 2.36 2.36 0 1 1 2.879-3.243Z" fill-rule="evenodd" data-name="Path 215"/><path d="M-4443.02 1218.098h.203a5.4 5.4 0 0 1 5.4 5.4v94.561a5.4 5.4 0 0 1-5.4 5.4h-.203a5.4 5.4 0 0 1-5.4-5.4v-94.56a5.4 5.4 0 0 1 5.4-5.4z" fill="#54576b" fill-rule="evenodd" data-name="Rectangle 91"/><path d="M-4473.71 1309.305h61.583a6.95 6.95 0 0 1 6.95 6.95v.254a6.95 6.95 0 0 1-6.95 6.95h-61.583a6.95 6.95 0 0 1-6.95-6.95v-.254a6.95 6.95 0 0 1 6.95-6.95z" fill="#54576b" fill-rule="evenodd" data-name="Rectangle 92"/><path d="M-4443.02 1218.098h.203a5.4 5.4 0 0 1 5.4 5.4v94.561a5.4 5.4 0 0 1-5.4 5.4h-.203a5.4 5.4 0 0 1-5.4-5.4v-94.56a5.4 5.4 0 0 1 5.4-5.4z" fill-rule="evenodd" data-name="Rectangle 93"/><path d="M-4473.71 1309.305h61.583a6.95 6.95 0 0 1 6.95 6.95v.254a6.95 6.95 0 0 1-6.95 6.95h-61.583a6.95 6.95 0 0 1-6.95-6.95v-.254a6.95 6.95 0 0 1 6.95-6.95z" fill-rule="evenodd" data-name="Rectangle 94"/><path d="M-4441.45 1218.098h.204a5.4 5.4 0 0 1 5.4 5.4v94.561a5.4 5.4 0 0 1-5.4 5.4h-.204a5.4 5.4 0 0 1-5.4-5.4v-94.56a5.4 5.4 0 0 1 5.4-5.4z" fill="#54576b" fill-rule="evenodd" data-name="Rectangle 95"/><path d="M-4472.139 1309.305h61.582a6.95 6.95 0 0 1 6.95 6.95v.254a6.95 6.95 0 0 1-6.95 6.95h-61.582a6.95 6.95 0 0 1-6.95-6.95v-.254a6.95 6.95 0 0 1 6.95-6.95z" fill="#54576b" fill-rule="evenodd" data-name="Rectangle 96"/><path d="M-4375.8 1227.013c-12.05 26.219-38.263 43.02-67.118 43.02-28.855 0-55.069-16.801-67.12-43.02-7.82-11.216-14.654-33.58-14.654-30.923 0 45.163 36.611 81.774 81.774 81.774 45.162 0 81.773-36.611 81.773-81.774 0-2.657-6.835 19.707-14.654 30.923Z" fill="#54576b" fill-rule="evenodd" data-name="Path 216"/><path d="M-4442.918 1114.308a81.74 81.74 0 0 0-67.12 35.117 73.471 73.471 0 0 0-6.792 30.923c0 2.632.139 5.257.417 7.868 3.829-37.712 35.582-66.406 73.488-66.407 37.91 0 69.663 28.692 73.494 66.404.277-2.612.416-5.237.416-7.865a73.47 73.47 0 0 0-6.793-30.923 81.74 81.74 0 0 0-67.11-35.117Z" fill="#54576b" fill-rule="evenodd" data-name="Path 217"/><path d="M-4444.49 1228.22a3.142 3.142 0 1 1 0 .1z" fill-rule="evenodd" data-name="Ellipse 97"/><path d="M-4295.104 1304.883a1.18 1.18 0 1 1 0 .1z" fill-rule="evenodd" data-name="Ellipse 98"/><path d="M-4338.449 1328.724a31.551 31.551 0 0 1-13.585-2.98c-15.844-7.456-23.655-6.513-35.474-5.095a166.483 166.483 0 0 1-33.437 1.214 20.93 20.93 0 0 1-15.877-8.49c-17.525-22.756-5.8-82.666-5.29-85.205a.79.79 0 0 1 1.545.306c-.118.611-12.099 61.744 4.993 83.93a19.418 19.418 0 0 0 14.731 7.905c11.051.709 22.145.302 33.114-1.214 12.09-1.46 20.08-2.428 36.332 5.222 25.922 12.2 56.302-18.833 56.599-19.147a.79.79 0 0 1 1.13 1.096c-.23.271-21.958 22.458-44.78 22.458Z" fill="#dfe6f5" fill-rule="evenodd" data-name="Path 218"/><path d="M-4309.563 911.176c-12.983-23.392-39.338-39.43-69.624-39.43-43.133 0-78.234 32.45-78.234 72.34h-5.544c0-42.92 37.571-77.843 83.735-77.843 26.729 0 50.57 11.7 65.914 29.888 1.256 4.075 2.216 8.244 3.167 12.405.212.891.407 1.766.586 2.64Z" fill="#535461" fill-rule="evenodd" data-name="Path 219"/><path d="M-4451.265 921.102h7.243v50.095h-7.243c-11.517 0-20.853-9.336-20.853-20.853v-8.338a20.853 20.853 0 0 1 20.853-20.904Z" fill="#dfe6f5" fill-rule="evenodd" data-name="Path 220"/><path d="M-4444.14 921.144h.235a6.03 6.03 0 0 1 6.03 6.03v37.993a6.03 6.03 0 0 1-6.03 6.03h-.235a6.03 6.03 0 0 1-6.03-6.03v-37.993a6.03 6.03 0 0 1 6.03-6.03z" fill="#535461" fill-rule="evenodd" data-name="Rectangle 97"/><path d="M-3976.066 1258.921s6.046-5.697 0 0Z" fill="#6c63ff" fill-rule="evenodd" data-name="Path 226"/></g><path d="M-4121.444 1175.2v-.4c0-2.8-2-5.2-4.6-5.7v-.3c0-1.6.6-3 1.7-4.1.4-.4.4-1 0-1.4-.4-.4-1-.4-1.4 0-1.5 1.5-2.3 3.4-2.3 5.5v.3c-1 .2-2 .6-2.8 1.4-1.2 1.1-1.8 2.6-1.8 4.2v.6c0 1-.4 2-1.1 2.8-1.9 2.1-2.6 4.9-2.1 7.7.7 3.6 3.5 6.4 7 7.1.6.1 1.2.2 1.8.2 2.1 0 4.1-.7 5.7-2.1 2.1-1.7 3.3-4.2 3.3-6.9 0-2.2-.8-4.3-2.2-5.9-.8-1-1.2-2-1.2-3Z" fill="#909090" fill-rule="evenodd" data-name="Path 763"/></g></svg>