<svg xmlns="http://www.w3.org/2000/svg" width="1768.236" height="987.494" viewBox="-4550.236 679.231 1768.236 987.494"><g data-name="CompositeLayer"><path d="M-2815.893 724.553c-.021-16.522.005-32.734 0-44.766-17.533.102-75.472-.9-203.898-.43-204.175.75-1209.6 1-1209.6 1l-317.877 640.243s-46.655 73.157 230.022 135.6c44.128 9.96-203.825 63.139-146.306 72.4 94.547 15.223 196.182 71.2 461.606 97.6 265.424 26.4 478.426-65.3 776.123-97.6 297.697-32.3 409.932 138.125 409.932 138.125s.056-897.64-.002-942.172Z" fill="#f1eaf7" fill-rule="evenodd" data-name="Path 235"/><path d="M0 64.9a62.5 65 0 1 1 0 .1z" fill-rule="evenodd" fill="url(&quot;#a&quot;)" transform="translate(-2907 832)" data-name="Ellipse 116"/><path d="M0 53.4a57.5 53.5 0 1 1 0 .1z" fill-rule="evenodd" fill="url(&quot;#b&quot;)" transform="translate(-2981 1411)" data-name="Ellipse 127"/><path d="M0 23.4a21 23.5 0 1 1 0 .1z" fill-rule="evenodd" fill="url(&quot;#c&quot;)" transform="translate(-3307 1446)" data-name="Ellipse 115"/><path d="M0 34.4a33 34.5 0 1 1 0 .1z" fill-rule="evenodd" fill="url(&quot;#d&quot;)" transform="translate(-3479 849)" data-name="Ellipse 108"/><path d="M0 23.4a21 23.5 0 1 1 0 .1z" fill-rule="evenodd" fill="url(&quot;#e&quot;)" transform="translate(-3693 985)" data-name="Ellipse 110"/><path d="M0 55.4a57.5 55.5 0 1 1 0 .1z" fill-rule="evenodd" fill="url(&quot;#f&quot;)" transform="translate(-3733 1419)" data-name="Ellipse 177"/></g><defs><linearGradient x1=".5" y1="0" x2=".5" y2="1" id="a"><stop stop-color="rgba(255,255,255,0 )" offset="0"/><stop stop-color="rgba(128,128,128,0.35 )" offset="1"/></linearGradient><linearGradient x1=".5" y1="0" x2=".5" y2="1" id="b"><stop stop-color="rgba(255,255,255,0 )" offset="0"/><stop stop-color="rgba(128,128,128,0.35 )" offset="1"/></linearGradient><linearGradient x1=".5" y1="0" x2=".5" y2="1" id="c"><stop stop-color="rgba(255,255,255,0 )" offset="0"/><stop stop-color="rgba(128,128,128,0.35 )" offset="1"/></linearGradient><linearGradient x1=".5" y1="0" x2=".5" y2="1" id="d"><stop stop-color="rgba(255,255,255,0 )" offset="0"/><stop stop-color="rgba(128,128,128,0.35 )" offset="1"/></linearGradient><linearGradient x1=".5" y1="0" x2=".5" y2="1" id="e"><stop stop-color="rgba(255,255,255,0 )" offset="0"/><stop stop-color="rgba(128,128,128,0.35 )" offset="1"/></linearGradient><linearGradient x1=".5" y1="0" x2=".5" y2="1" id="f"><stop stop-color="rgba(255,255,255,0 )" offset="0"/><stop stop-color="rgba(128,128,128,0.35 )" offset="1"/></linearGradient></defs></svg>