<svg xmlns="http://www.w3.org/2000/svg" width="1920.294" height="1038.761" viewBox="-4736.295 680 1920.294 1038.761"><g data-name="CompositeLayer"><path d="M-2816.028 727.675c-.024-17.38.005-34.433 0-47.09-19.413.107-83.564-.947-225.757-.452-226.063.789-1339.27 1.052-1339.27 1.052l-351.953 673.482s-51.657 76.954 254.68 142.64c48.858 10.476-225.676 66.416-161.99 76.158 104.682 16.013 217.213 74.896 511.09 102.667 293.876 27.77 529.714-68.69 859.324-102.667 329.611-33.977 453.877 145.296 453.877 145.296s.062-944.242-.001-991.086Z" fill="#f1eaf7" fill-rule="evenodd" data-name="Path 235"/><path d="M0 55.4a57.5 55.5 0 1 1 0 .1z" fill-rule="evenodd" fill="url(&quot;#a&quot;)" transform="translate(-3733 1419)" data-name="Ellipse 177"/><path d="M0 34.4a33 34.5 0 1 1 0 .1z" fill-rule="evenodd" fill="url(&quot;#b&quot;)" transform="translate(-4062 1567)" data-name="Ellipse 114"/><path d="M0 23.4a21 23.5 0 1 1 0 .1z" fill-rule="evenodd" fill="url(&quot;#c&quot;)" transform="translate(-3307 1446)" data-name="Ellipse 115"/><path d="M0 53.4a57.5 53.5 0 1 1 0 .1z" fill-rule="evenodd" fill="url(&quot;#d&quot;)" transform="translate(-2981 1411)" data-name="Ellipse 127"/><path d="M0 34.4a33 34.5 0 1 1 0 .1z" fill-rule="evenodd" fill="url(&quot;#e&quot;)" transform="translate(-3479 849)" data-name="Ellipse 108"/><path d="M0 23.4a21 23.5 0 1 1 0 .1z" fill-rule="evenodd" fill="url(&quot;#f&quot;)" transform="translate(-3693 985)" data-name="Ellipse 110"/></g><defs><linearGradient x1=".5" y1="0" x2=".5" y2="1" id="a"><stop stop-color="rgba(255,255,255,0 )" offset="0"/><stop stop-color="rgba(128,128,128,0.35 )" offset="1"/></linearGradient><linearGradient x1=".5" y1="0" x2=".5" y2="1" id="b"><stop stop-color="rgba(255,255,255,0 )" offset="0"/><stop stop-color="rgba(128,128,128,0.35 )" offset="1"/></linearGradient><linearGradient x1=".5" y1="0" x2=".5" y2="1" id="c"><stop stop-color="rgba(255,255,255,0 )" offset="0"/><stop stop-color="rgba(128,128,128,0.35 )" offset="1"/></linearGradient><linearGradient x1=".5" y1="0" x2=".5" y2="1" id="d"><stop stop-color="rgba(255,255,255,0 )" offset="0"/><stop stop-color="rgba(128,128,128,0.35 )" offset="1"/></linearGradient><linearGradient x1=".5" y1="0" x2=".5" y2="1" id="e"><stop stop-color="rgba(255,255,255,0 )" offset="0"/><stop stop-color="rgba(128,128,128,0.35 )" offset="1"/></linearGradient><linearGradient x1=".5" y1="0" x2=".5" y2="1" id="f"><stop stop-color="rgba(255,255,255,0 )" offset="0"/><stop stop-color="rgba(128,128,128,0.35 )" offset="1"/></linearGradient></defs></svg>