<svg xmlns="http://www.w3.org/2000/svg" width="1113.82" height="1003.991" viewBox="-4736.293 679.859 1113.82 1003.991"><g data-name="CompositeLayer"><path d="m11618.792 838.401 1088.564-.141s-5.856 110.39-48.156 190.74c-11.76 22.337-26.626 41.653-42.175 58.125-39.62 41.972-82.626 63.475-82.626 63.475s-80.3 42.85-156.8 64.8c-76.5 21.95-31.099 10.55-82 21.2-50.9 10.65-118.4-6.15-155.2 56-36.8 62.15 35.132 64.531 8.001 192.6-9.601 45.325-35.6 240.8-168 296-132.4 55.2-361.6-75.2-361.6-75.2l-.008-867.599Z" fill-rule="evenodd" fill="url(&quot;#a&quot;)" transform="translate(-16354.8 -158.4)" data-name="Path 237"/><path d="M0 32.4a37 32.5 0 1 1 0 .1z" fill-rule="evenodd" fill="url(&quot;#b&quot;)" transform="translate(-4609 865)" data-name="Ellipse 174"/><path d="M-3965.36 872.692c-7.05-.01-14.095-.416-21.1-1.219-21.07-2.393-40.5-8.047-54.715-15.92-14.388-7.97-21.75-17.302-20.732-26.277.706-6.218 6.717-11.784 18.374-17.014a.657.657 0 0 1 .538 1.2c-11.197 5.023-16.956 10.245-17.605 15.962-.956 8.413 6.17 17.284 20.062 24.98 14.067 7.79 33.324 13.389 54.226 15.763 20.902 2.374 40.924 1.236 56.38-3.203 15.265-4.384 24.198-11.431 25.153-19.844.646-5.69-2.489-11.725-9.066-17.45a.657.657 0 1 1 .864-.992c6.918 6.022 10.205 12.45 9.508 18.59-1.02 8.976-10.287 16.42-26.096 20.96-10.293 2.956-22.579 4.464-35.791 4.464Z" fill="#fff" fill-rule="evenodd" data-name="Path 239"/><g data-name="undraw_lost_online_wqob11111111"><path d="M-4429.885 1498.71a30.146 30.146 0 1 1 0 .1z" fill="#6c63ff" fill-rule="evenodd" data-name="Ellipse 138"/><path d="M-4405.502 1486.445a4.433 4.433 0 1 1 0 .1z" fill="rgba(0,0,0,0.9 )" fill-rule="evenodd" data-name="Ellipse 139"/><path d="M-4408.753 1516.148a7.684 7.684 0 1 1 0 .1z" fill="rgba(0,0,0,0.9 )" fill-rule="evenodd" data-name="Ellipse 140"/><path d="M-4425.304 1504.474a1.921 1.921 0 1 1 0 .1z" fill="rgba(0,0,0,0.9 )" fill-rule="evenodd" data-name="Ellipse 141"/><path d="M-4391.907 1479.78a1.021 1.021 0 1 1 0 .1z" fill="rgba(0,0,0,0.9 )" fill-rule="evenodd" data-name="Ellipse 143"/><path d="M-4403.729 1500.04a1.33 1.33 0 1 1 0 .1z" fill="rgba(0,0,0,0.9 )" fill-rule="evenodd" data-name="Ellipse 144"/><path d="M-4378.581 1492.815a1.021 1.021 0 1 1 0 .1z" fill="rgba(0,0,0,0.9 )" fill-rule="evenodd" data-name="Ellipse 146"/><path d="M-4387.469 1503.23a1.475 1.475 0 1 1 0 .1z" fill="rgba(0,0,0,0.9 )" fill-rule="evenodd" data-name="Ellipse 148"/><path d="M-4420.28 1486.445a1.921 1.921 0 1 1 0 .1z" fill="rgba(0,0,0,0.9 )" fill-rule="evenodd" data-name="Ellipse 149"/><path d="M-4393.208 1516.187a84.338 84.338 0 0 1-9.487-.548c-9.473-1.076-18.21-3.618-24.601-7.158-6.47-3.584-9.78-7.78-9.322-11.815.318-2.796 3.02-5.298 8.262-7.65a.296.296 0 0 1 .242.54c-5.035 2.258-7.625 4.606-7.917 7.177-.43 3.782 2.774 7.77 9.021 11.23 6.325 3.504 14.984 6.021 24.382 7.089 9.398 1.067 18.4.555 25.35-1.44 6.863-1.972 10.88-5.14 11.31-8.923.29-2.559-1.12-5.272-4.077-7.846a.296.296 0 1 1 .388-.446c3.11 2.708 4.59 5.598 4.276 8.359-.459 4.035-4.626 7.382-11.734 9.424-4.628 1.329-10.152 2.007-16.093 2.007Z" fill="#fff" fill-rule="evenodd" data-name="Path 239"/></g><path d="m11629.617 799.401 1112.581-.004s.264-.083 0 0c-.263.082 11.903 101.203-45.799 198.803-57.7 97.6-177.6 140.8-227.199 145.6-39.141 19.811-242.5 28.8-242.5 28.8s-23.966-6.265-50.3 11.2c-22.245 14.752-66.11 15.705-72 30.4-16.633 41.491-53.286 155.3-64 254.4-6.932 64.107 98.783 88.234 75.2 139.2-25.52 55.152-45.63 159.4-172.03 190.2-126.4 30.8-314.293-83.962-314.293-83.962l.34-914.637Z" fill-rule="evenodd" fill="url(&quot;#c&quot;)" transform="translate(-16365.57 -119.4)" data-name="Path 236"/></g><defs><linearGradient x1=".5" y1="0" x2=".5" y2="1" id="a"><stop stop-color="#65018a" offset="0"/><stop stop-color="#680090" offset=".134"/><stop stop-color="#70009a" offset=".274"/><stop stop-color="#8d0189" offset=".522"/><stop stop-color="#a600a0" offset=".85"/><stop stop-color="#9e0098" offset=".92"/><stop stop-color="#b000ab" offset="1"/></linearGradient><linearGradient x1=".5" y1="0" x2=".5" y2="1" id="b"><stop stop-color="rgba(255,255,255,0.44 )" offset="0"/><stop stop-color="rgba(128,128,128,0.44 )" offset="1"/></linearGradient><linearGradient x1=".5" y1="0" x2=".5" y2="1" id="c"><stop stop-color="#ff2ad4" offset="0"/><stop stop-color="rgba(134,5,190,0.34 )" offset=".308"/><stop stop-color="rgba(108,8,178,0.67 )" offset=".716"/><stop stop-color="rgba(233,31,255,0.45 )" offset="1"/></linearGradient></defs></svg>