<svg xmlns="http://www.w3.org/2000/svg" width="17.528" height="21.859" viewBox="0 0 17.528 21.859">
  <g id="icons8" transform="translate(-7.925 45)">
    <path id="Path_773" data-name="Path 773" d="M13.048-43.907a3.632,3.632,0,0,1-2.35,1.093,3.36,3.36,0,0,0-2.077.656c-.929.929-.929,17.432,0,18.361.437.437,3.006.656,7.869.656,5.847,0,7.432-.164,8.088-.874.71-.71.874-2.35.874-9.181,0-8.908-.219-9.618-2.732-9.618a3.632,3.632,0,0,1-2.35-1.093C19.661-44.727,18.786-45,16.71-45S13.759-44.727,13.048-43.907Zm6.394,1.366c0,.6-.656.82-2.732.82s-2.732-.219-2.732-.82.656-.82,2.732-.82S19.442-43.142,19.442-42.541Z" fill="#909090"/>
    <rect id="Rectangle_438" data-name="Rectangle 438" width="9.837" height="1.093" transform="translate(11.887 -36.488)" fill="#fff"/>
    <rect id="Rectangle_439" data-name="Rectangle 439" width="9.837" height="1.093" transform="translate(11.887 -33.756)" fill="#fff"/>
    <rect id="Rectangle_440" data-name="Rectangle 440" width="9.837" height="1.093" transform="translate(11.887 -31.024)" fill="#fff"/>
  </g>
</svg>
