<svg id="Group_113" data-name="Group 113" xmlns="http://www.w3.org/2000/svg" width="22.373" height="21.709" viewBox="0 0 22.373 21.709">
  <g id="date" transform="translate(0)">
    <path id="Path_766" data-name="Path 766" d="M7.07-40.93A3.7,3.7,0,0,0,6-38.79c0,1.017.375,1.07,9.631,1.07s9.631-.054,9.631-1.07a3.7,3.7,0,0,0-1.07-2.14c-.963-.963-1.766-1.07-8.56-1.07S8.033-41.893,7.07-40.93Z" transform="translate(-6 42)" fill="#909090"/>
    <path id="Path_767" data-name="Path 767" d="M6-25.382c0,7.276.375,7.758,6.1,7.758h3.906l-.535-2.087a5.605,5.605,0,0,1,.214-4.066c1.124-3,3.157-4.28,6.688-4.28,2.782,0,2.889-.054,2.889-1.5V-31H6Zm6.313-2.247a1.278,1.278,0,0,1-2.14,1.017,1.278,1.278,0,0,1,1.017-2.14A1.5,1.5,0,0,1,12.313-27.629Zm4.28,0c.214,1.124-1.445,1.873-2.033.91-.642-1.017,0-2.247,1.017-2.033A1.459,1.459,0,0,1,16.594-27.629Zm-4.28,4.815a1.278,1.278,0,0,1-2.14,1.017,1.278,1.278,0,0,1,1.017-2.14A1.5,1.5,0,0,1,12.313-22.814Z" transform="translate(-6 36.885)" fill="#909090"/>
  </g>
  <circle id="Ellipse_227" data-name="Ellipse 227" cx="5.618" cy="5.618" r="5.618" transform="translate(10.602 9.403)" fill="#909090"/>
  <path id="_1date" data-name="1date" d="M6.42,1.07a5.35,5.35,0,1,0,5.35,5.35A5.35,5.35,0,0,0,6.42,1.07ZM0,6.42a6.42,6.42,0,1,1,6.42,6.42A6.42,6.42,0,0,1,0,6.42ZM6.42,3.21a.535.535,0,0,1,.535.535V6.163L9.43,8.143a.535.535,0,1,1-.668.836L6.086,6.838a.535.535,0,0,1-.2-.418V3.745A.535.535,0,0,1,6.42,3.21Z" transform="translate(9.532 8.868)" fill="#fff" fill-rule="evenodd"/>
</svg>
