<svg xmlns="http://www.w3.org/2000/svg" width="22.373" height="17.402" viewBox="0 0 22.373 17.402">
  <path id="_1book" data-name="1book" d="M21.061,32c-2.129.121-6.359.56-8.971,2.159a.6.6,0,0,0-.282.512V48.8a.615.615,0,0,0,.9.524C15.4,47.974,19.285,47.6,21.207,47.5a1.211,1.211,0,0,0,1.166-1.191V33.19A1.218,1.218,0,0,0,21.061,32ZM10.283,34.157C7.671,32.558,3.441,32.119,1.312,32A1.218,1.218,0,0,0,0,33.19V46.313A1.211,1.211,0,0,0,1.166,47.5c1.922.1,5.81.47,8.5,1.824a.613.613,0,0,0,.9-.523V34.662A.585.585,0,0,0,10.283,34.157Z" transform="translate(0 -31.996)" fill="#909090"/>
</svg>
