<svg xmlns="http://www.w3.org/2000/svg" width="24.585" height="20.543" viewBox="159 740 24.585 20.543"><g data-name="icons8-teacher-50"><path d="M160.027 742.106c0 2.003 0 2.054 1.13 1.284 1.746-1.233 3.39-.976 5.085.667 1.643 1.695 1.9 3.339.719 5.033-.77 1.079-.72 1.182.513 1.49 1.027.257 1.695 0 2.774-1.027 1.489-1.438 3.081-1.695 4.057-.72 1.181 1.182.668 3.134-1.49 5.65l-2.054 2.465h11.864V740h-22.598v2.106Zm14.894 1.49c0 .307-1.387.513-3.081.513-1.695 0-3.082-.206-3.082-.514 0-.308 1.387-.513 3.082-.513 1.694 0 3.081.205 3.081.513Zm5.136 0c0 .256-.822.513-1.798.513-.975 0-1.797-.257-1.797-.514 0-.308.822-.513 1.797-.513.976 0 1.798.205 1.798.513Zm0 2.567c0 .308-2.208.514-5.65.514-3.44 0-5.649-.206-5.649-.514 0-.308 2.209-.514 5.65-.514 3.44 0 5.649.206 5.649.514Z" fill="#434343" fill-rule="evenodd" data-name="Path 777"/><path d="M161.054 744.622c-2.054 2.055-.565 5.65 2.311 5.65 1.644 0 3.339-1.695 3.339-3.339 0-1.643-1.695-3.338-3.339-3.338-.719 0-1.746.462-2.31 1.027Z" fill="#434343" fill-rule="evenodd" data-name="Path 778"/><path d="M170.556 750.837c-1.182 1.438-1.49 1.592-2.62 1.027-.719-.308-2.619-.565-4.262-.565-4.058 0-4.674.719-4.674 5.547v3.697H167.217V754.945l1.592.565c1.439.514 1.695.411 2.774-.924 1.849-2.26 2.465-3.647 2.157-4.52-.514-1.284-1.695-.976-3.184.77Z" fill="#434343" fill-rule="evenodd" data-name="Path 779"/><path d="M168.245 759.26v1.283H176c7.703 0 7.703 0 7.55-1.18-.155-1.13-.309-1.13-7.704-1.285l-7.601-.154v1.335Z" fill="#434343" fill-rule="evenodd" data-name="Path 780"/></g></svg>