<svg xmlns="http://www.w3.org/2000/svg" width="83.096" height="110"><path d="M2.444 0A2.449 2.449 0 0 0 0 2.444v97.76a2.443 2.443 0 0 0 2.444 2.444h17.108v4.888a2.43 2.43 0 0 0 1.337 2.196c.82.42 1.814.344 2.558-.21l8.325-6.263 8.325 6.263c.745.554 1.737.63 2.558.21a2.43 2.43 0 0 0 1.337-2.196v-4.888h36.66a2.437 2.437 0 0 0 2.444-2.444V2.444A2.443 2.443 0 0 0 80.652 0H2.444Zm14.664 29.328h48.88v4.888h-48.88v-4.888Zm0 14.664h48.88v4.888h-48.88v-4.888Zm14.664 19.78c1.709 0 2.95.975 3.437 2.445.248.248.21.229.458.229.563-.344 1.232-.458 1.91-.458.782 0 1.632.238 2.29.764 1.223.973 1.404 2.424.917 3.895 0 .248.306.22.306.458 1.47.248 2.654 1.508 2.902 2.979a3.608 3.608 0 0 1-1.68 3.666v.687c.735.974.964 2.673.229 3.895-.64 1.07-1.862 1.757-3.131 1.757-.191 0-.344.028-.535 0 0 .248-.286.22-.535.458 0 1.47-.668 2.72-2.138 3.208-.487.238-.735.229-1.222.229-.974 0-2.015-.487-2.75-1.222h-.916a3.894 3.894 0 0 1-2.75 1.145c-.382 0-.83-.019-1.222-.152-1.222-.487-2.138-1.738-2.138-3.208 0-.248-.287-.22-.535-.458-.19.028-.344 0-.534 0-1.27 0-2.492-.688-3.132-1.757-.735-1.222-.745-2.673.23-3.895v-.687a3.608 3.608 0 0 1-1.681-3.666c.248-1.47 1.432-2.74 2.902-2.98 0-.247.306-.219.306-.457-.487-1.47-.306-2.912.916-3.895.659-.526 1.509-.764 2.292-.764.677 0 1.346.114 1.909.458.248-.248.21-.23.458-.23.487-1.47 1.967-2.443 3.437-2.443ZM24.44 91.65c.372.22.745.449 1.146.611.086.038.143.048.229.076a8.696 8.696 0 0 0 2.75.459c1.088 0 2.119-.21 3.13-.611a8.58 8.58 0 0 0 3.285.687c.85 0 1.795-.048 3.055-.61.363-.144.735-.354 1.069-.536v10.922l-5.88-4.43a2.435 2.435 0 0 0-2.903 0l-5.881 4.43V91.65Z" fill="#fff" fill-rule="evenodd" data-name="Path 419"/></svg>