<svg id="مشاورههههه" xmlns="http://www.w3.org/2000/svg" width="110.285" height="116.88" viewBox="0 0 110.285 116.88">
  <path id="Path_414" data-name="Path 414" d="M0,115.521V0H110.285V115.521Z" fill="none"/>
  <g id="Group_8" data-name="Group 8" transform="translate(0.202 0)">
    <path id="Path_415" data-name="Path 415" d="M66.5,3.44a7.5,7.5,0,0,0-7.46,7.46V38.252a7.5,7.5,0,0,0,7.46,7.46h5.469a12.032,12.032,0,0,1,.457,2.176,12.625,12.625,0,0,1-.69,6.654,2.485,2.485,0,0,0,2.224,3.6c5.109,0,8.684-3.9,11.044-7.275a23.984,23.984,0,0,0,2.836-5.158h20.932a7.5,7.5,0,0,0,7.46-7.46V10.9a7.5,7.5,0,0,0-7.46-7.46Zm0,4.973h42.272a2.443,2.443,0,0,1,2.487,2.487V38.252a2.443,2.443,0,0,1-2.487,2.487H86.388a2.469,2.469,0,0,0-2.3,1.564,32.7,32.7,0,0,1-3.147,5.711A17,17,0,0,1,77.491,51.7a22.643,22.643,0,0,0-.136-4.429,27.551,27.551,0,0,0-1.039-4.827,2.485,2.485,0,0,0-2.36-1.7H66.5a2.443,2.443,0,0,1-2.487-2.487V10.9A2.443,2.443,0,0,1,66.5,8.413ZM51.566,13.464h-.185c-9.509.709-15.59,5.77-17.96,12.822-2.253,6.7-1.506,14.949.593,23.632a7.838,7.838,0,0,0-2.341,5.731,10.772,10.772,0,0,0,2.6,7.46,6.545,6.545,0,0,0,2.681,1.438,23.165,23.165,0,0,0,1.506,7.188,15.221,15.221,0,0,0,3.157,4.633c0,3.176.019,5.634,0,8.742-.971,2.088-2.972,3.778-6.013,5.371-3.157,1.671-7.217,3.167-11.287,5.041a36.052,36.052,0,0,0-11.52,7.664,22.5,22.5,0,0,0-5.993,14.482l-.155,2.652h99.794l-.155-2.652a22.5,22.5,0,0,0-6-14.492,36.294,36.294,0,0,0-11.539-7.664c-4.089-1.884-8.14-3.371-11.3-5.041-3.031-1.593-5.022-3.283-5.974-5.352-.029-3.341,0-5.809,0-8.946a16.936,16.936,0,0,0,3.147-4.225,14.841,14.841,0,0,0,1.826-6.343,2.5,2.5,0,0,0-.767-1.807,2.532,2.532,0,0,0-1.846-.69,4.963,4.963,0,0,1-4.857-4.963V53.172A4.983,4.983,0,0,0,64.009,48.2H61.522c-2.739,0-7.46-2.487-7.46-7.46V16.64a2.5,2.5,0,0,0-.437-2.224,2.473,2.473,0,0,0-2.059-.952Zm22.389,2.409v4.973H91.361V15.873Zm22.379,0v4.973h7.46V15.873ZM73.955,28.306v4.973h7.46V28.306Zm12.433,0v4.973h17.406V28.306Z" transform="translate(-6.652 -3.44)" fill="#fff"/>
  </g>
</svg>
