<svg xmlns="http://www.w3.org/2000/svg" width="97.877" height="113.17" viewBox="0 0 97.877 113.17">
  <g id="امتحانننن" transform="translate(0.133)">
    <path id="Path_412" data-name="Path 412" d="M0,113.17V0H97.611V113.17Z" fill="none"/>
    <g id="Group_7" data-name="Group 7" transform="translate(-0.133 3.17)">
      <path id="Path_413" data-name="Path 413" d="M121.957,76.134,118.7,79.388,112.217,72.9l3.254-3.254ZM95.122,80.213v12.6L86.872,99l2.75,3.667L99.7,95.109v-14.9Zm25.208,13.75A22.917,22.917,0,0,1,83.663,112.3H24.08V6.88H82.311L106.58,31.149V72.972a22.921,22.921,0,0,1,13.75,20.992ZM81.372,32.088h19.685L81.372,12.4ZM58.455,52.713H90.538V48.13H58.455Zm0,18.333H88.247V66.463H58.455Zm-4.583,9.167H40.122v13.75h13.75Zm0-18.333H40.122V75.63h13.75Zm0-18.333H40.122V57.3h13.75ZM76.422,84.8H58.455V89.38h16.5A21.843,21.843,0,0,1,76.422,84.8Zm39.325,9.167A18.383,18.383,0,0,0,99.7,75.768V71.047H102V66.463H92.83v4.583h2.292V75.79a15.546,15.546,0,0,0-2.292.435A18.326,18.326,0,0,0,81.555,84.8a17.862,17.862,0,0,0-2.475,9.167,18.333,18.333,0,1,0,36.667,0ZM49.288,48.13H44.7v4.583h4.583Zm0,18.333H44.7v4.583h4.583Zm0,18.333H44.7V89.38h4.583Z" transform="translate(-24.08 -6.88)" fill="#fff"/>
    </g>
  </g>
</svg>
