<svg xmlns="http://www.w3.org/2000/svg" width="423" height="448.483" viewBox="-4766.594 2375.095 423 448.483"><g data-name="CompositeLayer"><g data-name="undraw_podcast_q6p7000000000"><path d="M-4583.615 2607.998s-20.13 13.37-24.886 31.653a36.616 36.616 0 0 1-12.498 19.501 61.584 61.584 0 0 1-9.423 6.167" stroke-linejoin="round" stroke-linecap="round" stroke-width="2" stroke="#535461" fill="transparent" data-name="Path 164"/><path d="M-4633.488 2676.826c1.824-2.174 3.182-11.792 3.182-11.792s-9.236 3.007-11.06 5.182a5.145 5.145 0 0 0 7.881 6.613Z" fill="#9946b7" fill-rule="evenodd" data-name="Path 165"/><path d="M-4616.863 2670.237c.34-2.803-3.74-11.63-3.74-11.63s-6.12 7.544-6.471 10.361a5.145 5.145 0 0 0 10.211 1.27Z" fill="#9326b4" fill-rule="evenodd" data-name="Path 166"/><path d="M-4599.858 2649.398c-1.121-2.608-9.098-8.152-9.098-8.152s-1.477 9.598-.362 12.207a5.144 5.144 0 1 0 9.453-4.06Z" fill="#981199" fill-rule="evenodd" data-name="Path 167"/><path d="M-4590.545 2630.733c-.664-2.762-7.59-9.574-7.59-9.574s-3.075 9.214-2.414 11.974a5.145 5.145 0 1 0 10.004-2.407Z" fill="#bb18b1" fill-rule="evenodd" data-name="Path 168"/><path d="M-4628.52 2651.241c2.832-.204 11.425 4.326 11.425 4.326s-7.846 5.73-10.676 5.937a5.144 5.144 0 1 1-.746-10.26Z" fill="#8e1299" fill-rule="evenodd" data-name="Path 169"/><path d="M-4617.353 2629.55c2.763.65 9.609 7.543 9.609 7.543s-9.197 3.122-11.96 2.477a5.144 5.144 0 1 1 2.358-10.014Z" fill="#9c129c" fill-rule="evenodd" data-name="Path 170"/><path d="M-4603.606 2609.98c2.836.174 10.747 5.812 10.747 5.812s-8.54 4.629-11.373 4.457a5.144 5.144 0 0 1 .626-10.27Z" fill="#e611d4" fill-rule="evenodd" data-name="Path 171"/><path d="M-4567.636 2624.186s-4.62.266 0 0Z" fill="#6c63ff" fill-rule="evenodd" data-name="Path 226"/></g><g data-name="Rectangle 108"><path d="m-4629.623 2425.564 164.207-43.999a25 25 0 0 1 30.619 17.678l43.999 164.207a25 25 0 0 1-17.678 30.619l-164.207 44a25 25 0 0 1-30.619-17.679l-43.999-164.207a25 25 0 0 1 17.678-30.619z" fill="#fff" fill-rule="evenodd"/><path d="m-4629.12 2425.947 163.46-43.799a24.886 24.886 0 0 1 30.48 17.597l43.799 163.461a24.886 24.886 0 0 1-17.597 30.48l-163.461 43.8a24.886 24.886 0 0 1-30.48-17.598l-43.799-163.461a24.886 24.886 0 0 1 17.597-30.48z" stroke-linejoin="round" stroke-linecap="round" stroke="#707070" fill="transparent" stroke-width=".99545"/></g><g data-name="undraw_nuxt_js_0fq9"><path d="M-4631.285 2507.718a2.644 2.644 0 1 1 0 .1z" fill="#fff" fill-rule="evenodd" data-name="Ellipse 179"/><path d="M-4621.557 2505.247a2.644 2.644 0 1 1 0 .1z" fill="#fff" fill-rule="evenodd" data-name="Ellipse 180"/><path d="M-4611.83 2502.775a2.644 2.644 0 1 1 0 .1z" fill="#fff" fill-rule="evenodd" data-name="Ellipse 181"/><path d="M-4532.526 2627.382a9.13 9.13 0 1 0 15.79-9.17 9.823 9.823 0 0 0-.86-1.22l7.68-54.74.23-1.64 1.56-11.17.23-1.61-.85.04-14.88.68-3.99.18-.5 10.19-2.83 57.29a9.117 9.117 0 0 0-1.58 11.17Z" fill="#ffb8b8" fill-rule="evenodd" data-name="Path 268"/><path d="m-4509.73 2561.11-18.895-1.733a3.73 3.73 0 0 1-3.364-4.037l3.505-39.292a14.326 14.326 0 1 1 28.443 3.357l-5.666 38.54a3.724 3.724 0 0 1-4.023 3.165Z" fill="#ec7580" fill-rule="evenodd" data-name="Path 269"/><path d="M-4524.05 2529.365a26.316 26.316 0 0 1 9.68-30.288c7.124-4.875 16.874-6.625 27.374 5.875 21 25 26.5 52.5 26.5 52.5l-43 7s-14.625-17.875-20.553-35.087Z" fill="#ec7580" fill-rule="evenodd" data-name="Path 270"/><path d="m-4454.505 2810.972 12.26-.001 5.832-47.288h-18.094l.002 47.289Z" fill="#ffb8b8" fill-rule="evenodd" data-name="Path 271"/><path d="m-4418.604 2822.355-38.53.002v-14.887h23.642c8.222-.001 14.887 6.663 14.888 14.885Z" fill="#2f2e41" fill-rule="evenodd" data-name="Path 272"/><path d="m-4555.299 2800.279 11.64 3.848 20.38-43.068-17.18-5.68-14.84 44.9Z" fill="#ffb8b8" fill-rule="evenodd" data-name="Path 273"/><path d="m-4524.781 2822.355-36.585-12.092 4.672-14.135 22.45 7.42c7.806 2.58 12.043 11 9.462 18.807Z" fill="#2f2e41" fill-rule="evenodd" data-name="Path 274"/><path d="M-4521.62 2462.018a24.561 24.561 0 1 1 0 .1z" fill="#ffb8b8" fill-rule="evenodd" data-name="Ellipse 182"/><path d="m-4475.554 2797.806-11.386-75.144a3.5 3.5 0 0 0-6.862-.3l-17.338 71.612a4.533 4.533 0 0 1-5.088 3.385l-47.825-7.687a4.5 4.5 0 0 1-3.592-5.75l62.36-205.595a3.502 3.502 0 0 0 .062-1.802l-2.076-8.997a4.483 4.483 0 0 1 2.326-5.014c8.492-4.333 29.996-13.34 46.232-3.473a4.55 4.55 0 0 1 2.079 2.927l48.716 228.966a4.5 4.5 0 0 1-4 5.419l-58.757 5.261a4.508 4.508 0 0 1-4.851-3.808Z" fill="#2f2e41" fill-rule="evenodd" data-name="Path 275"/><path d="M-4513.345 2444.764a18.58 18.58 0 0 0 4.855-4.22 6.302 6.302 0 0 0 .97-6.097c-1.241-2.737-4.929-3.604-7.786-2.671-2.857.933-5.064 3.172-7.153 5.333-1.839 1.905-3.73 3.892-4.603 6.392-.873 2.5-.425 5.668 1.746 7.185 2.13 1.488 5.191.879 7.24-.72 2.048-1.598 3.316-3.97 4.525-6.27l.206 1.068Z" fill="#2f2e41" fill-rule="evenodd" data-name="Path 276"/><path d="M-4521.663 2437.766c-.136-6.92-8.025-11.882-14.837-10.656-6.812 1.226-12.049 7.035-14.67 13.44-5.538 13.536-1.38 28.98 3.955 42.597 5.337 13.616 11.94 27.439 11.162 42.042a43.925 43.925 0 0 1-25.515 37.005c7.688 3.485 16.878-.115 23.339-5.548 14.348-12.065 19.886-33.546 13.16-51.044-3.316-8.631-9.162-16.015-13.726-24.056-4.564-8.042-7.913-17.519-5.556-26.46 2.356-8.94 12.384-16.182 20.957-12.719l1.73-4.6Z" fill="#2f2e41" fill-rule="evenodd" data-name="Path 277"/><path d="M-4495.586 2473.016c-2.141-3.618-4.303-8.368-.388-11.53a8.064 8.064 0 0 1 6.05-1.6c4.413.531 9.217.75 13.488-.852a12.644 12.644 0 0 0 7.334-6.591c2.205-5.224-.556-11.572-5.165-14.874a17.398 17.398 0 0 0-19.258-.34c-5.97-2.637-13.213-1.465-18.636 2.165-5.424 3.63-9.135 9.443-11.151 15.65a30.206 30.206 0 0 0-.923 16.614 24.692 24.692 0 0 0 15.317 16.879 8.892 8.892 0 0 0 8.782-1.303s3.385-2.955 4.445-6.515c.813-2.733 1.249-5.77.105-7.703Z" fill="#2f2e41" fill-rule="evenodd" data-name="Path 278"/><path d="M-4344.594 2823.578h-421a1 1 0 1 1 0-2h421a1 1 0 1 1 0 2Z" fill="#909090" fill-rule="evenodd" data-name="Path 279"/><path d="M-4422.724 2494.932c-.123.54-.203 1.088-.24 1.64l-42.957 24.782-10.441-6.01-11.131 14.571 17.45 12.438a8 8 0 0 0 9.598-.234l44.297-34.946a10.497 10.497 0 1 0-6.576-12.241Z" fill="#ffb8b8" fill-rule="evenodd" data-name="Path 280"/><path d="m-4467.357 2522.528-13.884 17.994a4.5 4.5 0 0 1-6.804.373l-15.717-16.321c-5.452-4.233-6.441-12.084-2.209-17.536 4.232-5.452 12.083-6.441 17.536-2.209l19.713 11.023a4.5 4.5 0 0 1 1.365 6.676Z" fill="#ec7580" fill-rule="evenodd" data-name="Path 281"/></g></g></svg>