<svg xmlns="http://www.w3.org/2000/svg" width="98.542" height="110"><path d="M0 0v93.958h9.167v9.167h55V110h34.375V71.042H82.5V9.167h-9.167V0H0Zm4.583 4.583H68.75v4.584H9.167v80.208H4.583V4.583Zm23.852 13.75c1.25 0 2.192.605 2.565 1.263 3.477 0 2.573 4.846 2.046 6.431.194.198.434.735.434 1.46 0 1.038-.98 1.66-.98 1.66-.188 1.325-1.124 2.417-1.692 2.69 0 .832-.083 1.467 0 2.377.99 2.658 7.588 1.91 7.895 7.036h-20.37c.307-5.126 6.904-4.38 7.891-7.036.083-.91 0-1.545 0-2.377-.412-.218-1.562-1.386-1.74-2.69 0 0-.935-.446-.985-1.848-.028-.743.496-1.267.496-1.267-.974-3.733-.555-7.607 4.44-7.699Zm24.273 4.584h18.334a2.292 2.292 0 0 1 0 4.583H52.708a2.292 2.292 0 0 1 0-4.583Zm0 11.458h18.334a2.292 2.292 0 0 1 0 4.583H52.708a2.293 2.293 0 0 1 0-4.583ZM20.625 57.292h32.083a2.293 2.293 0 0 1 0 4.583H20.625a2.293 2.293 0 0 1 0-4.583Zm43.542 0h6.875a2.293 2.293 0 0 1 0 4.583h-6.875a2.293 2.293 0 0 1 0-4.583Zm-43.542 13.75h25.208a2.293 2.293 0 0 1 0 4.583H20.625a2.293 2.293 0 0 1 0-4.583Zm48.125 4.583h25.208V82.5H68.75v-6.875Zm-48.125 9.167h32.083a2.293 2.293 0 0 1 0 4.583H20.625a2.293 2.293 0 0 1 0-4.583Zm48.125 2.291h25.208v6.875H68.75v-6.875Zm0 11.459h25.208v6.875H68.75v-6.875Z" fill="#fff" fill-rule="evenodd" data-name="Path 423"/></svg>