<svg xmlns="http://www.w3.org/2000/svg" width="106.859" height="94.201" viewBox="1152.845 3278 106.859 94.201"><g data-name="undraw_podcast_q6p7000000000"><path d="M1167.733 3357.61s25.462-9.062 35.572-27.616a40.953 40.953 0 0 1 18.839-17.782 68.869 68.869 0 0 1 11.895-4.143" stroke-linejoin="round" stroke-linecap="round" stroke-width="2" stroke="#535461" fill="transparent" data-name="Path 164"/><path d="M1240.48 3296.411c-2.568 1.866-6.644 11.937-6.644 11.937s10.837-.765 13.405-2.631a5.754 5.754 0 0 0-6.764-9.31Z" fill="#9946b7" fill-rule="evenodd" data-name="Path 165"/><path d="M1220.655 3299.063c-1.127 2.95.912 13.633.912 13.633s8.682-6.53 9.826-9.493a5.755 5.755 0 0 0-10.738-4.14Z" fill="#9326b4" fill-rule="evenodd" data-name="Path 166"/><path d="M1196.562 3317.077c.511 3.134 7.667 11.31 7.667 11.31s4.2-10.017 3.697-13.15a5.753 5.753 0 1 0-11.358 1.849Z" fill="#981199" fill-rule="evenodd" data-name="Path 167"/><path d="M1181.404 3334.813c-.026 3.178 5.647 12.444 5.647 12.444s5.831-9.168 5.86-12.341a5.754 5.754 0 0 0-11.508-.095Z" fill="#bb18b1" fill-rule="evenodd" data-name="Path 168"/><path d="M1228.167 3322.833c-3.13-.545-11.23-7.787-11.23-7.787s10.066-4.095 13.192-3.554a5.753 5.753 0 1 1-1.966 11.336Z" fill="#8e1299" fill-rule="evenodd" data-name="Path 169"/><path d="M1210.178 3343.352c-2.823-1.455-8.387-10.787-8.387-10.787s10.825-.9 13.649.548a5.753 5.753 0 1 1-5.269 10.23Z" fill="#9c129c" fill-rule="evenodd" data-name="Path 170"/><path d="M1189.963 3360.87c-3.03-.957-10.09-9.216-10.09-9.216s10.521-2.712 13.548-1.76a5.754 5.754 0 1 1-3.458 10.976Z" fill="#e611d4" fill-rule="evenodd" data-name="Path 171"/><path d="M1154.772 3335.72s5.086.961 0 0Z" fill="#6c63ff" fill-rule="evenodd" data-name="Path 226"/></g></svg>