<svg xmlns="http://www.w3.org/2000/svg" width="158" height="395.264" viewBox="0 0 158 395.264">
  <g id="_222222" data-name="222222" transform="translate(0 -228.41)">
    <path id="Path_367" data-name="Path 367" d="M311.534,523.107a10.531,10.531,0,0,0-1.568.537L268.292,496.76l.575-12.034-18.048-3.241L247.73,502.69a8,8,0,0,0,4.594,8.43l51.326,23.43a10.5,10.5,0,1,0,7.883-11.443Z" transform="translate(-176.5 -138.163)" fill="#ffb8b8"/>
    <path id="Path_368" data-name="Path 368" d="M266.591,496.019l-22.35-4.126a4.5,4.5,0,0,1-3.441-5.882l7.334-21.439a12.5,12.5,0,1,1,24.566,4.61l-.8,22.571a4.5,4.5,0,0,1-5.314,4.265Z" transform="translate(-176.5 -138.163)" fill="#565656"/>
    <path id="Path_376" data-name="Path 376" d="M299.676,465.465l-13.884,17.994a4.5,4.5,0,0,1-6.8.373L263.271,467.51A12.5,12.5,0,1,1,278.6,447.766l19.713,11.023a4.5,4.5,0,0,1,1.365,6.676Z" transform="translate(-176.5 -138.163)" fill="#ec7580"/>
    <circle id="Ellipse_208" data-name="Ellipse 208" cx="24.561" cy="24.561" r="24.561" transform="translate(41.76 235.216)" fill="#ffb8b8"/>
    <path id="Path_377" data-name="Path 377" d="M89.5,611.447h12.26l5.832-47.288H89.5Z" fill="#ffb8b8"/>
    <path id="Path_378" data-name="Path 378" d="M262.878,745.608h24.145a15.386,15.386,0,0,1,15.387,15.387v.5h-39.53Z" transform="translate(-176.5 -138.163)" fill="#2f2e41"/>
    <path id="Path_379" data-name="Path 379" d="M47.505,611.447h12.26L65.6,564.159H47.5Z" fill="#ffb8b8"/>
    <path id="Path_380" data-name="Path 380" d="M220.878,745.608h24.145a15.386,15.386,0,0,1,15.387,15.387v.5H220.879Z" transform="translate(-176.5 -138.163)" fill="#2f2e41"/>
    <path id="Path_381" data-name="Path 381" d="M262.327,731.664,249.822,634.91a.492.492,0,0,0-.506-.467.475.475,0,0,0-.492.481l-3.594,95.35a4.486,4.486,0,0,1-4.5,4.331h-14.85a4.474,4.474,0,0,1-4.5-4.392l-3.855-158.865,66.456.664,1.659,159.376a4.5,4.5,0,0,1-1.578,3.32,4.438,4.438,0,0,1-3.459,1.04l-14.4.04a4.5,4.5,0,0,1-3.878-4.125Z" transform="translate(-176.5 -138.163)" fill="#2f2e41"/>
    <path id="Path_382" data-name="Path 382" d="M216.544,575.693a4.5,4.5,0,0,1-2.84-3.53l-.663-87.31c-2.937-19.439-6.411-38.488,10.586-48.338l1.5-4.493a2.51,2.51,0,0,1,2.3-1.709l32.243-.921a2.479,2.479,0,0,1,2.369,1.514l2.4,5.6.852.485a47.412,47.412,0,0,1,23.6,46.81l-1.843,15.565-1.31,72.738a4.539,4.539,0,0,1-2.362,3.887c-9.367,5.129-19.744,6.883-29.563,6.883C237.309,582.87,222.393,577.915,216.544,575.693Z" transform="translate(-176.5 -138.163)" fill="#ec7580"/>
    <path id="Path_383" data-name="Path 383" d="M242.021,423.411a26.205,26.205,0,1,1,4.91-51.825c5.4-3.279,11.681-5.486,17.975-4.925s12.518,4.3,14.872,10.162-.175,13.594-6.027,15.977c-3.752,1.528-7.989.787-11.992.171s-8.372-1.018-11.856,1.048-5.051,7.605-1.93,10.188a10.738,10.738,0,0,1,3.084,11.82C249.487,420.084,245.206,423.342,242.021,423.411Z" transform="translate(-176.5 -138.163)" fill="#2f2e41"/>
    <path id="Path_384" data-name="Path 384" d="M333.5,761.837h-156a1,1,0,0,1,0-2h156a1,1,0,0,1,0,2Z" transform="translate(-176.5 -138.163)" fill="#909090"/>
  </g>
</svg>
