<svg xmlns="http://www.w3.org/2000/svg" width="213" height="399.153" viewBox="0 0 213 399.153">
  <g id="Group_420" data-name="Group 420" transform="translate(-1551 -3385.529)">
    <g id="_11111111" data-name="11111111" transform="translate(1551 3385.529)">
      <g id="Group_419" data-name="Group 419">
        <path id="Path_329" data-name="Path 329" d="M1073.5,565.326h-211a1,1,0,0,1,0-2h211a1,1,0,0,1,0,2Z" transform="translate(-861.5 -166.173)" fill="#909090"/>
        <g id="Group_418" data-name="Group 418">
          <path id="Path_313" data-name="Path 313" d="M886.07,243.341a10.056,10.056,0,0,1,10.986,10.819l32.707,14.395-15.6,10.071-28.667-15.214a10.11,10.11,0,0,1,.576-20.071Z" transform="translate(-861.5 -165.673)" fill="#a0616a"/>
          <path id="Path_314" data-name="Path 314" d="M848.05,385.364H835.79l-5.832-47.288h18.094Z" transform="translate(-736 0)" fill="#a0616a"/>
          <path id="Path_315" data-name="Path 315" d="M976.676,562.921H937.146v-.5a15.386,15.386,0,0,1,15.387-15.386h24.145Z" transform="translate(-861.5 -165.673)" fill="#2f2e41"/>
          <path id="Path_316" data-name="Path 316" d="M899.05,385.364H886.79l-5.832-47.288h18.094Z" transform="translate(-736 0)" fill="#a0616a"/>
          <path id="Path_317" data-name="Path 317" d="M1027.68,562.921H988.15v-.5a15.386,15.386,0,0,1,15.387-15.386h24.145Z" transform="translate(-861.5 -165.673)" fill="#2f2e41"/>
          <path id="Path_318" data-name="Path 318" d="M1023.97,540.966a4.52,4.52,0,0,1-.549-.034l-17.946-2.209a4.493,4.493,0,0,1-3.944-4.235L996.3,416.723a1.5,1.5,0,0,0-2.857-.554l-13.434,44.784-2.766,71.936a4.5,4.5,0,0,1-5.023,4.295l-15.541-1.829a4.485,4.485,0,0,1-3.973-4.557l1.319-67.714,10.529-106.292.47.018,64.022,2.468-.577,177.2a4.5,4.5,0,0,1-4.5,4.485Z" transform="translate(-861.5 -165.673)" fill="#2f2e41"/>
          <path id="Path_319" data-name="Path 319" d="M1026.62,368.992h-.117L962.024,367.3a4.5,4.5,0,0,1-4.341-5.1l12.39-91.191a44.133,44.133,0,0,1,18.68-30.792,38.2,38.2,0,0,1,31.108-5.547c22.506,5.7,36.008,29.87,30.1,53.872l-18.968,77.029a4.526,4.526,0,0,1-4.37,3.424Z" transform="translate(-861.5 -165.673)" fill="#565656"/>
          <path id="Path_320" data-name="Path 320" d="M942.03,296.578a21.822,21.822,0,0,1-11.964-3.555l-37.6-24.67a4.5,4.5,0,0,1-.8-6.856l5.665-5.98a4.484,4.484,0,0,1,4.932-1.087l42,16.726,38.909-27.786a16.155,16.155,0,1,1,16.446,27.678L951.53,294.4a21.74,21.74,0,0,1-9.5,2.174Z" transform="translate(-861.5 -165.673)" fill="#565656"/>
          <ellipse id="Ellipse_196" data-name="Ellipse 196" cx="4.68" cy="4.68" rx="4.68" ry="4.68" transform="translate(89.656 175.012)" fill="#fff"/>
          <path id="Path_387" data-name="Path 387" d="M1017.68,363.9a4.5,4.5,0,0,1-4.186-2.085l-4.392-6.968a4.48,4.48,0,0,1,.168-5.048l26.6-36.554-17.291-44.576a16.07,16.07,0,0,1,8.813-20.739h0a16.154,16.154,0,0,1,22.073,11.656l10.728,52.373a21.884,21.884,0,0,1-6.651,20.454l-33.21,30.325a4.487,4.487,0,0,1-2.655,1.161Z" transform="translate(-861.5 -165.674)" fill="#565656"/>
        </g>
      </g>
      <g id="Group_417" data-name="Group 417">
        <ellipse id="Ellipse_193" data-name="Ellipse 193" cx="24.561" cy="24.561" rx="24.561" ry="24.561" transform="translate(131.941 10.589)" fill="#a0616a"/>
        <path id="Path_321" data-name="Path 321" d="M1026.51,224.311c4.19.989,9.245,1.749,12.24-1.345a12.5,12.5,0,0,0,1.416-1.89l3.915-5.977c3-4.579,6.051-9.277,7.321-14.6a23.741,23.741,0,0,0-17.907-28.674c-5.846-1.309-11.566-3.561-17.542-3.15s-12.985.276-18-3c.313,1.46,2,7.913,2,7.913s-7.541,6.919-9.054,8.644a14.166,14.166,0,0,1,19.723,10.671c.428,2.626.177,5.538,1.737,7.693,1.484,2.05,4.145,2.768,6.382,3.952a15.563,15.563,0,0,1,6.847,19.045Z" transform="translate(-861.5 -165.673)" fill="#2f2e41"/>
      </g>
    </g>
    <path id="Path_392" data-name="Path 392" d="M993.871,365.474a10.056,10.056,0,0,1,12.839-8.54l20.783-29.069,6.665,17.332L1013.4,370.145a10.11,10.11,0,0,1-19.529-4.671Z" transform="translate(689.5 3219.855)" fill="#a0616a"/>
    <path id="Path_393" data-name="Path 393" d="M1017.68,363.9a4.5,4.5,0,0,1-4.186-2.085l-4.392-6.968a4.48,4.48,0,0,1,.168-5.048l26.6-36.554-17.291-44.576a16.07,16.07,0,0,1,8.814-20.74h0a16.154,16.154,0,0,1,22.073,11.656l10.728,52.373a21.884,21.884,0,0,1-6.651,20.454l-33.21,30.325a4.487,4.487,0,0,1-2.655,1.161Z" transform="translate(689.5 3219.855)" fill="#565656"/>
  </g>
</svg>
