<svg xmlns="http://www.w3.org/2000/svg" width="30" height="27.234" viewBox="1685 376 30 27.234"><path d="M1709.65 376h-19.3a5.347 5.347 0 0 0-5.35 5.35v9.181a5.351 5.351 0 0 0 5.35 5.35v7.353l7.27-7.352h12.03a5.351 5.351 0 0 0 5.35-5.35v-9.181a5.347 5.347 0 0 0-5.35-5.351Zm-16.167 12.06a2.122 2.122 0 1 1 0-4.244 2.122 2.122 0 0 1 0 4.244Zm6.517 0a2.122 2.122 0 1 1 0-4.244 2.122 2.122 0 0 1 0 4.244Zm6.517 0a2.122 2.122 0 1 1 0-4.244 2.122 2.122 0 0 1 0 4.244Z" fill="#67008f" fill-rule="evenodd" data-name="Message-Free-Icon-fidswo"/></svg>