<svg id="_666666" data-name="666666" xmlns="http://www.w3.org/2000/svg" width="110.8" height="124" viewBox="0 0 110.8 124">
  <path id="Path_460" data-name="Path 460" d="M0,124V0H110.8V124Z" fill="none"/>
  <g id="Group_19" data-name="Group 19" transform="translate(5.928 5.928)">
    <path id="Path_461" data-name="Path 461" d="M6.88,6.88v96.13H46.142l7.266,7.266,1.537-1.607L60.6,103.01H89.6V74.087l19.142-19.142,1.537-1.607L93.509,36.571,89.6,40.483V6.88Zm4.471,4.471H85.125V45.024L38.178,91.9l-1.607,1.607.629.559a.747.747,0,0,0-.14,0,1.118,1.118,0,1,0,1.118,1.118.747.747,0,0,0,0-.14l3.493,3.493H11.351Zm7.825,2.236A1.118,1.118,0,1,0,20.293,14.7,1.114,1.114,0,0,0,19.176,13.587Zm8.942,0A1.118,1.118,0,1,0,29.236,14.7,1.114,1.114,0,0,0,28.118,13.587Zm8.942,0A1.118,1.118,0,1,0,38.178,14.7,1.114,1.114,0,0,0,37.06,13.587Zm8.942,0A1.118,1.118,0,1,0,47.12,14.7,1.114,1.114,0,0,0,46,13.587Zm8.942,0A1.118,1.118,0,1,0,56.063,14.7,1.114,1.114,0,0,0,54.945,13.587Zm8.942,0A1.118,1.118,0,1,0,65,14.7,1.114,1.114,0,0,0,63.887,13.587Zm8.942,0A1.118,1.118,0,1,0,73.947,14.7,1.114,1.114,0,0,0,72.829,13.587Zm8.942,0A1.118,1.118,0,1,0,82.89,14.7,1.114,1.114,0,0,0,81.772,13.587ZM14.7,18.058a1.118,1.118,0,1,0,1.118,1.118A1.114,1.114,0,0,0,14.7,18.058Zm4.471,0a1.118,1.118,0,1,0,1.118,1.118A1.114,1.114,0,0,0,19.176,18.058Zm4.471,0a1.118,1.118,0,1,0,1.118,1.118A1.114,1.114,0,0,0,23.647,18.058Zm4.471,0a1.118,1.118,0,1,0,1.118,1.118A1.114,1.114,0,0,0,28.118,18.058Zm4.471,0a1.118,1.118,0,1,0,1.118,1.118A1.114,1.114,0,0,0,32.589,18.058Zm4.471,0a1.118,1.118,0,1,0,1.118,1.118A1.114,1.114,0,0,0,37.06,18.058Zm4.471,0a1.118,1.118,0,1,0,1.118,1.118A1.114,1.114,0,0,0,41.531,18.058Zm4.471,0a1.118,1.118,0,1,0,1.118,1.118A1.114,1.114,0,0,0,46,18.058Zm4.471,0a1.118,1.118,0,1,0,1.118,1.118A1.114,1.114,0,0,0,50.474,18.058Zm4.471,0a1.118,1.118,0,1,0,1.118,1.118A1.114,1.114,0,0,0,54.945,18.058Zm4.471,0a1.118,1.118,0,1,0,1.118,1.118A1.114,1.114,0,0,0,59.416,18.058Zm4.471,0A1.118,1.118,0,1,0,65,19.176,1.114,1.114,0,0,0,63.887,18.058Zm4.471,0a1.118,1.118,0,1,0,1.118,1.118A1.114,1.114,0,0,0,68.358,18.058Zm4.471,0a1.118,1.118,0,1,0,1.118,1.118A1.114,1.114,0,0,0,72.829,18.058Zm4.471,0a1.118,1.118,0,1,0,1.118,1.118A1.114,1.114,0,0,0,77.3,18.058Zm4.471,0a1.118,1.118,0,1,0,1.118,1.118A1.114,1.114,0,0,0,81.772,18.058Zm-62.6,4.471a1.118,1.118,0,1,0,1.118,1.118A1.114,1.114,0,0,0,19.176,22.529Zm8.942,0a1.118,1.118,0,1,0,1.118,1.118A1.114,1.114,0,0,0,28.118,22.529Zm8.942,0a1.118,1.118,0,1,0,1.118,1.118A1.114,1.114,0,0,0,37.06,22.529Zm8.942,0a1.118,1.118,0,1,0,1.118,1.118A1.114,1.114,0,0,0,46,22.529Zm8.942,0a1.118,1.118,0,1,0,1.118,1.118A1.114,1.114,0,0,0,54.945,22.529Zm8.942,0A1.118,1.118,0,1,0,65,23.647,1.114,1.114,0,0,0,63.887,22.529Zm8.942,0a1.118,1.118,0,1,0,1.118,1.118A1.114,1.114,0,0,0,72.829,22.529Zm8.942,0a1.118,1.118,0,1,0,1.118,1.118A1.114,1.114,0,0,0,81.772,22.529ZM14.7,27a1.118,1.118,0,1,0,1.118,1.118A1.114,1.114,0,0,0,14.7,27Zm4.471,0a1.118,1.118,0,1,0,1.118,1.118A1.114,1.114,0,0,0,19.176,27Zm4.471,0a1.118,1.118,0,1,0,1.118,1.118A1.114,1.114,0,0,0,23.647,27Zm4.471,0a1.118,1.118,0,1,0,1.118,1.118A1.114,1.114,0,0,0,28.118,27Zm4.471,0a1.118,1.118,0,1,0,1.118,1.118A1.114,1.114,0,0,0,32.589,27Zm4.471,0a1.118,1.118,0,1,0,1.118,1.118A1.114,1.114,0,0,0,37.06,27Zm4.471,0a1.118,1.118,0,1,0,1.118,1.118A1.114,1.114,0,0,0,41.531,27ZM46,27a1.118,1.118,0,1,0,1.118,1.118A1.114,1.114,0,0,0,46,27Zm4.471,0a1.118,1.118,0,1,0,1.118,1.118A1.114,1.114,0,0,0,50.474,27Zm4.471,0a1.118,1.118,0,1,0,1.118,1.118A1.114,1.114,0,0,0,54.945,27Zm4.471,0a1.118,1.118,0,1,0,1.118,1.118A1.114,1.114,0,0,0,59.416,27Zm4.471,0A1.118,1.118,0,1,0,65,28.118,1.114,1.114,0,0,0,63.887,27Zm4.471,0a1.118,1.118,0,1,0,1.118,1.118A1.114,1.114,0,0,0,68.358,27Zm4.471,0a1.118,1.118,0,1,0,1.118,1.118A1.114,1.114,0,0,0,72.829,27ZM77.3,27a1.118,1.118,0,1,0,1.118,1.118A1.114,1.114,0,0,0,77.3,27Zm4.471,0a1.118,1.118,0,1,0,1.118,1.118A1.114,1.114,0,0,0,81.772,27Zm-62.6,4.471a1.118,1.118,0,1,0,1.118,1.118A1.114,1.114,0,0,0,19.176,31.471Zm8.942,0a1.118,1.118,0,1,0,1.118,1.118A1.114,1.114,0,0,0,28.118,31.471Zm8.942,0a1.118,1.118,0,1,0,1.118,1.118A1.114,1.114,0,0,0,37.06,31.471Zm8.942,0a1.118,1.118,0,1,0,1.118,1.118A1.114,1.114,0,0,0,46,31.471Zm8.942,0a1.118,1.118,0,1,0,1.118,1.118A1.114,1.114,0,0,0,54.945,31.471Zm8.942,0A1.118,1.118,0,1,0,65,32.589,1.114,1.114,0,0,0,63.887,31.471Zm8.942,0a1.118,1.118,0,1,0,1.118,1.118A1.114,1.114,0,0,0,72.829,31.471Zm8.942,0a1.118,1.118,0,1,0,1.118,1.118A1.114,1.114,0,0,0,81.772,31.471ZM14.7,35.942a1.118,1.118,0,1,0,1.118,1.118A1.114,1.114,0,0,0,14.7,35.942Zm4.471,0a1.118,1.118,0,1,0,1.118,1.118A1.114,1.114,0,0,0,19.176,35.942Zm4.471,0a1.118,1.118,0,1,0,1.118,1.118A1.114,1.114,0,0,0,23.647,35.942Zm4.471,0a1.118,1.118,0,1,0,1.118,1.118A1.114,1.114,0,0,0,28.118,35.942Zm4.471,0a1.118,1.118,0,1,0,1.118,1.118A1.114,1.114,0,0,0,32.589,35.942Zm4.471,0a1.118,1.118,0,1,0,1.118,1.118A1.114,1.114,0,0,0,37.06,35.942Zm4.471,0a1.118,1.118,0,1,0,1.118,1.118A1.114,1.114,0,0,0,41.531,35.942Zm4.471,0A1.118,1.118,0,1,0,47.12,37.06,1.114,1.114,0,0,0,46,35.942Zm4.471,0a1.118,1.118,0,1,0,1.118,1.118A1.114,1.114,0,0,0,50.474,35.942Zm4.471,0a1.118,1.118,0,1,0,1.118,1.118A1.114,1.114,0,0,0,54.945,35.942Zm4.471,0a1.118,1.118,0,1,0,1.118,1.118A1.114,1.114,0,0,0,59.416,35.942Zm4.471,0A1.118,1.118,0,1,0,65,37.06,1.114,1.114,0,0,0,63.887,35.942Zm4.471,0a1.118,1.118,0,1,0,1.118,1.118A1.114,1.114,0,0,0,68.358,35.942Zm4.471,0a1.118,1.118,0,1,0,1.118,1.118A1.114,1.114,0,0,0,72.829,35.942Zm4.471,0a1.118,1.118,0,1,0,1.118,1.118A1.114,1.114,0,0,0,77.3,35.942Zm4.471,0A1.118,1.118,0,1,0,82.89,37.06,1.114,1.114,0,0,0,81.772,35.942Zm-62.6,4.471a1.118,1.118,0,1,0,1.118,1.118A1.114,1.114,0,0,0,19.176,40.414Zm8.942,0a1.118,1.118,0,1,0,1.118,1.118A1.114,1.114,0,0,0,28.118,40.414Zm8.942,0a1.118,1.118,0,1,0,1.118,1.118A1.114,1.114,0,0,0,37.06,40.414Zm8.942,0a1.118,1.118,0,1,0,1.118,1.118A1.114,1.114,0,0,0,46,40.414Zm8.942,0a1.118,1.118,0,1,0,1.118,1.118A1.114,1.114,0,0,0,54.945,40.414Zm8.942,0A1.118,1.118,0,1,0,65,41.531,1.114,1.114,0,0,0,63.887,40.414Zm8.942,0a1.118,1.118,0,1,0,1.118,1.118A1.114,1.114,0,0,0,72.829,40.414Zm8.942,0a1.118,1.118,0,1,0,1.118,1.118A1.114,1.114,0,0,0,81.772,40.414Zm11.737,2.515,10.479,10.409L86.1,71.223a2.293,2.293,0,0,0-.629.7L58.438,98.888a2.287,2.287,0,0,0-.768.838l-4.262,4.262L42.929,93.508l3.563-3.563,2.1,2.1A2.272,2.272,0,1,0,51.8,88.828l-2.1-2.1L53.2,83.239l3.842,3.773a2.236,2.236,0,1,0,3.144-3.144l-3.773-3.842,3.493-3.493,2.1,2.1a2.272,2.272,0,0,0,3.214-3.214l-2.1-2.1,3.493-3.493L70.454,73.6A2.236,2.236,0,1,0,73.6,70.454l-3.773-3.842,3.493-3.493,2.1,2.1A2.272,2.272,0,0,0,78.628,62l-2.1-2.1,3.493-3.493,3.842,3.773a2.236,2.236,0,1,0,3.144-3.144L83.239,53.2l3.493-3.493,2.1,2.1a2.272,2.272,0,0,0,3.214-3.214l-2.1-2.1ZM14.7,44.885A1.118,1.118,0,1,0,15.822,46,1.114,1.114,0,0,0,14.7,44.885Zm4.471,0A1.118,1.118,0,1,0,20.293,46,1.114,1.114,0,0,0,19.176,44.885Zm4.471,0A1.118,1.118,0,1,0,24.765,46,1.114,1.114,0,0,0,23.647,44.885Zm4.471,0A1.118,1.118,0,1,0,29.236,46,1.114,1.114,0,0,0,28.118,44.885Zm4.471,0A1.118,1.118,0,1,0,33.707,46,1.114,1.114,0,0,0,32.589,44.885Zm4.471,0A1.118,1.118,0,1,0,38.178,46,1.114,1.114,0,0,0,37.06,44.885Zm4.471,0A1.118,1.118,0,1,0,42.649,46,1.114,1.114,0,0,0,41.531,44.885Zm4.471,0A1.118,1.118,0,1,0,47.12,46,1.114,1.114,0,0,0,46,44.885Zm4.471,0A1.118,1.118,0,1,0,51.591,46,1.114,1.114,0,0,0,50.474,44.885Zm4.471,0A1.118,1.118,0,1,0,56.063,46,1.114,1.114,0,0,0,54.945,44.885Zm4.471,0A1.118,1.118,0,1,0,60.534,46,1.114,1.114,0,0,0,59.416,44.885Zm4.471,0A1.118,1.118,0,1,0,65,46,1.114,1.114,0,0,0,63.887,44.885Zm4.471,0A1.118,1.118,0,1,0,69.476,46,1.114,1.114,0,0,0,68.358,44.885Zm4.471,0A1.118,1.118,0,1,0,73.947,46,1.114,1.114,0,0,0,72.829,44.885Zm4.471,0A1.118,1.118,0,1,0,78.418,46,1.114,1.114,0,0,0,77.3,44.885Zm4.471,0A1.118,1.118,0,1,0,82.89,46,1.114,1.114,0,0,0,81.772,44.885Zm-62.6,4.471a1.118,1.118,0,1,0,1.118,1.118A1.114,1.114,0,0,0,19.176,49.356Zm8.942,0a1.118,1.118,0,1,0,1.118,1.118A1.114,1.114,0,0,0,28.118,49.356Zm8.942,0a1.118,1.118,0,1,0,1.118,1.118A1.114,1.114,0,0,0,37.06,49.356Zm8.942,0a1.118,1.118,0,1,0,1.118,1.118A1.114,1.114,0,0,0,46,49.356Zm8.942,0a1.118,1.118,0,1,0,1.118,1.118A1.114,1.114,0,0,0,54.945,49.356Zm8.942,0A1.118,1.118,0,1,0,65,50.474,1.114,1.114,0,0,0,63.887,49.356Zm8.942,0a1.118,1.118,0,1,0,1.118,1.118A1.114,1.114,0,0,0,72.829,49.356ZM14.7,53.827a1.118,1.118,0,1,0,1.118,1.118A1.114,1.114,0,0,0,14.7,53.827Zm4.471,0a1.118,1.118,0,1,0,1.118,1.118A1.114,1.114,0,0,0,19.176,53.827Zm4.471,0a1.118,1.118,0,1,0,1.118,1.118A1.114,1.114,0,0,0,23.647,53.827Zm4.471,0a1.118,1.118,0,1,0,1.118,1.118A1.114,1.114,0,0,0,28.118,53.827Zm4.471,0a1.118,1.118,0,1,0,1.118,1.118A1.114,1.114,0,0,0,32.589,53.827Zm4.471,0a1.118,1.118,0,1,0,1.118,1.118A1.114,1.114,0,0,0,37.06,53.827Zm4.471,0a1.118,1.118,0,1,0,1.118,1.118A1.114,1.114,0,0,0,41.531,53.827Zm4.471,0a1.118,1.118,0,1,0,1.118,1.118A1.114,1.114,0,0,0,46,53.827Zm4.471,0a1.118,1.118,0,1,0,1.118,1.118A1.114,1.114,0,0,0,50.474,53.827Zm4.471,0a1.118,1.118,0,1,0,1.118,1.118A1.114,1.114,0,0,0,54.945,53.827Zm4.471,0a1.118,1.118,0,1,0,1.118,1.118A1.114,1.114,0,0,0,59.416,53.827Zm4.471,0A1.118,1.118,0,1,0,65,54.945,1.114,1.114,0,0,0,63.887,53.827Zm4.471,0a1.118,1.118,0,1,0,1.118,1.118A1.114,1.114,0,0,0,68.358,53.827Zm4.471,0a1.118,1.118,0,1,0,1.118,1.118A1.114,1.114,0,0,0,72.829,53.827ZM19.176,58.3a1.118,1.118,0,1,0,1.118,1.118A1.114,1.114,0,0,0,19.176,58.3Zm8.942,0a1.118,1.118,0,1,0,1.118,1.118A1.114,1.114,0,0,0,28.118,58.3Zm8.942,0a1.118,1.118,0,1,0,1.118,1.118A1.114,1.114,0,0,0,37.06,58.3ZM46,58.3a1.118,1.118,0,1,0,1.118,1.118A1.114,1.114,0,0,0,46,58.3Zm8.942,0a1.118,1.118,0,1,0,1.118,1.118A1.114,1.114,0,0,0,54.945,58.3Zm8.942,0A1.118,1.118,0,1,0,65,59.416,1.114,1.114,0,0,0,63.887,58.3ZM14.7,62.769a1.118,1.118,0,1,0,1.118,1.118A1.114,1.114,0,0,0,14.7,62.769Zm4.471,0a1.118,1.118,0,1,0,1.118,1.118A1.114,1.114,0,0,0,19.176,62.769Zm4.471,0a1.118,1.118,0,1,0,1.118,1.118A1.114,1.114,0,0,0,23.647,62.769Zm4.471,0a1.118,1.118,0,1,0,1.118,1.118A1.114,1.114,0,0,0,28.118,62.769Zm4.471,0a1.118,1.118,0,1,0,1.118,1.118A1.114,1.114,0,0,0,32.589,62.769Zm4.471,0a1.118,1.118,0,1,0,1.118,1.118A1.114,1.114,0,0,0,37.06,62.769Zm4.471,0a1.118,1.118,0,1,0,1.118,1.118A1.114,1.114,0,0,0,41.531,62.769Zm4.471,0a1.118,1.118,0,1,0,1.118,1.118A1.114,1.114,0,0,0,46,62.769Zm4.471,0a1.118,1.118,0,1,0,1.118,1.118A1.114,1.114,0,0,0,50.474,62.769Zm4.471,0a1.118,1.118,0,1,0,1.118,1.118A1.114,1.114,0,0,0,54.945,62.769Zm4.471,0a1.118,1.118,0,1,0,1.118,1.118A1.114,1.114,0,0,0,59.416,62.769Zm4.471,0A1.118,1.118,0,1,0,65,63.887,1.114,1.114,0,0,0,63.887,62.769ZM19.176,67.241a1.118,1.118,0,1,0,1.118,1.118A1.114,1.114,0,0,0,19.176,67.241Zm8.942,0a1.118,1.118,0,1,0,1.118,1.118A1.114,1.114,0,0,0,28.118,67.241Zm8.942,0a1.118,1.118,0,1,0,1.118,1.118A1.114,1.114,0,0,0,37.06,67.241Zm8.942,0a1.118,1.118,0,1,0,1.118,1.118A1.114,1.114,0,0,0,46,67.241Zm8.942,0a1.118,1.118,0,1,0,1.118,1.118A1.114,1.114,0,0,0,54.945,67.241ZM14.7,71.712a1.118,1.118,0,1,0,1.118,1.118A1.114,1.114,0,0,0,14.7,71.712Zm4.471,0a1.118,1.118,0,1,0,1.118,1.118A1.114,1.114,0,0,0,19.176,71.712Zm4.471,0a1.118,1.118,0,1,0,1.118,1.118A1.114,1.114,0,0,0,23.647,71.712Zm4.471,0a1.118,1.118,0,1,0,1.118,1.118A1.114,1.114,0,0,0,28.118,71.712Zm4.471,0a1.118,1.118,0,1,0,1.118,1.118A1.114,1.114,0,0,0,32.589,71.712Zm4.471,0a1.118,1.118,0,1,0,1.118,1.118A1.114,1.114,0,0,0,37.06,71.712Zm4.471,0a1.118,1.118,0,1,0,1.118,1.118A1.114,1.114,0,0,0,41.531,71.712Zm4.471,0a1.118,1.118,0,1,0,1.118,1.118A1.114,1.114,0,0,0,46,71.712Zm4.471,0a1.118,1.118,0,1,0,1.118,1.118A1.114,1.114,0,0,0,50.474,71.712Zm4.471,0a1.118,1.118,0,1,0,1.118,1.118A1.114,1.114,0,0,0,54.945,71.712ZM19.176,76.183A1.118,1.118,0,1,0,20.293,77.3,1.114,1.114,0,0,0,19.176,76.183Zm8.942,0A1.118,1.118,0,1,0,29.236,77.3,1.114,1.114,0,0,0,28.118,76.183Zm8.942,0A1.118,1.118,0,1,0,38.178,77.3,1.114,1.114,0,0,0,37.06,76.183Zm8.942,0A1.118,1.118,0,1,0,47.12,77.3,1.114,1.114,0,0,0,46,76.183Zm39.123,2.375v19.98H65.075l7.056-6.986a1.064,1.064,0,0,0,.7.279,1.114,1.114,0,0,0,1.118-1.118,1.064,1.064,0,0,0-.279-.7l7.405-7.405a1.064,1.064,0,0,0,.7.279,1.114,1.114,0,0,0,1.118-1.118,1.064,1.064,0,0,0-.279-.7ZM14.7,80.654a1.118,1.118,0,1,0,1.118,1.118A1.114,1.114,0,0,0,14.7,80.654Zm4.471,0a1.118,1.118,0,1,0,1.118,1.118A1.114,1.114,0,0,0,19.176,80.654Zm4.471,0a1.118,1.118,0,1,0,1.118,1.118A1.114,1.114,0,0,0,23.647,80.654Zm4.471,0a1.118,1.118,0,1,0,1.118,1.118A1.114,1.114,0,0,0,28.118,80.654Zm4.471,0a1.118,1.118,0,1,0,1.118,1.118A1.114,1.114,0,0,0,32.589,80.654Zm4.471,0a1.118,1.118,0,1,0,1.118,1.118A1.114,1.114,0,0,0,37.06,80.654Zm4.471,0a1.118,1.118,0,1,0,1.118,1.118A1.114,1.114,0,0,0,41.531,80.654Zm4.471,0a1.118,1.118,0,1,0,1.118,1.118A1.114,1.114,0,0,0,46,80.654ZM19.176,85.125a1.118,1.118,0,1,0,1.118,1.118A1.114,1.114,0,0,0,19.176,85.125Zm8.942,0a1.118,1.118,0,1,0,1.118,1.118A1.114,1.114,0,0,0,28.118,85.125Zm8.942,0a1.118,1.118,0,1,0,1.118,1.118A1.114,1.114,0,0,0,37.06,85.125Zm44.711,0a1.118,1.118,0,1,0,1.118,1.118A1.114,1.114,0,0,0,81.772,85.125ZM14.7,89.6a1.118,1.118,0,1,0,1.118,1.118A1.114,1.114,0,0,0,14.7,89.6Zm4.471,0a1.118,1.118,0,1,0,1.118,1.118A1.114,1.114,0,0,0,19.176,89.6Zm4.471,0a1.118,1.118,0,1,0,1.118,1.118A1.114,1.114,0,0,0,23.647,89.6Zm4.471,0a1.118,1.118,0,1,0,1.118,1.118A1.114,1.114,0,0,0,28.118,89.6Zm4.471,0a1.118,1.118,0,1,0,1.118,1.118A1.114,1.114,0,0,0,32.589,89.6Zm4.471,0a1.118,1.118,0,1,0,1.118,1.118A1.114,1.114,0,0,0,37.06,89.6Zm40.24,0a1.118,1.118,0,1,0,1.118,1.118A1.114,1.114,0,0,0,77.3,89.6Zm4.471,0a1.118,1.118,0,1,0,1.118,1.118A1.114,1.114,0,0,0,81.772,89.6Zm-62.6,4.471a1.118,1.118,0,1,0,1.118,1.118A1.114,1.114,0,0,0,19.176,94.067Zm8.942,0a1.118,1.118,0,1,0,1.118,1.118A1.114,1.114,0,0,0,28.118,94.067Zm44.711,0a1.118,1.118,0,1,0,1.118,1.118A1.114,1.114,0,0,0,72.829,94.067Zm8.942,0a1.118,1.118,0,1,0,1.118,1.118A1.114,1.114,0,0,0,81.772,94.067Z" transform="translate(-6.88 -6.88)" fill="#af2ecc"/>
  </g>
</svg>
