<svg xmlns="http://www.w3.org/2000/svg" width="1254.63" height="661.477" viewBox="-4427 3121.572 1254.63 661.477"><g data-name="CompositeLayer"><path d="M-3276.958 3150.188a26.543 28.666 0 1 1 0 .1zM-4427 3524.822a26.543 28.666 0 1 1 0 .1z" fill="#f2f2f2" fill-rule="evenodd" data-name="Ellipse 131"/><path d="M38.08-1.294c21.032-.715 37.502 15.167 36.788 35.473-.714 20.307-18.341 37.348-39.373 38.063-21.03.715-37.501-15.168-36.788-35.474C-.579 16.462 17.05-.579 38.08-1.294Z" fill-rule="evenodd" fill="url(&quot;#a&quot;)" transform="rotate(122 -3000.601 767.482)" data-name="Path 291"/><path d="M-3225.456 3716.493a26.543 28.666 0 1 1 0 .1z" fill="#f2f2f2" fill-rule="evenodd" data-name="Ellipse 131"/></g><defs><linearGradient x1=".5" y1="0" x2=".5" y2="1" id="a"><stop stop-color="rgba(255,255,255,0 )" offset="0"/><stop stop-color="rgba(128,128,128,0.35 )" offset="1"/></linearGradient></defs></svg>