<svg id="_2222222222" data-name="2222222222" xmlns="http://www.w3.org/2000/svg" xmlns:xlink="http://www.w3.org/1999/xlink" width="130.801" height="152" viewBox="0 0 130.801 152">
  <defs>
    <linearGradient id="linear-gradient" x1="0.5" y1="-0.05" x2="0.5" y2="1.035" gradientUnits="objectBoundingBox">
      <stop offset="0" stop-color="#90ea92"/>
      <stop offset="1" stop-color="#90ea92"/>
    </linearGradient>
    <linearGradient id="linear-gradient-2" x1="0.5" y1="-0.125" x2="0.5" y2="1.063" xlink:href="#linear-gradient"/>
    <linearGradient id="linear-gradient-3" x1="0.5" y1="-0.042" x2="0.5" y2="1.042" gradientUnits="objectBoundingBox">
      <stop offset="0" stop-color="#32d835"/>
      <stop offset="1" stop-color="#32d835"/>
    </linearGradient>
    <linearGradient id="linear-gradient-4" x1="0.5" y1="-6.5" x2="0.5" y2="2.167" xlink:href="#linear-gradient-3"/>
    <linearGradient id="linear-gradient-5" x1="0.5" y1="-4.25" x2="0.5" y2="2.25" xlink:href="#linear-gradient-3"/>
  </defs>
  <path id="Path_431" data-name="Path 431" d="M0,152V0H130.8V152Z" fill="none"/>
  <g id="Group_14" data-name="Group 14" transform="translate(11.163 16.126)">
    <path id="Path_432" data-name="Path 432" d="M42.186,17.587l.887,3.553A7.775,7.775,0,0,0,48.735,26.8l3.553.887a1.93,1.93,0,0,1,0,3.744l-3.553.887a7.775,7.775,0,0,0-5.663,5.663l-.887,3.553a1.93,1.93,0,0,1-3.744,0l-.887-3.553a7.775,7.775,0,0,0-5.663-5.663l-3.553-.887a1.93,1.93,0,0,1,0-3.744l3.553-.887a7.775,7.775,0,0,0,5.663-5.663l.887-3.553a1.93,1.93,0,0,1,3.744,0Z" transform="translate(-26.878 -16.126)" fill="url(#linear-gradient)"/>
    <path id="Path_433" data-name="Path 433" d="M142.438,45.688h-2.687A2.688,2.688,0,0,1,137.063,43V40.313a2.688,2.688,0,0,0-2.687-2.687h0a2.688,2.688,0,0,0-2.687,2.688V43A2.688,2.688,0,0,1,129,45.688h-2.687a2.688,2.688,0,0,0-2.687,2.688h0a2.688,2.688,0,0,0,2.688,2.688H129a2.688,2.688,0,0,1,2.688,2.688v2.688a2.688,2.688,0,0,0,2.688,2.688h0a2.688,2.688,0,0,0,2.688-2.687V53.75a2.688,2.688,0,0,1,2.688-2.687h2.688a2.688,2.688,0,0,0,2.688-2.687h0A2.688,2.688,0,0,0,142.438,45.688Z" transform="translate(-43.589 -19.716)" fill="url(#linear-gradient-2)"/>
    <path id="Path_434" data-name="Path 434" d="M116.843,100.635,96.193,84.707a6.88,6.88,0,0,1-2.66-5.417V49.636a4.708,4.708,0,0,0,4.539-4.552V40.532a4.55,4.55,0,0,0-4.539-4.552H88.993V31.427a4.55,4.55,0,0,0-4.539-4.552H70.835A4.55,4.55,0,0,0,66.3,31.427v4.552H61.756a4.55,4.55,0,0,0-4.539,4.552v4.552a4.708,4.708,0,0,0,4.539,4.552V79.29a6.884,6.884,0,0,1-2.66,5.417l-20.65,15.928a16.034,16.034,0,0,0-6.2,12.621v11.49A11.377,11.377,0,0,0,43.6,136.126H111.69a11.377,11.377,0,0,0,11.349-11.38v-11.49a16.044,16.044,0,0,0-6.2-12.621ZM70.835,31.427H84.454v4.552H70.835Zm-9.079,9.1H93.533v4.552H61.756ZM118.5,124.746a6.827,6.827,0,0,1-6.809,6.828H43.6a6.827,6.827,0,0,1-6.809-6.828v-11.49a11.451,11.451,0,0,1,4.424-9.011l20.65-15.928A11.467,11.467,0,0,0,66.3,79.291V49.636h22.7v4.552H79.914V58.74h9.079v4.552H84.454v4.552h4.539V72.4H79.914v4.552h9.079v2.342a11.47,11.47,0,0,0,4.433,9.027l20.65,15.928a11.454,11.454,0,0,1,4.424,9.011Z" transform="translate(-26.878 -16.126)" fill="url(#linear-gradient-3)"/>
    <path id="Path_435" data-name="Path 435" d="M61.813,126.313a8.062,8.062,0,1,0,8.063,8.062A8.072,8.072,0,0,0,61.813,126.313Zm0,10.75a2.688,2.688,0,1,1,2.688-2.687A2.688,2.688,0,0,1,61.813,137.063Z" transform="translate(-31.276 -35.875)" fill="url(#linear-gradient-4)"/>
    <path id="Path_436" data-name="Path 436" d="M102.125,112.875a10.75,10.75,0,1,0,10.75,10.75A10.761,10.761,0,0,0,102.125,112.875Zm0,16.125a5.375,5.375,0,1,1,5.375-5.375A5.38,5.38,0,0,1,102.125,129Z" transform="translate(-38.019 -32.284)" fill="url(#linear-gradient-5)"/>
  </g>
</svg>
