<svg xmlns="http://www.w3.org/2000/svg" width="116.057" height="124" viewBox="0 0 116.057 124">
  <g id="electricity" transform="translate(1.028)">
    <path id="Path_462" data-name="Path 462" d="M0,124V0H114V124Z" fill="none"/>
    <g id="Group_20" data-name="Group 20" transform="translate(-1.028 8.26)">
      <path id="Path_463" data-name="Path 463" d="M112.81,99.035a6.521,6.521,0,0,0-9.135.277c-13.749,13.749-25.191,18.178-39.124,16.425-5.721-.738-8.581-2.4-13.749-4.706a23.284,23.284,0,0,1-2.953-1.661,5.543,5.543,0,0,1,0-9.6L61.69,91.746a7.526,7.526,0,0,0,3.137-9.781,7.394,7.394,0,0,0-10.335-3.137L22.567,97.282H13.339V94.514h-12v36.909h12v-6.459s22.145,9.227,40.969,9.227c25.283,0,46.229-12.734,58.5-25.744a6.769,6.769,0,0,0,0-9.412Z" transform="translate(-1.344 -30.059)" fill="#fff"/>
      <path id="Path_464" data-name="Path 464" d="M58.495,135.7c-19.193,0-41.154-9.043-42.076-9.412a2.711,2.711,0,0,1-1.476-3.6,2.741,2.741,0,0,1,3.6-1.476c.185.092,21.869,9.043,39.862,9.043,30.635,0,51.027-19.1,56.563-24.914a3.992,3.992,0,0,0,.092-5.444,3.765,3.765,0,0,0-5.26.185c-14.025,13.933-26.39,19.008-41.431,17.163-5.352-.646-8.3-2.03-12.457-3.968-.646-.277-1.384-.646-2.122-1.015-.369-.185-1.015-.461-3.23-1.753a8.314,8.314,0,0,1,0-14.394l13.933-8.028a4.743,4.743,0,0,0,2.03-6.182,4.454,4.454,0,0,0-2.768-2.4,4.765,4.765,0,0,0-3.691.461L28.137,98.419a2.77,2.77,0,1,1-2.768-4.8L57.3,75.167a10.164,10.164,0,1,1,9.965,17.716l-13.933,8.028a2.771,2.771,0,0,0,0,4.8,16.358,16.358,0,0,0,2.768,1.476c.738.369,1.476.646,2.122,1.015,3.968,1.845,6.367,2.953,10.8,3.506C82.3,113.367,93,108.846,105.831,96.02a9.279,9.279,0,0,1,13.01-.277,9.523,9.523,0,0,1,.092,13.287C103.247,125.732,80.64,135.7,58.495,135.7Z" transform="translate(-5.53 -28.796)" fill="#b20000"/>
      <path id="Path_465" data-name="Path 465" d="M13.339,140.539H4.112a2.768,2.768,0,1,1,0-5.536h6.459V103.63H4.112a2.768,2.768,0,0,1,0-5.536h9.227a2.719,2.719,0,0,1,2.768,2.768v36.909A2.719,2.719,0,0,1,13.339,140.539Z" transform="translate(-1.344 -36.406)" fill="#b20000"/>
      <path id="Path_466" data-name="Path 466" d="M102.973,45.956,125.395,8.863a1.262,1.262,0,0,1,2.307.923l-5.813,29.158h12a1.245,1.245,0,0,1,1.015,1.938L111.923,72.254a1.24,1.24,0,0,1-2.215-1.015L115.522,47.8H103.988a1.176,1.176,0,0,1-1.015-1.845Z" transform="translate(-33.122 -8.26)" fill="#cb0000"/>
      <path id="Path_467" data-name="Path 467" d="M116.5,79.265l3.322-13.287h2.584a1.905,1.905,0,0,1,1.569,2.953Z" transform="translate(-37.425 -26.344)" fill="#de3030"/>
    </g>
  </g>
</svg>
