<svg id="_55555555555" data-name="55555555555" xmlns="http://www.w3.org/2000/svg" width="124" height="124" viewBox="0 0 124 124">
  <path id="Path_553" data-name="Path 553" d="M0,124V0H124V124Z" fill="none"/>
  <g id="Group_38" data-name="Group 38" transform="translate(11.625 1.938)">
    <path id="Path_554" data-name="Path 554" d="M133.165,67.188H90.71a2.024,2.024,0,0,0-2.023,2.023v3.7a2.025,2.025,0,0,0,2.023,2.025h42.453a2.025,2.025,0,0,0,2.025-2.023v-3.7a2.025,2.025,0,0,0-2.023-2.025Z" transform="translate(-36.375 -20.688)" fill="#ff8c00"/>
    <path id="Path_555" data-name="Path 555" d="M51.625,40h-15.5a3.874,3.874,0,0,1-3.875-3.875V32.25H55.5v3.875A3.874,3.874,0,0,1,51.625,40Z" transform="translate(-20.625 -10.938)" fill="#ff8c00"/>
    <path id="Path_556" data-name="Path 556" d="M81.844,2.688H78.938V6.563h2.906a2.906,2.906,0,0,1,0,5.813H59.563a5.82,5.82,0,0,0-5.812,5.813h3.875a1.938,1.938,0,0,1,1.937-1.937H81.844a6.781,6.781,0,0,0,0-13.562Z" transform="translate(-26.625 -2.688)" fill="#ff8c00"/>
    <path id="Path_557" data-name="Path 557" d="M118.156,2.688H115.25V6.563h2.906a2.906,2.906,0,0,1,0,5.813H107.5V16.25h10.656a6.781,6.781,0,0,0,0-13.562Z" transform="translate(-41.625 -2.688)" fill="#ff8c00"/>
    <g id="Group_37" data-name="Group 37" transform="translate(0 19.375)">
      <path id="Path_558" data-name="Path 558" d="M129.438,86a5.82,5.82,0,0,0-5.812,5.813v34.875a1.936,1.936,0,0,0,1.938,1.938h7.75a1.936,1.936,0,0,0,1.938-1.937V91.813A5.82,5.82,0,0,0,129.438,86Zm1.937,38.75H127.5v-5.812h3.875Zm0-9.687H127.5v-15.5h3.875Zm0-19.375H127.5V91.813a1.937,1.937,0,0,1,3.875,0Z" transform="translate(-46.125 -45.313)" fill="#ff8c00"/>
      <path id="Path_559" data-name="Path 559" d="M107.938,86a5.82,5.82,0,0,0-5.812,5.813v34.875a1.936,1.936,0,0,0,1.938,1.938h7.75a1.936,1.936,0,0,0,1.938-1.937V91.813A5.82,5.82,0,0,0,107.938,86Zm0,3.875a1.938,1.938,0,0,1,1.938,1.938v3.875H106V91.813A1.938,1.938,0,0,1,107.938,89.875Zm1.937,9.688v15.5H106v-15.5ZM106,124.75v-5.812h3.875v5.813Z" transform="translate(-40.125 -45.313)" fill="#ff8c00"/>
      <path id="Path_560" data-name="Path 560" d="M116.875,62.413v-3.7A3.959,3.959,0,0,0,113,54.76V52.813A5.82,5.82,0,0,0,107.188,47h-31a5.82,5.82,0,0,0-5.812,5.813V54.76A3.961,3.961,0,0,0,66.5,58.712v3.7a3.959,3.959,0,0,0,3.875,3.952v5.822H51.67L49.309,40.754a5.815,5.815,0,0,0,3.629-5.378V29.563H25.813v5.813a5.815,5.815,0,0,0,3.629,5.378L27.08,72.188H20a3.879,3.879,0,0,0-3.875,3.875v3.875A3.879,3.879,0,0,0,20,83.813V116.75H16.125v3.875h100.75V116.75H113V66.365a3.959,3.959,0,0,0,3.875-3.952Zm-9.687-11.538a1.938,1.938,0,0,1,1.938,1.938V54.75H105.25V50.875Zm-5.813,0V54.75H97.5V50.875Zm-7.75,3.875H89.75V50.875h3.875Zm-7.75-3.875V54.75H82V50.875Zm-9.687,0h1.938V54.75H74.25V52.813A1.938,1.938,0,0,1,76.188,50.875Zm-5.725,7.75h42.451l.087.087-.087,3.788-42.538-.087ZM29.688,33.438H49.063v1.938a1.938,1.938,0,0,1-1.937,1.938h-15.5a1.938,1.938,0,0,1-1.937-1.937Zm3.608,7.75H45.453l.291,3.875H37.438v3.875h8.6l.291,3.875H41.313v3.875h5.307l1.166,15.5H30.966ZM20,76.063H70.375v3.875H20Zm3.875,7.75h46.5V109h-46.5Zm9.688,29.062v3.875H29.688v-3.875Zm3.875,0h3.875v3.875H37.438Zm7.75,0h3.875v3.875H45.188Zm7.75,0h3.875v3.875H52.938Zm7.75,0h3.875v3.875H60.688Zm-36.812,0h1.938v3.875H23.875Zm44.563,3.875v-3.875h1.938v3.875Zm5.813,0V66.375h34.875V116.75Z" transform="translate(-16.125 -29.563)" fill="#ff8c00"/>
      <path id="Path_561" data-name="Path 561" d="M67.125,112.875h-31a3.879,3.879,0,0,0-3.875,3.875v5.813a3.879,3.879,0,0,0,3.875,3.875h31A3.879,3.879,0,0,0,71,122.563V116.75A3.879,3.879,0,0,0,67.125,112.875Zm-7.75,3.875v5.813h-15.5V116.75Zm-23.25,0H40v5.813H36.125Zm27.125,5.813V116.75h3.875l0,5.813Z" transform="translate(-20.625 -52.813)" fill="#ff8c00"/>
    </g>
  </g>
</svg>
