<svg xmlns="http://www.w3.org/2000/svg" width="125.407" height="48.164" viewBox="0 0 125.407 48.164">
  <path id="Path_239" data-name="Path 239" d="M260.538,447a147.239,147.239,0,0,1-16.682-.971c-16.658-1.905-32.021-6.407-43.259-12.676-11.376-6.346-17.2-13.777-16.391-20.923.558-4.951,5.31-9.383,14.527-13.548a.518.518,0,0,1,.687.263.525.525,0,0,1-.262.692c-8.853,4-13.406,8.158-13.919,12.71-.755,6.7,4.878,13.762,15.862,19.89,11.121,6.2,26.347,10.662,42.872,12.552s32.355.984,44.575-2.55c12.069-3.491,19.131-9.1,19.886-15.8.511-4.532-1.967-9.337-7.167-13.9a.526.526,0,0,1-.051-.738.517.517,0,0,1,.733-.051c5.469,4.8,8.069,9.914,7.517,14.8-.806,7.146-8.133,13.074-20.632,16.689A103.567,103.567,0,0,1,260.538,447Z" transform="translate(-184.132 -398.839)" fill="#fff"/>
</svg>
