<svg id="physics" xmlns="http://www.w3.org/2000/svg" xmlns:xlink="http://www.w3.org/1999/xlink" width="138" height="137" viewBox="0 0 138 137">
  <defs>
    <linearGradient id="linear-gradient" x1="0.5" y1="-0.012" x2="0.5" y2="1.024" gradientUnits="objectBoundingBox">
      <stop offset="0" stop-color="#90fcff"/>
      <stop offset="1" stop-color="#90fcff"/>
    </linearGradient>
    <linearGradient id="linear-gradient-2" x1="0.5" y1="-1.979" x2="0.5" y2="3.037" xlink:href="#linear-gradient"/>
    <linearGradient id="linear-gradient-3" x1="0.5" y1="-0.006" x2="0.5" y2="1.016" gradientUnits="objectBoundingBox">
      <stop offset="0" stop-color="#20f9ff"/>
      <stop offset="1" stop-color="#20f9ff"/>
    </linearGradient>
  </defs>
  <path id="Path_437" data-name="Path 437" d="M0,137V0H138V137Z" fill="none"/>
  <g id="Group_15" data-name="Group 15" transform="translate(16.125 16.125)">
    <path id="Path_438" data-name="Path 438" d="M99.718,76.124C113.082,60.1,122.708,42.649,116.152,36.1c-6.538-6.543-24.039,3.111-40.025,16.436C60.107,39.163,42.654,29.53,36.1,36.1S39.166,60.1,52.53,76.122C39.164,92.143,29.538,109.6,36.1,116.151a7.9,7.9,0,0,0,5.824,2.11c8.391,0,21.731-8.143,34.207-18.548,12.456,10.381,25.829,18.54,34.222,18.54a7.885,7.885,0,0,0,5.8-2.1c6.558-6.554-3.068-24.007-16.434-40.027Zm13.358,36.951c-2.968,2.968-15.827-1.4-33.617-16.214,1.589-1.4,3.161-2.813,4.692-4.252l-2.985-3.172c-1.72,1.618-3.392,3.12-5.04,4.564-1.531-1.341-3.083-2.732-4.672-4.222l-2.976,3.181c1.409,1.319,2.857,2.619,4.318,3.9-17.784,14.814-30.641,19.2-33.617,16.216s1.4-15.831,16.212-33.613c1.393,1.587,2.813,3.155,4.254,4.683l3.172-2.985c-1.618-1.718-3.118-3.39-4.561-5.036,1.446-1.648,2.946-3.32,4.564-5.038L59.645,68.1q-2.159,2.3-4.254,4.686C40.581,55.005,36.2,42.155,39.179,39.176S55.012,40.583,72.792,55.39Q70.6,57.314,68.476,59.3l2.976,3.177c1.592-1.491,3.142-2.883,4.672-4.222,1.65,1.448,3.325,2.948,5.045,4.57l2.985-3.172q-2.3-2.162-4.692-4.263C97.249,40.578,110.11,36.2,113.076,39.176s-1.4,15.831-16.212,33.613c-1.4-1.589-2.817-3.159-4.259-4.69l-3.172,2.985c1.62,1.72,3.122,3.394,4.568,5.043-1.446,1.648-2.946,3.32-4.564,5.038l3.172,2.985q2.159-2.3,4.254-4.686c14.81,17.78,19.193,30.63,16.212,33.611Z" transform="translate(-16.125 -16.125)" fill="url(#linear-gradient)"/>
    <path id="Path_439" data-name="Path 439" d="M86,75.25A10.75,10.75,0,1,0,96.75,86,10.75,10.75,0,0,0,86,75.25Z" transform="translate(-26 -26)" fill="url(#linear-gradient-2)"/>
    <path id="Path_440" data-name="Path 440" d="M136.125,76.125c0-9.556-19.638-15.6-42.335-17.665-2.063-22.7-8.109-42.335-17.665-42.335S60.523,35.763,58.46,58.46c-22.7,2.063-42.335,8.109-42.335,17.665S35.763,91.727,58.46,93.79c2.063,22.7,8.109,42.335,17.665,42.335s15.6-19.638,17.665-42.335C116.487,91.727,136.125,85.681,136.125,76.125Zm-60-55.385c4.687,0,10.869,13.846,13.045,37.357-4.318-.286-8.7-.434-13.045-.434s-8.728.148-13.045.434C65.256,34.586,71.438,20.74,76.125,20.74ZM89.971,76.125c0,4.735-.166,9.189-.445,13.4-4.212.279-8.665.445-13.4.445s-9.189-.166-13.4-.445c-.279-4.212-.445-8.665-.445-13.4s.166-9.189.445-13.4c4.212-.279,8.665-.445,13.4-.445s9.189.166,13.4.445C89.805,66.936,89.971,71.39,89.971,76.125Zm-69.231,0c0-4.687,13.846-10.869,37.357-13.045-.286,4.318-.434,8.7-.434,13.045s.148,8.728.434,13.045C34.586,86.994,20.74,80.812,20.74,76.125ZM76.125,131.51c-4.687,0-10.869-13.846-13.045-37.357,4.318.286,8.7.434,13.045.434s8.728-.148,13.045-.434C86.994,117.664,80.812,131.51,76.125,131.51Zm18.03-42.34c.284-4.318.432-8.7.432-13.045s-.148-8.728-.434-13.045c23.511,2.176,37.357,8.358,37.357,13.045S117.663,86.994,94.155,89.17Z" transform="translate(-16.125 -16.125)" fill="url(#linear-gradient-3)"/>
  </g>
</svg>
