<svg id="_88888" data-name="88888" xmlns="http://www.w3.org/2000/svg" width="124.199" height="105.824" viewBox="0 0 124.199 105.824">
  <path id="Path_468" data-name="Path 468" d="M0,105.824V0H124.2V105.824Z" fill="none"/>
  <g id="Group_21" data-name="Group 21" transform="translate(0 6.357)">
    <path id="Path_469" data-name="Path 469" d="M2.179,27.52A2.179,2.179,0,0,0,0,29.7v69.72A2.179,2.179,0,0,0,2.179,101.6H58.686V97.24H17.256a15.292,15.292,0,0,0-12.9-12.9V44.776a15.289,15.289,0,0,0,12.9-12.9H91.682a15.289,15.289,0,0,0,12.9,12.9V99.419h4.357V29.7a2.179,2.179,0,0,0-2.179-2.179Zm2.179,4.357h8.5a10.863,10.863,0,0,1-8.5,8.5Zm91.725,0h8.5v8.5A10.863,10.863,0,0,1,96.082,31.877ZM52.5,38.414v3.813a6.747,6.747,0,0,0-6.162,6.74c0,5.4,4.367,6.375,7.872,7.158,3.148.706,4.928,1.21,4.928,3.328,0,1.268-.6,3.4-4.672,3.4a5.505,5.505,0,0,1-3.523-1.345,4.4,4.4,0,0,1-1.123-3.353l.026-1.055H45.754l.026,1.055c.137,4.656,2.331,7.3,6.723,8.051v2.706h3.966V66.261c6.384-.937,6.715-5.838,6.715-6.843,0-5.207-4.367-6.213-7.872-7.013-3.148-.723-4.936-1.234-4.936-3.226,0-2.384,1.327-3.494,4.162-3.494,3.277,0,4,2.149,4.026,3.953l.017,1.013h3.949L62.6,49.7a7.288,7.288,0,0,0-1.906-5.226,7.17,7.17,0,0,0-4.221-2.234V38.414ZM15.251,47.129V60.2H34.86V47.129Zm58.826,0V60.2H93.686V47.129ZM19.609,51.486H30.5v4.357H19.609Zm58.826,0H89.329v4.357H78.435ZM75.5,71.095c-5.284.1-9.039,2.432-10.583,5.962-1.408,3.217-1.1,6.988-.221,10.847a4.444,4.444,0,0,0-.711,3.034v0a6.774,6.774,0,0,0,1.26,3.464c.241.307.614.3.915.515a13.347,13.347,0,0,0,.945,3.06,10.646,10.646,0,0,0,.962,1.587c.058.078.181.141.238.217.008,1.023.009,1.973-.064,3.017a3.724,3.724,0,0,1-1.889,1.566c-1.258.628-3.022,1.232-4.868,2.026a16.585,16.585,0,0,0-5.43,3.43,10.574,10.574,0,0,0-2.974,6.894,2.179,2.179,0,0,0,2.174,2.306H96.026a2.179,2.179,0,0,0,2.174-2.306,11.645,11.645,0,0,0-.306-2.047h8.864a2.179,2.179,0,0,0,2.174-2.311,9.29,9.29,0,0,0-2.592-6.021,14.186,14.186,0,0,0-4.664-2.962c-1.566-.675-3.049-1.186-4.072-1.7a2.822,2.822,0,0,1-1.4-1.119c-.05-.783-.049-1.532-.043-2.306.031-.043.1-.084.136-.128a9.192,9.192,0,0,0,.817-1.392,12.071,12.071,0,0,0,.757-2.506c.237-.184.549-.173.74-.417a6.036,6.036,0,0,0,1.132-3.089v0a4.121,4.121,0,0,0-.613-2.723,15.743,15.743,0,0,0,.809-5.821A8.327,8.327,0,0,0,98.5,77.848a6.685,6.685,0,0,0-4.043-2.438A7.2,7.2,0,0,0,89.5,73.618h-.038a12.666,12.666,0,0,0-4.945,1,8.225,8.225,0,0,0-3.272-1.447,8.059,8.059,0,0,0-5.706-2.077H75.5Zm-55.89,4.357V79.81H58.826V75.452Zm55.949,0a4.489,4.489,0,0,1,3,.783,2.179,2.179,0,0,0,1.6,1.081,2.812,2.812,0,0,1,2.2,1.179,5.474,5.474,0,0,1,.826,2.715,19.472,19.472,0,0,1-.945,6.566,2.179,2.179,0,0,0,.689,2.37c.024.031.066.072.043.272a2.63,2.63,0,0,1-.336,1.2A2.179,2.179,0,0,0,81.1,93.474a8.758,8.758,0,0,1-.8,2.574,6.706,6.706,0,0,1-.549.94c-.147.2-.332.249.077.034a2.179,2.179,0,0,0-1.166,1.928,45.621,45.621,0,0,0,.1,4.715,2.179,2.179,0,0,0,.128.562,7.723,7.723,0,0,0,4.136,4.038c1.662.832,3.451,1.43,5.077,2.132a12.76,12.76,0,0,1,4.03,2.485,1.191,1.191,0,0,1,.115.174,2.179,2.179,0,0,0,.315.677,5.9,5.9,0,0,0,.319.932H58.4c.28-.542.322-1.347.749-1.779A12.849,12.849,0,0,1,63.2,110.4c1.634-.7,3.431-1.3,5.1-2.132a7.72,7.72,0,0,0,4.145-4.043,2.179,2.179,0,0,0,.128-.562,45.706,45.706,0,0,0,.106-4.715,2.179,2.179,0,0,0-1-1.834c.033.021-.018-.015-.115-.145a6.756,6.756,0,0,1-.562-.94,8.466,8.466,0,0,1-.817-2.553,2.179,2.179,0,0,0-1.54-1.855,2.685,2.685,0,0,1-.332-1.2c-.024-.2.018-.245.043-.277a2.179,2.179,0,0,0,.728-2.23c-.978-3.764-1.058-7.1-.174-9.115s2.456-3.262,6.651-3.345ZM89.52,77.98a4.571,4.571,0,0,1,2.23.485,2.179,2.179,0,0,0,1.592,1.081,2.015,2.015,0,0,1,1.626.855,4.3,4.3,0,0,1,.63,2.111,16.223,16.223,0,0,1-.779,5.392,2.179,2.179,0,0,0,.6,2.294v0a1.682,1.682,0,0,1-.2.77,2.179,2.179,0,0,0-1.383,1.8,7.123,7.123,0,0,1-.638,2.055,5.366,5.366,0,0,1-.43.74c-.067.093-.1.1-.043.06a2.179,2.179,0,0,0-.94,1.792,39.192,39.192,0,0,0,.089,4,2.179,2.179,0,0,0,.128.566,6.83,6.83,0,0,0,3.651,3.587c1.432.716,2.941,1.217,4.294,1.8a10.456,10.456,0,0,1,3.285,2.017c.219.223.213.669.383.919H95.639c-.137-.157-.256-.339-.4-.485a16.5,16.5,0,0,0-5.409-3.43c-1.839-.794-3.6-1.4-4.851-2.026a3.723,3.723,0,0,1-1.885-1.566c-.073-1.048-.068-2-.06-3.03.058-.079.184-.145.243-.226a10.557,10.557,0,0,0,.936-1.592,13.634,13.634,0,0,0,.919-3.038c.3-.215.668-.206.906-.511a6.789,6.789,0,0,0,1.26-3.468,4.423,4.423,0,0,0-.745-3.072,18.89,18.89,0,0,0,.974-6.992,11.619,11.619,0,0,0-.472-2.557,9.69,9.69,0,0,1,2.464-.34ZM19.609,86.346V90.7H47.481V86.346Zm-15.251,2.4a10.865,10.865,0,0,1,8.5,8.5h-8.5Z" transform="translate(0 -27.52)" fill="#ff0065"/>
  </g>
</svg>
