<svg xmlns="http://www.w3.org/2000/svg" width="35" height="28.002" viewBox="194.996 603 35 28.002"><path d="M207.247 617a7 7 0 0 0 7-7 7 7 0 0 0-7-7 7 7 0 0 0-7 7 7 7 0 0 0 7 7Zm4.9 1.75h-.913a9.53 9.53 0 0 1-3.987.876 9.55 9.55 0 0 1-3.987-.875h-.913a7.352 7.352 0 0 0-7.35 7.35v2.275a2.626 2.626 0 0 0 2.624 2.625h15.035a2.626 2.626 0 0 1-.143-1.165l.372-3.33.066-.607.432-.432 4.228-4.228c-1.34-1.515-3.282-2.488-5.464-2.488Zm2.477 7.947-.371 3.336a.87.87 0 0 0 .962.963l3.33-.372 7.542-7.542-3.92-3.921-7.543 7.536Zm14.99-8.991-2.072-2.073a1.31 1.31 0 0 0-1.848 0l-2.068 2.068-.224.224 3.927 3.921 2.286-2.286a1.317 1.317 0 0 0 0-1.854Z" fill="#707070" fill-rule="evenodd" data-name="user-edit-svgrepo-com"/></svg>