<svg xmlns="http://www.w3.org/2000/svg" xmlns:xlink="http://www.w3.org/1999/xlink" width="1241.499" height="456.709">
  <defs>
    <linearGradient id="linear-gradient" x1="0.5" x2="0.5" y2="1" gradientUnits="objectBoundingBox">
      <stop offset="0" stop-color="#66008c"/>
      <stop offset="1" stop-color="#9f0099"/>
    </linearGradient>
    <linearGradient id="linear-gradient-2" x1="0.5" x2="0.5" y2="1" gradientUnits="objectBoundingBox">
      <stop offset="0" stop-color="#9f0099"/>
      <stop offset="1" stop-color="#66008c"/>
    </linearGradient>
  </defs>
  <g id="Group_1236" data-name="Group 1236" transform="translate(64.304 -344.981)">
    <g id="Group_16" data-name="Group 16" transform="translate(-15.555 254.603)">
      <g id="Group_15" data-name="Group 15" transform="translate(675.646 189.749)">
        <path id="Path_257" data-name="Path 257" d="M336.349,386.094H326.091l-4.879-39.568h15.14Z" transform="translate(-172.184 -38.277)" fill="#ffb8b8"/>
        <path id="Path_258" data-name="Path 258" d="M317.053,387.355h19.784v12.453H304.6A12.453,12.453,0,0,1,317.053,387.355Z" transform="translate(-170.479 -42.47)" fill="#2f2e41"/>
        <path id="Path_259" data-name="Path 259" d="M219.554,386.094H209.3l-4.879-39.568h15.14Z" transform="translate(-160.192 -38.277)" fill="#ffb8b8"/>
        <path id="Path_260" data-name="Path 260" d="M200.262,387.355h19.784v12.453h-32.24a12.453,12.453,0,0,1,12.453-12.453Z" transform="translate(-158.486 -42.47)" fill="#2f2e41"/>
        <path id="Path_261" data-name="Path 261" d="M487.471,240.066v-4.487a28.938,28.938,0,0,1,28.938-28.938h0a28.938,28.938,0,0,1,28.938,28.938v4.486a20.859,20.859,0,0,1-20.859,20.859H508.333a20.859,20.859,0,0,1-20.859-20.859Z" transform="translate(-393.845 -185.752)" fill="#2f2e41"/>
        <circle id="Ellipse_36" data-name="Ellipse 36" cx="22.039" cy="22.039" r="22.039" transform="translate(100.526 32.642)" fill="#ffb8b8"/>
        <path id="Path_263" data-name="Path 263" d="M385.818,328.446a8.415,8.415,0,0,1,12.814,1.505l18.893-3.573,4.972,10.951L395.745,342a8.46,8.46,0,0,1-9.927-13.553Z" transform="translate(-383.132 -198.023)" fill="#ffb8b8"/>
        <path id="Path_264" data-name="Path 264" d="M490.825,284.176l.247.374-30.978,20.409-52.276,16.693a3.148,3.148,0,0,0-2.165,3.355l1.14,9.823a3.141,3.141,0,0,0,3.778,2.709l49.2-10.546a17.772,17.772,0,0,0,6.616-2.913l34.8-24.763a8.95,8.95,0,1,0-10.119-14.765Z" transform="translate(-385.442 -193.577)" fill="#ec7580"/>
        <path id="Path_265" data-name="Path 265" d="M541.941,536.7a4.054,4.054,0,0,1-3.713-2.424L491.2,418.066a1.346,1.346,0,0,0-2.52.142L450.312,531.339a4.039,4.039,0,0,1-5.278,2.594l-12.866-4.826a4.028,4.028,0,0,1-2.6-3.324c-5.788-50.422,44.687-177.694,45.2-178.975l.142-.354,46.012,10.178.1.1c18.357,20.027,33.446,146.336,36.284,171.454a4.019,4.019,0,0,1-2.666,4.259l-11.357,4.016a4,4,0,0,1-1.336.23Z" transform="translate(-387.852 -200.108)" fill="#2f2e41"/>
        <path id="Path_266" data-name="Path 266" d="M507.4,353.278c-11.148,0-23.577-2.223-27.4-11.4l-.088-.211.119-.2c3.02-4.955,7.01-13.406,4.865-14.993-4.226-3.124-6.276-8.264-6.094-15.277.4-15.223,10.768-28.74,25.812-33.633h0a114.527,114.527,0,0,1,12.8-3.3,21.788,21.788,0,0,1,18.065,4.461,22.008,22.008,0,0,1,8.162,16.933c.156,16.267-2.347,38.928-15.177,54.483a3.991,3.991,0,0,1-2.363,1.374,109.666,109.666,0,0,1-18.7,1.75Z" transform="translate(-392.953 -192.653)" fill="#ec7580"/>
        <path id="Path_267" data-name="Path 267" d="M506.014,359.561a8.575,8.575,0,0,1,10.479-5.98,8.438,8.438,0,0,1,1.3.481l14.345-13.055,9.977,6.721L521.6,365.882A8.562,8.562,0,0,1,511.9,370a8.429,8.429,0,0,1-5.883-10.437Z" transform="translate(-395.716 -199.548)" fill="#ffb8b8"/>
        <path id="Path_268" data-name="Path 268" d="M531.522,353.8a4.028,4.028,0,0,1-2.556-.914l-5.656-4.622a4.038,4.038,0,0,1,.1-6.331l23.727-18.2a1.349,1.349,0,0,0,.255-1.88L532.745,302.5a11.921,11.921,0,0,1,.8-15.357h0a11.887,11.887,0,0,1,16.051-1.283l.093.1,15.292,21.9a13.633,13.633,0,0,1-.323,21.7l-30.729,23.454a4.048,4.048,0,0,1-2.4.792Z" transform="translate(-397.372 -193.626)" fill="#ec7580"/>
        <path id="Path_269" data-name="Path 269" d="M497.965,235.162V224.227l19.522-8.527,18.615,8.524v10.935a1.8,1.8,0,0,1-1.795,1.795H499.76a1.8,1.8,0,0,1-1.795-1.795Z" transform="translate(-394.922 -186.681)" fill="#2f2e41"/>
        <circle id="Ellipse_30" data-name="Ellipse 30" cx="12.237" cy="12.237" r="12.237" transform="translate(127.029 7.494)" fill="#2f2e41"/>
        <path id="Path_185" data-name="Path 185" d="M895.7,215.056a12.232,12.232,0,0,1,14.633-12,12.232,12.232,0,1,0-7.6,23.061,12.227,12.227,0,0,1-7.03-11.062Z" transform="translate(-767.728 -201.89)" fill="#2f2e41"/>
      </g>
    </g>
    <g id="فراموشی" transform="translate(-42.922 344.977)">
      <path id="Path_461" data-name="Path 461" d="M286.27,657.982a20.761,20.761,0,0,1-20.048-3.531c-7.022-5.894-9.226-15.6-11.014-24.594l-5.3-26.592L261,610.9c7.977,5.493,16.133,11.162,21.657,19.118s7.934,18.817,3.5,27.425" transform="translate(656.469 -234.908)" fill="url(#linear-gradient)"/>
      <path id="Path_462" data-name="Path 462" d="M267.321,693.377c1.123-8.178,2.277-16.461,1.49-24.726-.7-7.341-2.939-14.51-7.5-20.389a33.916,33.916,0,0,0-8.7-7.886c-.871-.548-1.671.83-.8,1.377a32.245,32.245,0,0,1,12.755,15.389c2.777,7.063,3.223,14.762,2.74,22.264-.29,4.537-.9,9.043-1.521,13.547a.822.822,0,0,0,.557.981.8.8,0,0,0,.981-.557Z" transform="translate(674.469 -238.109)" fill="#66008c"/>
      <rect id="ab2e16f2-9798-47da-b25d-769524f3c86f" width="399.358" height="189.503" transform="translate(714.485 255.468) rotate(-171.78)" fill="url(#linear-gradient-2)"/>
      <rect id="bf81c03f-68cf-4889-8697-1102f95f97bb" width="376.519" height="158.107" transform="translate(705.348 238.846) rotate(-171.78)" fill="#fff"/>
      <rect id="f065dccc-d150-492a-a09f-a7f3f89523f0" width="399.358" height="16.966" transform="translate(740.92 73.892) rotate(-171.78)" fill="#66008c"/>
      <circle id="bdbbf39c-df25-4682-8b85-5a6af4a1bd14" cx="3.145" cy="3.145" r="3.145" transform="translate(726.564 62.024)" fill="#fff"/>
      <circle id="abcd4292-0b1f-4102-9b5e-e8bbd87baabc" cx="3.145" cy="3.145" r="3.145" transform="translate(714.733 60.318)" fill="#fff"/>
      <circle id="a3fb731e-8b3d-41ca-96f2-91600dc0b434" cx="3.145" cy="3.145" r="3.145" transform="translate(702.901 58.611)" fill="#fff"/>
      <rect id="ab2e16f2-9798-47da-b25d-769524f3c86f-2" data-name="ab2e16f2-9798-47da-b25d-769524f3c86f" width="399.357" height="189.502" transform="translate(255.35 91.513)" fill="url(#linear-gradient)"/>
      <rect id="bf81c03f-68cf-4889-8697-1102f95f97bb-2" data-name="bf81c03f-68cf-4889-8697-1102f95f97bb" width="376.518" height="158.107" transform="translate(266.775 107.763)" fill="#fff"/>
      <rect id="f065dccc-d150-492a-a09f-a7f3f89523f0-2" data-name="f065dccc-d150-492a-a09f-a7f3f89523f0" width="399.357" height="16.966" transform="translate(255.521 80.564)" fill="#66008c"/>
      <circle id="bdbbf39c-df25-4682-8b85-5a6af4a1bd14-2" data-name="bdbbf39c-df25-4682-8b85-5a6af4a1bd14" cx="3.145" cy="3.145" r="3.145" transform="translate(639.472 87.396)" fill="#fff"/>
      <circle id="abcd4292-0b1f-4102-9b5e-e8bbd87baabc-2" data-name="abcd4292-0b1f-4102-9b5e-e8bbd87baabc" cx="3.145" cy="3.145" r="3.145" transform="translate(627.519 87.396)" fill="#fff"/>
      <circle id="a3fb731e-8b3d-41ca-96f2-91600dc0b434-2" data-name="a3fb731e-8b3d-41ca-96f2-91600dc0b434" cx="3.145" cy="3.145" r="3.145" transform="translate(615.564 87.396)" fill="#fff"/>
      <rect id="Rectangle_221" data-name="Rectangle 221" width="53.028" height="3.986" transform="translate(373.27 131.802)" fill="#c200bc"/>
      <rect id="Rectangle_222" data-name="Rectangle 222" width="81.887" height="3.986" transform="translate(344.381 143.502)" fill="#c200bc"/>
      <rect id="Rectangle_223" data-name="Rectangle 223" width="66.736" height="3.986" transform="translate(358.695 154.645)" fill="#c200bc"/>
      <rect id="Rectangle_224" data-name="Rectangle 224" width="38.959" height="3.986" transform="translate(387.352 166.872)" fill="#c200bc"/>
      <rect id="Rectangle_225" data-name="Rectangle 225" width="58.8" height="3.986" transform="translate(367.492 178.815)" fill="#c200bc"/>
      <rect id="Rectangle_226" data-name="Rectangle 226" width="6.493" height="6.493" transform="translate(444.054 130.547)" fill="#c200bc"/>
      <rect id="Rectangle_227" data-name="Rectangle 227" width="6.493" height="6.493" transform="translate(444.054 142.248)" fill="#c200bc"/>
      <rect id="Rectangle_228" data-name="Rectangle 228" width="6.493" height="6.493" transform="translate(444.054 153.391)" fill="#c200bc"/>
      <rect id="Rectangle_229" data-name="Rectangle 229" width="6.493" height="6.493" transform="translate(444.054 165.619)" fill="#c200bc"/>
      <rect id="Rectangle_230" data-name="Rectangle 230" width="6.493" height="6.493" transform="translate(444.054 177.561)" fill="#c200bc"/>
      <rect id="Rectangle_231" data-name="Rectangle 231" width="53.028" height="3.986" transform="translate(373.27 190.833)" fill="#c200bc"/>
      <rect id="Rectangle_232" data-name="Rectangle 232" width="81.887" height="3.986" transform="translate(344.381 202.533)" fill="#c200bc"/>
      <rect id="Rectangle_233" data-name="Rectangle 233" width="66.736" height="3.986" transform="translate(358.695 213.676)" fill="#c200bc"/>
      <rect id="Rectangle_234" data-name="Rectangle 234" width="38.959" height="3.986" transform="translate(387.352 225.904)" fill="#c200bc"/>
      <rect id="Rectangle_235" data-name="Rectangle 235" width="58.8" height="3.986" transform="translate(367.492 237.846)" fill="#c200bc"/>
      <rect id="Rectangle_236" data-name="Rectangle 236" width="6.493" height="6.493" transform="translate(444.054 189.579)" fill="#c200bc"/>
      <rect id="Rectangle_237" data-name="Rectangle 237" width="6.493" height="6.493" transform="translate(444.054 201.28)" fill="#c200bc"/>
      <rect id="Rectangle_238" data-name="Rectangle 238" width="6.493" height="6.493" transform="translate(444.054 212.423)" fill="#c200bc"/>
      <rect id="Rectangle_239" data-name="Rectangle 239" width="6.493" height="6.493" transform="translate(444.054 224.65)" fill="#c200bc"/>
      <rect id="Rectangle_240" data-name="Rectangle 240" width="6.493" height="6.493" transform="translate(444.054 236.593)" fill="#c200bc"/>
      <rect id="Rectangle_241" data-name="Rectangle 241" width="53.028" height="3.986" transform="translate(541.288 222.096)" fill="#c200bc"/>
      <rect id="Rectangle_242" data-name="Rectangle 242" width="66.736" height="3.986" transform="translate(534.676 232.453)" fill="#c200bc"/>
      <path id="Path_670" data-name="Path 670" d="M623.842,384.825a34.637,34.637,0,0,0,51.042,30.493l.007-.007a34.626,34.626,0,1,0-51.049-30.486Z" transform="translate(-90.504 -213.006)" fill="url(#linear-gradient)"/>
      <circle id="Ellipse_222" data-name="Ellipse 222" cx="9.412" cy="9.412" r="9.412" transform="translate(558.369 151.313)" fill="#fff"/>
      <path id="Path_671" data-name="Path 671" d="M643.969,406.233a48.513,48.513,0,0,0,32.49-.126l.007,0-7.012-13.842H650.628Z" transform="translate(-92.258 -216.646)" fill="#fff"/>
      <path id="Path_672" data-name="Path 672" d="M545.045,476.2c16.406,0,29.753-14.178,29.753-31.606s-13.347-31.606-29.753-31.606S515.292,427.17,515.292,444.6,528.639,476.2,545.045,476.2Zm0-55.226c12,0,21.767,10.6,21.767,23.62s-9.764,23.62-21.767,23.62-21.767-10.6-21.767-23.62,9.765-23.619,21.767-23.619Z" transform="translate(129.004 -225.682)" fill="#7f7da1"/>
      <path id="Path_673" data-name="Path 673" d="M515.243,534.264h56.35a18.764,18.764,0,0,0,18.743-18.743V460.248A12.847,12.847,0,0,0,577.5,447.416H509.332A12.846,12.846,0,0,0,496.5,460.248v55.273A18.764,18.764,0,0,0,515.243,534.264Z" transform="translate(130.638 -229.754)" fill="#7f7da1"/>
      <path id="Path_674" data-name="Path 674" d="M535.841,480.8a10.981,10.981,0,1,1,15.972,9.772v17.18h-9.983v-17.18A10.971,10.971,0,0,1,535.841,480.8Z" transform="translate(127.219 -227.694)" fill="#fff"/>
      <path id="Path_675" data-name="Path 675" d="M199.516,699.819H1434.531c1.79,0,3.242-.409,3.242-.913s-1.451-.914-3.242-.914H199.516c-1.79,0-3.242.409-3.242.914S197.725,699.819,199.516,699.819Z" transform="translate(-217.656 -243.106)" fill="#909090"/>
    </g>
  </g>
</svg>
