<svg xmlns="http://www.w3.org/2000/svg" xmlns:xlink="http://www.w3.org/1999/xlink" width="1175.31" height="477.635" >
  <defs>
    <linearGradient id="linear-gradient" x1="0.5" x2="0.5" y2="1" gradientUnits="objectBoundingBox">
      <stop offset="0" stop-color="#9f0099"/>
      <stop offset="1" stop-color="#66008c"/>
    </linearGradient>
  </defs>
  <g id="وزود" transform="translate(167.001)">
    <path id="Path_677" data-name="Path 677" d="M456.118,238.55h-2.29V175.812A36.312,36.312,0,0,0,417.517,139.5H284.6a36.312,36.312,0,0,0-36.312,36.312V520A36.312,36.312,0,0,0,284.6,556.314h132.92A36.312,36.312,0,0,0,453.828,520V283.209h2.29Z" transform="translate(-204.911 -139.5)" fill="#565656"/>
    <path id="Path_678" data-name="Path 678" d="M421.989,151.783h-17.35a12.883,12.883,0,0,1-11.929,17.749H316.561a12.883,12.883,0,0,1-11.928-17.749H288.428A27.117,27.117,0,0,0,261.311,178.9V522.586A27.117,27.117,0,0,0,288.428,549.7H421.989a27.117,27.117,0,0,0,27.117-27.117h0V178.9a27.117,27.117,0,0,0-27.117-27.117Z" transform="translate(-207.918 -142.336)" fill="#fff"/>
    <path id="Path_679" data-name="Path 679" d="M652.268,681.038H193.1c-.666,0-1.205-.344-1.205-.769s.54-.769,1.205-.769h459.17c.666,0,1.205.344,1.205.769S652.933,681.038,652.268,681.038Z" transform="translate(-358.893 -264.165)" fill="#909090"/>
    <circle id="Ellipse_44" data-name="Ellipse 44" cx="64.951" cy="64.951" r="64.951" transform="translate(82.339 135.974)" fill="url(#linear-gradient)"/>
    <path id="Path_395" data-name="Path 395" d="M368.407,418.12a6.736,6.736,0,0,1-4.053-1.347l-.073-.054-15.264-11.677a6.783,6.783,0,1,1,8.254-10.767l9.887,7.582,23.363-30.48a6.781,6.781,0,0,1,9.507-1.256h0l-.145.2.149-.2a6.789,6.789,0,0,1,1.254,9.508l-27.481,35.835a6.784,6.784,0,0,1-5.4,2.645Z" transform="translate(-227.553 -192.418)" fill="#fff"/>
    <path id="Path_680" data-name="Path 680" d="M885.139,665.572a20.193,20.193,0,0,1,2.773-3.534c.434-.45.892-.875,1.364-1.288a21.645,21.645,0,0,1,35.69,12.312c3.172-11.731-5.085-23.286-13.387-32.162s-17.8-18.606-17.753-30.764c.023-6.765,3.333-12.8,8.329-17.275.154-.136.308-.271.466-.4a31.59,31.59,0,0,1,21.757-7.582c14.767.791,27.66,10.716,36.614,22.488,14.413,18.942,20.729,45.53,10.639,67.093-8.875,18.964-27.8,30.226-47.121,39.279q-4.046,1.9-8.077,3.679c-.018,0-.037.017-.055.022-.129.057-.259.114-.38.172l-1.659.731.255.167.794.514c-.275-.167-.548-.329-.823-.5-.082-.05-.169-.1-.25-.149-9.488-5.693-19.108-11.716-25.663-20.6C881.854,688.545,879.121,675.328,885.139,665.572Z" transform="translate(-351.168 -242.315)" fill="url(#linear-gradient)"/>
    <path id="Path_681" data-name="Path 681" d="M950.272,646.417a53.7,53.7,0,0,1,4.135,15.021,46.627,46.627,0,0,1-.562,13.854,59.743,59.743,0,0,1-11.981,25.63,85.984,85.984,0,0,1-15.523,15.09q-4.046,1.9-8.076,3.679c-.018,0-.037.017-.055.022-.129.057-.259.114-.38.172l-1.659.731.255.167.794.514c-.275-.167-.548-.329-.823-.5-.082-.05-.168-.1-.25-.149a47.109,47.109,0,0,0-26.4-56.339c.434-.45.892-.875,1.364-1.288a49.706,49.706,0,0,1,7.617,4.35,48.7,48.7,0,0,1,18.427,24.412,49.791,49.791,0,0,1,1.081,27.834c.476-.311.954-.631,1.419-.949,8.839-5.961,16.985-13.119,23.121-21.9a55.578,55.578,0,0,0,9.862-25.062c1.176-9.871-1.294-19.578-5.7-28.385a116.336,116.336,0,0,0-18.226-25.9,132.192,132.192,0,0,0-24.44-21.014.95.95,0,0,1-.281-1.28.808.808,0,0,1,.466-.4.7.7,0,0,1,.6.121c1.108.739,2.206,1.485,3.291,2.253a133.693,133.693,0,0,1,24.432,22.317C939.72,627.545,946.042,636.564,950.272,646.417Z" transform="translate(-352.999 -244.591)" fill="#fff"/>
    <circle id="Ellipse_44-2" data-name="Ellipse 44" cx="13.794" cy="13.794" r="13.794" transform="translate(390.036 2.571)" fill="#66008c"/>
    <circle id="Ellipse_44-3" data-name="Ellipse 44" cx="8.41" cy="8.41" r="8.41" transform="translate(566.938 197.932)" fill="#c200bc"/>
    <circle id="Ellipse_44-4" data-name="Ellipse 44" cx="8.41" cy="8.41" r="8.41" transform="translate(320.814 221.006)" fill="#c200bc"/>
    <path id="Path_682" data-name="Path 682" d="M626.871,760.038h671.582c.974,0,1.762-.344,1.762-.769s-.789-.769-1.762-.769H626.871c-.974,0-1.763.344-1.763.769S625.9,760.038,626.871,760.038Z" transform="translate(-291.905 -282.403)" fill="#909090"/>
    <path id="Path_683" data-name="Path 683" d="M951.429,232.28a11.269,11.269,0,0,0-21.641-5.712l-23.78,27.262,6.977,19.488L936.9,241.463a11.209,11.209,0,0,0,14.528-9.183Z" transform="translate(-356.754 -157.954)" fill="#ffb8b8"/>
    <path id="Path_684" data-name="Path 684" d="M635.793,204.182l78.936-84.243-10.647-16.927-99.006,83.732Z" transform="translate(-139.689 -23.781)" fill="#565656"/>
    <circle id="Ellipse_223" data-name="Ellipse 223" cx="27.689" cy="27.689" r="27.689" transform="translate(450.798 73.837)" fill="#2f2e41"/>
    <path id="Path_685" data-name="Path 685" d="M816.894,246.344a58.058,58.058,0,0,1,21.123-13.659c5.106-1.892,10.664-3.06,16-1.986s10.387,4.767,11.876,10c1.218,4.283-.04,8.894-1.93,12.926s-4.413,7.77-5.941,11.952a27.28,27.28,0,0,0,27.45,36.582c-5.245.7-10.08,3.168-15.207,4.48s-11.178,1.223-14.987-2.45c-4.031-3.886-4.112-10.2-3.917-15.8l.869-24.955c.148-4.242.274-8.62-1.256-12.58s-5.166-7.427-9.41-7.391c-3.217.027-6.064,1.976-8.644,3.9s-5.311,3.972-8.515,4.258-6.863-2.085-6.623-5.294Z" transform="translate(-336.181 -160.46)" fill="#2f2e41"/>
    <path id="Path_686" data-name="Path 686" d="M672.98,498.861a11.27,11.27,0,0,1-8.491-20.709l23.921-27.138,20.232,4.371-28.456,27.872a11.209,11.209,0,0,1-7.206,15.6Z" transform="translate(-299.658 -211.417)" fill="#ffb8b8"/>
    <path id="Path_687" data-name="Path 687" d="M564.348,234.617l-59.62,74.837-18.173-8.344,70.076-109.1Z" transform="translate(-112.327 -44.328)" fill="#565656"/>
    <path id="Path_688" data-name="Path 688" d="M521.583,541.144l-14.209-.223,1.709,48.43h12.5Z" transform="translate(-117.133 -124.878)" fill="#ffb8b8"/>
    <path id="Path_689" data-name="Path 689" d="M709.786,738.082H685.172a15.686,15.686,0,0,0-15.685,15.684v.511l40.3,0Z" transform="translate(-302.15 -277.689)" fill="#2f2e41"/>
    <path id="Path_690" data-name="Path 690" d="M643.506,524.511l-15.522,9.965,31.049,37.353,10.517-6.752Z" transform="translate(-144.977 -121.089)" fill="#ffb8b8"/>
    <path id="Path_691" data-name="Path 691" d="M866.158,710.049l-20.712,13.3h0a15.686,15.686,0,0,0-4.724,21.674l.275.429,33.912-21.772Z" transform="translate(-341.107 -271.218)" fill="#2f2e41"/>
    <path id="Path_692" data-name="Path 692" d="M810.766,436.877s-34.488-114.546-45.571-116.094-28.941,29.391-28.941,29.391c-23.153,29.541-47.028,125.232-47.028,125.232s39.8,2.491,68.894,17.97,63.429-.784,63.429-.784Z" transform="translate(-306.707 -181.338)" fill="#565656"/>
    <path id="Path_693" data-name="Path 693" d="M810.766,436.877s-34.488-114.546-45.571-116.094-24.406,29.705-24.406,29.705c-11.537,47.687-51.564,124.918-51.564,124.918s39.8,2.491,68.894,17.97,63.429-.784,63.429-.784Z" transform="translate(-306.707 -181.338)" fill="rgba(0,0,0,0.9)" opacity="0.1"/>
    <path id="Path_694" data-name="Path 694" d="M591.512,285.285v57.559l6.774,83.378,33.842,63.069-16.152,11.537-46.148-59.993-18.253-59.569L522.91,513.134,501.374,511.6l14.957-182.833L544.713,277.3Z" transform="translate(-115.748 -64.018)" fill="#2f2e41"/>
    <path id="Path_695" data-name="Path 695" d="M761.325,346.951c-10.768,10.768-.769,22.305-.769,22.305L748.25,396.945l48.456,13.075,16.933-75.667L802.1,322.047c-23.074-.769-23.087-1.247-23.087-1.247C774.973,324.756,761.325,346.951,761.325,346.951Z" transform="translate(-320.334 -181.355)" fill="#ec7580"/>
    <path id="Path_696" data-name="Path 696" d="M822.433,327.017a20.677,20.677,0,0,0-29.056,4.548c-12.182,16.961-23.445,44.349-7.926,78.508,24.919,54.847,46.6,82.924,55.42,82.922a3.506,3.506,0,0,0,1.133-.178c5.426-1.841,13.272-11.023,14.693-19.115.508-2.9.388-6.931-3.076-9.7-9.949-7.958-27.81-32.736-33.382-65.349-3.079-18.021,2.892-34.436,8.444-45.033a20.674,20.674,0,0,0-5.982-26.4h0Z" transform="translate(-327.176 -181.857)" fill="#565656"/>
    <circle id="Ellipse_224" data-name="Ellipse 224" cx="20.382" cy="20.382" r="20.382" transform="translate(442.471 100.502) rotate(-28.663)" fill="#ffb8b8"/>
    <path id="Path_697" data-name="Path 697" d="M765.872,271.982H795.3l.3-4.226,1.509,4.226h4.532l.6-8.375,2.991,8.375H814v-.415a22.016,22.016,0,0,0-21.991-21.991h-4.149a22.016,22.016,0,0,0-21.991,21.992Z" transform="translate(-324.402 -164.912)" fill="#2f2e41"/>
    <path id="Path_698" data-name="Path 698" d="M819.319,288.076,831.879,284V253.5H808.156l.587.586C816.915,262.247,826,291.2,819.319,288.076Z" transform="translate(-334.164 -165.818)" fill="#2f2e41"/>
  </g>
</svg>
