<svg xmlns="http://www.w3.org/2000/svg" xmlns:xlink="http://www.w3.org/1999/xlink" width="2172.237" height="1097.914">
  <defs>
    <linearGradient id="linear-gradient" x1="0.5" x2="0.5" y2="1" gradientUnits="objectBoundingBox">
      <stop offset="0" stop-color="#cc31c6"/>
      <stop offset="1" stop-color="#630b84"/>
    </linearGradient>
  </defs>
  <path id="Path_628" data-name="Path 628" d="M11785.517,194.333,11759.067,1265.6l26.449,19.1s-2.074-3.446-12.58,0c-13.25,4.347-34.085,14.554,0,0,39.489-16.862,122.65-65.744,337.318-112.059s328.652-59.091,521.353-73.2c314.348-23.022,672.7-66.355,909.538-79.049,158.5-8.5,261.719,9.417,261.719,9.417s-85.051,96.221,31.579-23.93c118.286-121.857,119.139-116.466,23.211-233.894s144.554,122.252-23.211,0c-81.869-59.659-673.167-126.225-1131.977-210.683C12223.015,473.038,11785.517,194.333,11785.517,194.333Z" transform="translate(-11754.396 -194.333)" fill="url(#linear-gradient)"/>
</svg>
