<svg xmlns="http://www.w3.org/2000/svg" width="1204.296" height="514.325" viewBox="0 0 1204.296 514.325">
  <g id="ثبتنام" transform="translate(138.221)">
    <path id="Path_629" data-name="Path 629" d="M234.811,715.333a32.447,32.447,0,0,0,21.281-41.968c-3.113-8.788-10.169-15.265-14.375-23.452A36.116,36.116,0,0,1,254.6,602.87q1.316-.834,2.7-1.55c.871-.454.1-1.771-.77-1.318A37.658,37.658,0,0,0,238,644.86a45.389,45.389,0,0,0,6.379,12.269c2.632,3.765,5.511,7.374,7.786,11.378a31.7,31.7,0,0,1,2.139,27.047,31.286,31.286,0,0,1-17.018,17.284c-.943.391-1.908.728-2.885,1.024a.764.764,0,0,0,.406,1.471Z" transform="translate(-191.997 -201.275)" fill="#fff"/>
    <circle id="Ellipse_216" data-name="Ellipse 216" cx="15.099" cy="15.099" r="15.099" transform="translate(49.865 384.092)" fill="#fff"/>
    <circle id="Ellipse_217" data-name="Ellipse 217" cx="9.437" cy="9.437" r="9.437" transform="translate(47.033 433.165)" fill="#fff"/>
    <path id="Path_630" data-name="Path 630" d="M747.429,464.333a32.446,32.446,0,0,1-21.281-41.968c3.113-8.788,10.169-15.265,14.375-23.452a36.116,36.116,0,0,0-12.887-47.042q-1.316-.834-2.7-1.55c-.871-.454-.1-1.771.77-1.318a37.658,37.658,0,0,1,18.529,44.857,45.388,45.388,0,0,1-6.379,12.269c-2.632,3.765-5.512,7.374-7.786,11.378a31.7,31.7,0,0,0-2.139,27.047,31.285,31.285,0,0,0,17.018,17.284c.943.391,1.908.728,2.885,1.024a.764.764,0,0,1-.406,1.471Z" transform="translate(-219.599 -187.148)" fill="#fff"/>
    <circle id="Ellipse_218" data-name="Ellipse 218" cx="15.099" cy="15.099" r="15.099" transform="translate(490.58 147.22)" fill="#fff"/>
    <circle id="Ellipse_219" data-name="Ellipse 219" cx="9.437" cy="9.437" r="9.437" transform="translate(504.736 196.293)" fill="#fff"/>
    <path id="Path_631" data-name="Path 631" d="M588.4,299.2h-2.814V222.116A44.616,44.616,0,0,0,540.969,177.5H377.648a44.616,44.616,0,0,0-44.616,44.616V645.025a44.616,44.616,0,0,0,44.616,44.616h163.32a44.616,44.616,0,0,0,44.617-44.616V354.077H588.4Z" transform="translate(-197.579 -177.5)" fill="#909090"/>
    <path id="Path_632" data-name="Path 632" d="M543.5,189.8H522.185a15.83,15.83,0,0,1-14.656,21.808H413.964A15.83,15.83,0,0,1,399.308,189.8H379.4a33.319,33.319,0,0,0-33.319,33.319V645.408A33.319,33.319,0,0,0,379.4,678.727H543.5a33.319,33.319,0,0,0,33.319-33.319h0V223.119A33.319,33.319,0,0,0,543.5,189.8Z" transform="translate(-198.313 -178.192)" fill="#fff"/>
    <path id="Path_633" data-name="Path 633" d="M536.433,564.359c-28.478-.511-28.474-42.833,0-43.339C564.913,521.53,564.908,563.852,536.433,564.359Z" transform="translate(-207.825 -196.835)" fill="#fff"/>
    <path id="Path_634" data-name="Path 634" d="M536.433,564.359c-28.478-.511-28.474-42.833,0-43.339C564.913,521.53,564.908,563.852,536.433,564.359Zm0-42.026c-26.753.48-26.748,40.237,0,40.713C563.186,562.566,563.182,522.809,536.433,522.333Z" transform="translate(-207.825 -196.835)" fill="#fff"/>
    <path id="Path_635" data-name="Path 635" d="M541.668,532.206c-5.342.154-15.731-1.756-15.737,6.48.153,5.342-1.756,15.731,6.48,15.736,5.342-.153,15.731,1.756,15.736-6.48C547.995,542.6,549.9,532.21,541.668,532.206Z" transform="translate(-208.431 -197.459)" fill="#909090"/>
    <path id="Path_636" data-name="Path 636" d="M544,538.912a1.386,1.386,0,1,1,1.35-1.383A1.386,1.386,0,0,1,544,538.912Z" transform="translate(-209.377 -197.686)" fill="#fff"/>
    <path id="Path_637" data-name="Path 637" d="M537.386,539.948c4.8-.071,4.8,7.477,0,7.406C532.581,547.423,532.58,539.877,537.386,539.948Zm0-1.851c-7.206-.105-7.207,11.215,0,11.108C544.593,549.31,544.592,537.99,537.386,538.1Z" transform="translate(-208.776 -197.796)" fill="#fff"/>
    <path id="Path_638" data-name="Path 638" d="M397.5,564.359c-28.479-.511-28.474-42.833,0-43.339C425.975,521.53,425.97,563.852,397.5,564.359Z" transform="translate(-200.005 -196.835)" fill="#fff"/>
    <path id="Path_639" data-name="Path 639" d="M397.5,564.359c-28.479-.511-28.474-42.833,0-43.339C425.975,521.53,425.97,563.852,397.5,564.359Zm0-42.026c-26.753.48-26.748,40.237,0,40.713,26.753-.48,26.748-40.237,0-40.713Z" transform="translate(-200.005 -196.835)" fill="#fff"/>
    <path id="Path_640" data-name="Path 640" d="M409.929,538.031a20.423,20.423,0,0,1-2.193,2.193c-.972,10.577-7.576,12.979-12.879,12.979-3.812,0-6.954-1.241-6.849-1.583,5.656.133,6.138-2.189,6.138-2.189-3.286-.486-3.945-2.631-3.945-2.631a1.354,1.354,0,0,0,1.751-.438,3.986,3.986,0,0,1-3.065-4.387,4.567,4.567,0,0,0,2.145.835c-.394-.482-3.712-4.459-1.715-6.52a11.04,11.04,0,0,0,9.344,4.676,4.641,4.641,0,0,1,4.515-5.568c3.069,0,3.728,1.756,3.728,1.756l2.193-1.318c-.044,0-.265,2.193-1.362,2.631Z" transform="translate(-200.673 -197.644)" fill="#909090"/>
    <path id="Path_641" data-name="Path 641" d="M466.964,564.359c-28.479-.511-28.474-42.833,0-43.339C495.444,521.53,495.439,563.852,466.964,564.359Z" transform="translate(-203.915 -196.835)" fill="#fff"/>
    <path id="Path_642" data-name="Path 642" d="M466.965,564.359c-28.479-.511-28.474-42.833,0-43.339C495.443,521.531,495.439,563.852,466.965,564.359Zm0-42.026c-26.753.48-26.748,40.237,0,40.713,26.752-.48,26.747-40.237,0-40.713Z" transform="translate(-203.915 -196.835)" fill="#fff"/>
    <path id="Path_643" data-name="Path 643" d="M479.467,543.338a12.042,12.042,0,0,1-10.157,11.9l0-8.412h2.8l.534-3.483h-3.338c-.112-2.9-.225-4.527,3.479-4.138V536.24c-5.548-1.221-7.862,1.591-7.239,7.1h-3.057v3.483h3.057v8.408c-14.389-2.213-12.7-23.982,1.876-23.926a12.038,12.038,0,0,1,12.04,12.037Z" transform="translate(-204.477 -197.414)" fill="#909090"/>
    <path id="Path_644" data-name="Path 644" d="M546.126,425.958H380.177a3.864,3.864,0,0,1-3.859-3.859V319.441a3.864,3.864,0,0,1,3.859-3.859H546.126a3.864,3.864,0,0,1,3.859,3.859V422.1A3.864,3.864,0,0,1,546.126,425.958Z" transform="translate(-200.015 -185.272)" fill="#fff"/>
    <path id="Path_645" data-name="Path 645" d="M546.126,425.958H380.177a3.864,3.864,0,0,1-3.859-3.859V319.441a3.864,3.864,0,0,1,3.859-3.859H546.126a3.864,3.864,0,0,1,3.859,3.859V422.1A3.864,3.864,0,0,1,546.126,425.958ZM380.177,317.126a2.318,2.318,0,0,0-2.316,2.316V422.1a2.318,2.318,0,0,0,2.316,2.316h165.95a2.318,2.318,0,0,0,2.316-2.316V319.441a2.318,2.318,0,0,0-2.316-2.316Z" transform="translate(-200.015 -185.272)" fill="#909090"/>
    <path id="Path_646" data-name="Path 646" d="M515.3,364.651H414.961a3.473,3.473,0,0,1,0-6.947H515.3a3.473,3.473,0,1,1,0,6.947Z" transform="translate(-201.994 -187.643)" fill="#c200bc"/>
    <path id="Path_647" data-name="Path 647" d="M515.3,390H414.961a3.473,3.473,0,0,1,0-6.947H515.3a3.473,3.473,0,1,1,0,6.947Z" transform="translate(-201.994 -189.07)" fill="#c200bc"/>
    <path id="Path_648" data-name="Path 648" d="M737.887,524.981a11.637,11.637,0,0,0-.336,1.8l-48.534,25.489-11.269-7.1-12.933,15.607,18.729,14.5a8.843,8.843,0,0,0,10.612.162l50.458-36.656a11.6,11.6,0,1,0-6.726-13.809Z" transform="translate(-216.253 -196.579)" fill="#ffb8b8"/>
    <path id="Path_649" data-name="Path 649" d="M613.31,528.211l9.731-6.259L603.532,481.44l-14.361,9.236Z" transform="translate(-33.161 -27.098)" fill="#ffb8b8"/>
    <path id="Path_650" data-name="Path 650" d="M799.454,705.952l19.164-12.325h0a14.521,14.521,0,0,1,20.067,4.359l.255.4-31.377,20.179Z" transform="translate(-223.831 -206.42)" fill="#2f2e41"/>
    <path id="Path_651" data-name="Path 651" d="M652.345,631.908l74.7-47.826s13.725-1.325,21.962,14.909l49.749,71.462-21.225,14.362-55.2-57.322-37.881,37.464s55.812-9.153,53.924,27.652c-1.5,29.209-77.885,19.189-109.353,13.809A41.265,41.265,0,0,1,600.1,686.625c-3.375-5.854-5.189-12.5-2.354-18.783C605.3,651.086,652.345,631.908,652.345,631.908Z" transform="translate(-212.399 -200.383)" fill="#2f2e41"/>
    <path id="Path_652" data-name="Path 652" d="M615.161,668.571l-21.526-4.356,6.134-105.655,24.769-30.339,14.757-2.613a17.83,17.83,0,0,1,20.4,12.908l6.5,23.762c11.037,18.687-4.424,40.354-5.85,42.28l.8,32.77Z" transform="translate(-212.247 -197.077)" fill="#ec7580"/>
    <path id="Path_653" data-name="Path 653" d="M637.685,532.368l1.366-4.832s14.822-10.925,37.471,17.387l-10.853,19.346-23.593-.944Z" transform="translate(-214.726 -197.085)" fill="#ec7580"/>
    <path id="Path_654" data-name="Path 654" d="M669.458,490.544c4.2,17.214-12.353,18.493-31.987,23.282s-34.916,11.276-39.115-5.938-3.867-49.623,23.909-56.4C651,444.481,665.259,473.33,669.458,490.544Z" transform="translate(-212.402 -192.861)" fill="#2f2e41"/>
    <circle id="Ellipse_220" data-name="Ellipse 220" cx="24.624" cy="24.624" r="24.624" transform="translate(394.484 272.419)" fill="#ffb8b8"/>
    <path id="Path_655" data-name="Path 655" d="M603.663,494.923h0l9.462-2.308,1.323-12.706,3.686,11.484,4.522-1.1.772-7.412,2.15,6.7,33.6-8.2h0a26.067,26.067,0,0,0-31.5-19.147l-4.87,1.188A26.067,26.067,0,0,0,603.663,494.923Z" transform="translate(-212.769 -193.484)" fill="#2f2e41"/>
    <path id="Path_656" data-name="Path 656" d="M919.213,522.134H753.264a3.864,3.864,0,0,1-3.859-3.859V415.617a3.864,3.864,0,0,1,3.859-3.859h165.95a3.864,3.864,0,0,1,3.859,3.859V518.275a3.864,3.864,0,0,1-3.859,3.859Z" transform="translate(-221.014 -190.685)" fill="#fff"/>
    <path id="Path_657" data-name="Path 657" d="M919.213,522.134H753.264a3.864,3.864,0,0,1-3.859-3.859V415.617a3.864,3.864,0,0,1,3.859-3.859h165.95a3.864,3.864,0,0,1,3.859,3.859V518.275a3.864,3.864,0,0,1-3.859,3.859ZM753.264,413.3a2.318,2.318,0,0,0-2.316,2.316V518.274a2.318,2.318,0,0,0,2.316,2.316h165.95a2.318,2.318,0,0,0,2.315-2.316V415.617a2.318,2.318,0,0,0-2.316-2.316Z" transform="translate(-221.014 -190.685)" fill="#909090"/>
    <path id="Path_658" data-name="Path 658" d="M888.388,460.826H788.047a3.473,3.473,0,1,1,0-6.947H888.388a3.473,3.473,0,1,1,0,6.947Z" transform="translate(-222.993 -193.056)" fill="#c200bc"/>
    <path id="Path_659" data-name="Path 659" d="M888.388,486.181H788.047a3.473,3.473,0,1,1,0-6.947H888.388a3.473,3.473,0,1,1,0,6.947Z" transform="translate(-222.993 -194.483)" fill="#c200bc"/>
    <path id="Path_660" data-name="Path 660" d="M674.072,618.562a11.642,11.642,0,0,0-1.731.6l-46.2-29.513.577-13.305-19.966-3.495-3.31,23.455a8.843,8.843,0,0,0,5.12,9.3l56.849,25.649a11.6,11.6,0,1,0,8.658-12.687Z" transform="translate(-212.794 -199.752)" fill="#ffb8b8"/>
    <path id="Path_661" data-name="Path 661" d="M628.642,533.215l-3.481-4.389s-13.979-4.5-21.529,14.372-.472,37.277-.472,37.277l33.03,2.831,2.359-30.671Z" transform="translate(-212.613 -197.248)" fill="#ec7580"/>
    <path id="Path_662" data-name="Path 662" d="M1392.329,722.387H190.967c-.81,0-1.467-.423-1.467-.944s.657-.944,1.467-.944H1392.329c.81,0,1.467.423,1.467.944S1393.139,722.387,1392.329,722.387Z" transform="translate(-327.721 -208.062)" fill="#909090"/>
  </g>
</svg>
