<svg width="160" height="241" viewBox="0 0 160 241" fill="none" xmlns="http://www.w3.org/2000/svg">
<path d="M20.2009 50.1747H81.2935C82.8628 50.1747 84.135 48.9026 84.135 47.3332C84.135 45.7639 82.8628 44.4917 81.2935 44.4917L20.2009 44.4917C18.6316 44.4917 17.3594 45.7639 17.3594 47.3332C17.3594 48.9026 18.6316 50.1747 20.2009 50.1747Z" fill="#CCCCCC"/>
<path d="M9.20272 9.53174C10.9028 10.1437 12.2443 11.4773 12.8666 13.1736C13.4887 14.8698 13.3277 16.7546 12.4266 18.3207L26.6458 34.7073L15.4692 36.188L3.67989 20.4C1.09246 18.674 0.204975 15.2856 1.61397 12.5128C3.023 9.74002 6.28319 8.45932 9.20272 9.53174Z" fill="#FFB8B8"/>
<path d="M104.144 16.0922C103.53 17.7915 103.7 19.6754 104.609 21.2371C105.517 22.7988 107.071 23.8778 108.852 24.1838L112.39 45.5891L120.664 37.9301L116.035 18.7775C116.358 15.6841 114.316 12.8383 111.282 12.1532C108.248 11.468 105.182 13.1604 104.144 16.0922Z" fill="#FFB8B8"/>
<path d="M81.9218 232.588L74.4783 232.587L70.9375 203.877L81.9229 203.878L81.9218 232.588Z" fill="#FFB8B8"/>
<path d="M83.8206 230.157L69.1621 230.157C64.0026 230.157 59.8197 234.339 59.8198 239.499V239.802L83.8201 239.803L83.8206 230.157Z" fill="#2F2E41"/>
<path d="M120.171 232.588L112.728 232.587L109.187 203.877L120.172 203.878L120.171 232.588Z" fill="#FFB8B8"/>
<path d="M122.07 230.157L107.412 230.157C102.252 230.157 98.0692 234.339 98.0693 239.499V239.802L122.07 239.803L122.07 230.157Z" fill="#2F2E41"/>
<ellipse cx="83.4757" cy="21.6593" rx="14.9118" ry="14.9118" fill="#FFB8B8"/>
<path d="M85.2629 223.05L86.4958 144.483C86.5023 144.024 86.8503 143.641 87.3072 143.591C87.7641 143.541 88.1866 143.839 88.2925 144.286L108.505 221.135C108.818 222.402 109.975 223.278 111.28 223.235L122.384 222.76C123.147 222.727 123.862 222.376 124.355 221.792C124.848 221.209 125.074 220.445 124.978 219.687L107.827 120.932L107.792 120.654L60.0215 122.914L59.71 122.928L69.9541 223.214C70.0656 224.638 71.2504 225.738 72.6784 225.744H82.5314C84.0228 225.737 85.2361 224.541 85.2629 223.05Z" fill="#2F2E41"/>
<path d="M47.5337 129.569L116.855 123.88C117.703 123.81 118.47 123.35 118.93 122.634C119.39 121.918 119.49 121.028 119.201 120.228L108.284 90.0465L107.656 54.2239C107.61 51.5973 106.514 49.0984 104.612 47.2856C102.711 45.4727 100.163 44.497 97.5367 44.5762L92.9267 40.3975H76.0365L74.5658 42.3256L62.8134 44.1316C58.5155 44.81 55.1675 48.2204 54.5685 52.53L44.6025 126.482C44.4975 127.262 44.7344 128.05 45.2524 128.643C45.7703 129.236 46.5191 129.577 47.3066 129.578C47.382 129.579 47.4579 129.576 47.5337 129.569Z" fill="#2F2E41"/>
<path d="M61.04 47.6047L31.4826 38.9448L18.1054 21.3329C17.3477 20.3348 16.008 19.9804 14.8558 20.4732L6.50398 24.0431C5.78367 24.3509 5.23017 24.9532 4.98408 25.6968C4.73793 26.4405 4.82289 27.254 5.21733 27.9307L15.2142 45.0858C16.8421 47.8921 19.3199 50.1082 22.2897 51.4139L57.0549 66.7819L61.04 47.6047Z" fill="#2F2E41"/>
<path d="M117.747 60.5588C121.339 57.9708 123.319 53.6949 122.97 49.2812L121.673 32.0947C121.562 30.6712 120.376 29.5717 118.949 29.5684H118.924L109.13 29.6555C108.318 29.6629 107.551 30.0314 107.038 30.6609C106.524 31.2904 106.317 32.1157 106.473 32.9129L108.291 42.1848L95.3223 47.6644L106.243 68.9099L117.747 60.5588Z" fill="#2F2E41"/>
<path d="M74.8007 3.77893C74.8007 3.77893 90.3949 -4.61783 98.8947 5.29215C107.395 15.2021 95.6563 30.6992 95.6563 30.6992L78.9311 32.8086C78.9311 32.8086 78.3239 21.4391 74.3418 21.6599C70.3596 21.8806 57.9923 7.53404 74.8007 3.77893Z" fill="#2F2E41"/>
<path d="M31.1653 240.655H159.27C159.605 240.655 159.877 240.383 159.877 240.048C159.877 239.713 159.605 239.441 159.27 239.441H31.1653C30.8299 239.441 30.5581 239.713 30.5581 240.048C30.5581 240.383 30.8299 240.655 31.1653 240.655Z" fill="#CCCCCC"/>
</svg>
