<svg width="121" height="233" viewBox="0 0 121 233" fill="none" xmlns="http://www.w3.org/2000/svg">
<path d="M79.7578 48.5733L46.1259 76.4476C44.8449 77.5093 42.9458 77.3315 41.8841 76.0505C40.8224 74.7695 41.0001 72.8704 42.2811 71.8087L75.9131 43.9344C77.194 42.8727 79.0932 43.0505 80.1549 44.3314C81.2166 45.6124 81.0388 47.5117 79.7578 48.5733Z" fill="#CCCCCC"/>
<path d="M70.7511 225.502L77.6673 225.501L80.9573 198.825L70.75 198.825L70.7511 225.502Z" fill="#FFB8B8"/>
<path d="M68.9873 223.244L82.6075 223.243C87.4015 223.243 91.288 227.129 91.288 231.923V232.205L68.9877 232.206L68.9873 223.244Z" fill="#2F2E41"/>
<path d="M45.9298 225.502L52.846 225.501L56.136 198.825L45.9287 198.825L45.9298 225.502Z" fill="#FFB8B8"/>
<path d="M44.1655 223.244L57.7857 223.243C62.5798 223.243 66.4664 227.129 66.4662 231.923V232.205L44.1659 232.206L44.1655 223.244Z" fill="#2F2E41"/>
<path d="M52.87 217.34H52.8688L46.9875 217.338C45.6194 217.343 44.4957 216.259 44.4518 214.891L44.2666 209.746C42.7799 168.598 41.2424 126.05 50.7638 106.925L50.8385 106.775L82.3619 105.634L88.6906 163.689C88.9608 166.165 88.8619 168.668 88.3972 171.115L80.031 215.201C79.7971 216.436 78.694 217.314 77.4377 217.264L70.8315 217.05C70.1323 217.022 69.4755 216.707 69.0162 216.18C68.5568 215.652 68.3356 214.958 68.4048 214.261L73.5941 173.487C73.7709 171.727 73.6111 169.949 73.1232 168.249L66.6694 145.688C66.5595 145.303 66.1953 145.048 65.7963 145.076C65.3974 145.104 65.0725 145.408 65.0175 145.804L55.3844 215.151C55.2059 216.403 54.1354 217.335 52.87 217.34Z" fill="#2F2E41"/>
<ellipse cx="56.6397" cy="33.7364" rx="13.8555" ry="13.8555" fill="#FFB8B8"/>
<path d="M80.8838 109.919H52.2132C51.4759 109.919 50.775 109.598 50.2928 109.041C49.8105 108.483 49.5945 107.743 49.701 107.014L51.1174 97.3127L42.8 74.4353C41.0608 69.6519 41.579 64.3384 44.2097 59.9812C46.8404 55.6239 51.301 52.6907 56.344 52.0019C63.626 50.9863 70.7203 54.832 73.8437 61.4879L75.6706 65.3751L83.3801 106.917C83.5176 107.659 83.3183 108.423 82.8359 109.003C82.3536 109.583 81.6381 109.919 80.8838 109.919Z" fill="#EC7580"/>
<path d="M20.3611 134.253C22.1081 133.848 23.5857 132.689 24.3962 131.089C25.2067 129.489 25.267 127.613 24.5608 125.964L46.9016 75.4904L34.1214 72.2715L16.1798 122.898C13.4285 124.298 12.1596 127.536 13.2264 130.433C14.2931 133.33 17.3583 134.971 20.3611 134.253Z" fill="#FFB8B8"/>
<path d="M43.8772 84.517L31.4476 78.6988C30.732 78.3638 30.1976 77.7339 29.9838 76.9733C29.7699 76.2126 29.8977 75.3966 30.3339 74.7377L37.8878 63.3295C39.6658 59.56 44.163 57.9454 47.9325 59.7234C51.7022 61.5014 53.3167 65.9986 51.5386 69.7681L47.6325 82.835C47.4059 83.5919 46.8611 84.2128 46.14 84.5358C45.4188 84.8588 44.5928 84.8519 43.8772 84.517Z" fill="#EC7580"/>
<path d="M113.555 4.36944C114.102 6.07769 113.863 7.94018 112.904 9.45568C111.945 10.9712 110.364 11.9841 108.586 12.2217L76.674 57.2585L67.3647 47.9302L101.661 6.59374C101.455 3.51324 103.585 0.765741 106.62 0.198298C109.655 -0.369146 112.634 1.42272 113.555 4.36944Z" fill="#FFB8B8"/>
<path d="M84.0536 51.9728C84.1458 52.7576 83.8914 53.5436 83.357 54.1256L74.1339 64.1722C71.8068 67.6298 67.1171 68.5461 63.6596 66.2189C60.202 63.8916 59.2858 59.2021 61.613 55.7445L67.5433 43.4139C67.8858 42.7018 68.5212 42.1742 69.2841 41.9683C70.047 41.7625 70.8617 41.8989 71.5159 42.342L82.8785 50.0386C83.5332 50.4815 83.9622 51.1878 84.0536 51.9728Z" fill="#EC7580"/>
<path d="M74.845 27.9369C74.8362 26.6829 74.662 25.4355 74.3269 24.2272C72.0946 15.9783 63.8536 11.0273 55.5837 12.2698C53.9753 11.8087 52.3102 11.5755 50.6371 11.5772C41.8427 11.5772 34.3604 17.9868 33.0104 26.6771L26.3301 69.6822H62.4342L68.2639 32.1534C68.4802 30.7588 68.5311 29.3434 68.4156 27.9369H74.845Z" fill="#2F2E41"/>
<path d="M119.718 232.519H0.687653C0.376068 232.519 0.123535 232.266 0.123535 231.955C0.123535 231.643 0.376068 231.391 0.687653 231.391H119.718C120.03 231.391 120.283 231.643 120.283 231.955C120.283 232.266 120.03 232.519 119.718 232.519Z" fill="#CCCCCC"/>
</svg>
