<svg xmlns="http://www.w3.org/2000/svg" width="25.732" height="24.443" viewBox="0 0 25.732 24.443">
  <path id="Path_754" data-name="Path 754" d="M20.479,15.205a1.41,1.41,0,0,0-.41,1.248l1.144,6.329a1.391,1.391,0,0,1-.579,1.389,1.415,1.415,0,0,1-1.505.1l-5.7-2.972a1.461,1.461,0,0,0-.643-.169h-.349a1.044,1.044,0,0,0-.347.116l-5.7,2.986a1.5,1.5,0,0,1-.913.142,1.429,1.429,0,0,1-1.145-1.635L5.48,16.413a1.442,1.442,0,0,0-.41-1.259l-4.645-4.5A1.389,1.389,0,0,1,.078,9.2a1.444,1.444,0,0,1,1.144-.965l6.393-.927a1.429,1.429,0,0,0,1.132-.783L11.564.746A1.308,1.308,0,0,1,11.823.4l.114-.09a.848.848,0,0,1,.207-.167l.14-.051L12.5,0h.542a1.444,1.444,0,0,1,1.132.771l2.854,5.751a1.43,1.43,0,0,0,1.068.783l6.393.927a1.458,1.458,0,0,1,1.171.965,1.4,1.4,0,0,1-.373,1.454Z" transform="translate(0 0)" fill="#fb0"/>
</svg>
