<svg xmlns="http://www.w3.org/2000/svg" width="823.112" height="313.948" viewBox="0 0 823.112 313.948">
  <g id="Group_49" data-name="Group 49" transform="translate(-554.474 -230.466)">
    <g id="undraw_page_not_found_su7k" transform="translate(604.135 74.984)">
      <path id="Path_763" data-name="Path 763" d="M528.022,324.894c-53.663,0-92.193,34.429-92.193,114.763,0,91.045,38.53,115.146,92.193,115.146s94.488-26.4,94.488-115.146C622.51,344.787,581.685,324.894,528.022,324.894Zm.353,199.687c-37.168,0-56.587-21.806-56.587-84.866,0-55.641,20.213-84.984,57.381-84.984s57.381,19.274,57.381,84.984c0,61.471-21.008,84.866-58.176,84.866Z" transform="translate(-182.485 -162.027)" fill="#c200bc"/>
      <path id="Path_764" data-name="Path 764" d="M284.264,496.734H262.077V431.4a13.085,13.085,0,0,0-13.085-13.085h-5.2A13.085,13.085,0,0,0,230.708,431.4v65.336H168.125a7.47,7.47,0,0,1-6.6-10.959l66.237-125.366a13.085,13.085,0,0,0-5.982-17.945l-3.91-1.846a13.085,13.085,0,0,0-17.127,5.663L119.954,497.405a17.743,17.743,0,0,0-2.1,8.365h0A17.743,17.743,0,0,0,135.6,523.512h95.108v41.315a15.684,15.684,0,0,0,15.684,15.684h0a15.684,15.684,0,0,0,15.684-15.684V523.512h22.188a13.389,13.389,0,0,0,13.389-13.389h0a13.389,13.389,0,0,0-13.389-13.389Z" transform="translate(-63.054 -167.461)" fill="#9326b4"/>
      <path id="Path_765" data-name="Path 765" d="M942.26,496.734H920.072V431.4a13.085,13.085,0,0,0-13.083-13.085h-5.2A13.085,13.085,0,0,0,888.705,431.4v65.336H826.122a7.47,7.47,0,0,1-6.6-10.959l66.238-125.366a13.085,13.085,0,0,0-5.982-17.945l-3.91-1.846a13.085,13.085,0,0,0-17.127,5.663L777.951,497.405a17.742,17.742,0,0,0-2.1,8.365h0A17.743,17.743,0,0,0,793.6,523.512H888.7v41.315a15.684,15.684,0,0,0,15.684,15.684h0a15.684,15.684,0,0,0,15.684-15.684V523.512h22.188a13.389,13.389,0,0,0,13.389-13.389h0a13.389,13.389,0,0,0-13.39-13.389Z" transform="translate(-310.2 -167.461)" fill="#9326b4"/>
      <path id="Path_766" data-name="Path 766" d="M294.067,484.482H271.88V419.145A13.085,13.085,0,0,0,258.8,406.06h-5.2a13.085,13.085,0,0,0-13.085,13.085v65.336H177.928a7.47,7.47,0,0,1-6.6-10.959l66.238-125.366a13.085,13.085,0,0,0-5.982-17.944l-3.91-1.846a13.085,13.085,0,0,0-17.127,5.663L129.757,485.152a17.743,17.743,0,0,0-2.1,8.365h0A17.743,17.743,0,0,0,145.4,511.259h95.107v41.315a15.684,15.684,0,0,0,15.684,15.684h0a15.684,15.684,0,0,0,15.684-15.684V511.259h22.188a13.389,13.389,0,0,0,13.389-13.389h0a13.389,13.389,0,0,0-13.388-13.389Z" transform="translate(-66.736 -162.859)" fill="none" stroke="#565656" stroke-miterlimit="10" stroke-width="1"/>
      <path id="Path_767" data-name="Path 767" d="M960.64,484.482H938.452V419.145a13.085,13.085,0,0,0-13.085-13.085h-5.2a13.085,13.085,0,0,0-13.085,13.085v65.336H844.5a7.47,7.47,0,0,1-6.6-10.959l66.238-125.366a13.085,13.085,0,0,0-5.982-17.944l-3.91-1.846a13.085,13.085,0,0,0-17.127,5.663L796.33,485.152a17.743,17.743,0,0,0-2.1,8.365h0a17.743,17.743,0,0,0,17.743,17.743h95.108v41.315a15.684,15.684,0,0,0,15.684,15.684h0a15.684,15.684,0,0,0,15.684-15.684V511.259H960.64a13.389,13.389,0,0,0,13.389-13.389h0a13.389,13.389,0,0,0-13.39-13.389Z" transform="translate(-317.103 -162.859)" fill="none" stroke="#565656" stroke-miterlimit="10" stroke-width="1"/>
      <path id="Path_768" data-name="Path 768" d="M547.627,313.866c-53.663,0-92.193,34.429-92.193,114.763,0,91.045,38.53,115.146,92.193,115.146s94.488-26.4,94.488-115.146C642.115,333.759,601.29,313.866,547.627,313.866Zm.353,199.687c-37.168,0-56.586-21.806-56.586-84.866,0-55.641,20.213-84.984,57.381-84.984s57.381,19.274,57.381,84.984c0,61.471-21.008,84.866-58.176,84.866Z" transform="translate(-189.849 -157.885)" fill="none" stroke="#565656" stroke-miterlimit="10" stroke-width="1"/>
    </g>
    <g id="undraw_stars_re_6je7" transform="translate(597.919 -16.698)">
      <ellipse id="Ellipse_54" data-name="Ellipse 54" cx="2.084" cy="2.163" rx="2.084" ry="2.163" transform="translate(215.004 541.785)" fill="#fff"/>
      <ellipse id="Ellipse_57" data-name="Ellipse 57" cx="16.846" cy="17.483" rx="16.846" ry="17.483" transform="translate(31.361 339)" fill="#909090"/>
      <ellipse id="Ellipse_58" data-name="Ellipse 58" cx="2.084" cy="2.163" rx="2.084" ry="2.163" transform="translate(255.473 433.786)" fill="#fff"/>
      <ellipse id="Ellipse_60" data-name="Ellipse 60" cx="2.084" cy="2.163" rx="2.084" ry="2.163" transform="translate(343.156 556.785)" fill="#fff"/>
      <ellipse id="Ellipse_63" data-name="Ellipse 63" cx="2.084" cy="2.163" rx="2.084" ry="2.163" transform="translate(283.685 478.431)" fill="#fff"/>
      <ellipse id="Ellipse_64" data-name="Ellipse 64" cx="2.084" cy="2.163" rx="2.084" ry="2.163" transform="translate(527.462 492.431)" fill="#fff"/>
      <path id="Path_874" data-name="Path 874" d="M864.483,667.9q-18.662,0-40.909-1.464c-76.712-5.056-176.076-22.633-279.79-49.492S344.4,557.148,274.391,524.208c-34.1-16.047-60.276-31.236-77.792-45.147-18.545-14.727-26.657-27.564-24.112-38.153,4.96-20.629,48.882-25.142,84.854-25.3l.012,3c-49.4.21-78.542,8.387-82.061,23.022-4.482,18.64,32.073,47.741,100.293,79.841,69.853,32.868,165.349,65.739,268.9,92.557S747.215,658.4,823.758,663.44c74.75,4.928,120.2-2.937,124.678-21.578,3.721-15.477-20.811-38.275-69.076-64.2L880.688,575c35.07,18.836,75.778,45.852,70.552,67.589-2.546,10.589-15.518,17.965-38.556,21.923C899.551,666.767,883.421,667.9,864.483,667.9Z" transform="translate(-172.03 -134.967)" fill="#909090"/>
      <path id="Path_881" data-name="Path 881" d="M403.855,704.323c-34.3,0-66.19-1.221-94.738-3.686-37.315-3.223-66.884-8.4-87.885-15.4C199,677.836,187.2,668.574,186.17,657.713c-2.007-21.158,37.9-40.725,71.731-53.413l.982,2.822c-46.459,17.424-71.261,35.286-69.837,50.3,1.813,19.119,45.664,33.781,120.31,40.227,76.433,6.6,177.02,4.262,283.231-6.59S797.9,662.151,871.622,640.212c72-21.426,112.258-44.68,110.445-63.8-1.506-15.874-31.992-28.793-85.844-36.379l.389-2.973c39.13,5.512,86.218,16.762,88.332,39.058,1.03,10.861-8.8,22.332-29.217,34.094-19.285,11.109-47.313,22.173-83.307,32.883-73.89,21.988-173.168,40.081-279.549,50.948C526.137,700.86,461.594,704.323,403.855,704.323Z" transform="translate(-229.543 -186.906)" fill="#909090"/>
      <ellipse id="Ellipse_72" data-name="Ellipse 72" cx="16.846" cy="17.483" rx="16.846" ry="17.483" transform="translate(715.046 350.155)" fill="#909090"/>
    </g>
  </g>
</svg>
