<svg width="42" height="34" viewBox="0 0 42 34" fill="none" xmlns="http://www.w3.org/2000/svg">
<g opacity="0.75">
<path d="M5.52245 12.1011C4.16126 12.1011 3.00464 12.5772 2.05181 13.53C1.09942 14.4824 0.623047 15.639 0.623047 17.0002C0.623047 18.3607 1.09942 19.5181 2.05217 20.4706C3.00491 21.423 4.16179 21.8992 5.52281 21.8992C6.88355 21.8992 8.04025 21.423 8.99309 20.4706C9.94557 19.5182 10.4219 18.3609 10.4219 17.0002C10.4219 15.639 9.94557 14.4824 8.99282 13.5299C8.04025 12.5775 6.88346 12.1011 5.52245 12.1011Z" fill="black"/>
<path d="M5.52245 0.663391C4.16126 0.663391 3.00464 1.13976 2.05181 2.09224C1.09942 3.04499 0.623047 4.2016 0.623047 5.56253C0.623047 6.92363 1.09915 8.08033 2.05181 9.03308C3.00455 9.98556 4.16143 10.4617 5.52245 10.4617C6.8832 10.4617 8.0399 9.98547 8.99273 9.03308C9.94521 8.08033 10.4216 6.92354 10.4216 5.56253C10.4216 4.2016 9.94521 3.04499 8.99273 2.09224C8.04034 1.13976 6.88364 0.663391 5.52245 0.663391Z" fill="black"/>
<path d="M5.52245 23.5385C4.16126 23.5385 3.00429 24.0145 2.05181 24.9669C1.09942 25.9199 0.623047 27.0767 0.623047 28.4372C0.623047 29.7988 1.09915 30.955 2.05181 31.908C3.00455 32.8604 4.16143 33.3366 5.52245 33.3366C6.8832 33.3366 8.0399 32.8604 8.99273 31.908C9.94521 30.955 10.4216 29.7988 10.4216 28.4372C10.4216 27.0766 9.94521 25.9193 8.99273 24.9669C8.04034 24.0145 6.88364 23.5385 5.52245 23.5385Z" fill="black"/>
<path d="M41.1635 2.53863C41.0202 2.37749 40.8514 2.2966 40.6556 2.2966H13.2199C13.0245 2.2966 12.8552 2.37722 12.7124 2.53863C12.5696 2.70058 12.498 2.89158 12.498 3.11269V8.01236C12.498 8.23357 12.5696 8.42448 12.7124 8.58651C12.8553 8.74784 13.0246 8.82854 13.2199 8.82854H40.6556C40.8514 8.82854 41.0203 8.74811 41.1635 8.58651C41.3065 8.42457 41.3776 8.23357 41.3776 8.01236V3.11278C41.3775 2.89166 41.3062 2.70031 41.1635 2.53863Z" fill="black"/>
<path d="M40.6556 13.7339H13.2199C13.0245 13.7339 12.8552 13.8144 12.7124 13.9763C12.5696 14.1378 12.498 14.3293 12.498 14.5504V19.4499C12.498 19.6708 12.5696 19.8622 12.7124 20.0238C12.8553 20.1858 13.0246 20.2663 13.2199 20.2663H40.6556C40.8514 20.2663 41.0203 20.1859 41.1635 20.0238C41.3065 19.8622 41.3776 19.6708 41.3776 19.4499V14.5504C41.3776 14.3293 41.3063 14.1375 41.1635 13.9763C41.0201 13.8147 40.8513 13.7339 40.6556 13.7339Z" fill="black"/>
<path d="M40.6556 25.1711H13.2199C13.0245 25.1711 12.8552 25.2518 12.7124 25.4137C12.5696 25.5754 12.498 25.7666 12.498 25.9875V30.8869C12.498 31.1084 12.5696 31.2995 12.7124 31.4614C12.8553 31.6229 13.0246 31.7033 13.2199 31.7033H40.6556C40.8514 31.7033 41.0203 31.6229 41.1635 31.4614C41.3065 31.2995 41.3776 31.1084 41.3776 30.8869V25.9875C41.3776 25.7666 41.3063 25.5748 41.1635 25.4137C41.0201 25.2524 40.8513 25.1711 40.6556 25.1711Z" fill="black"/>
</g>
</svg>
