<svg xmlns="http://www.w3.org/2000/svg" width="1179.428" height="707.373" viewBox="-4736 7457 1179.428 707.373"><g data-name="CompositeLayer"><path d="m-3721.145 7935.33-2.84 1.093a3.965 3.965 0 0 1-1.014-5.574l-5.25-.246a39.637 39.637 0 0 1 59.174-4.77c.239-.822 2.844.78 3.908 2.403.357-1.34 2.8 5.135 3.664 9.712.4-1.524 1.938.936.59 3.296.854-.124 1.24 2.06.579 3.277.934-.439.776 2.168-.236 3.91 1.332-.118-.114 27.332-20.114 25.332-1.392-6.397-1-6-2.64-14.226-.763-.81-1.598-1.548-2.433-2.285l-4.512-3.983c-5.248-4.632-10.02-10.348-17.011-12.08-4.804-1.19-7.842-1.458-5.224-6.871-2.365.987-4.574 2.455-6.96 3.372.031-.757.365-1.604.319-2.36Z" fill="#2f2e41" fill-rule="evenodd" data-name="Path 405"/><g data-name="پپپپپپ"><path d="M-3731.31 7971.305a9.75 9.75 0 1 0-19.407 1.282l-28.015 36.686a13.582 13.582 0 0 0 1.836 14.914l2.198 2.564 10.083-2.017 11.428-10.083-1.345-11.428 14.117-22.183-.019-.016a9.743 9.743 0 0 0 9.124-9.719Z" fill="#ffb8b8" fill-rule="evenodd" data-name="Path 394"/><path d="m-3925.04 8150.658-4.572-16.984 63.332-25.719 6.749 25.066-65.508 17.637Z" fill="#ffb8b8" fill-rule="evenodd" data-name="Path 395"/><path d="m-3940.336 8159.422-14.744-54.762.693-.186c11.771-3.17 23.883 3.804 27.054 15.575v.001l9.005 33.447-22.008 5.925Z" fill="#2f2e41" fill-rule="evenodd" data-name="Path 396"/><path d="m-3837.802 8147.944-14.224-10.344 33.13-59.789 20.995 15.267-39.901 54.866Z" fill="#ffb8b8" fill-rule="evenodd" data-name="Path 397"/><path d="m-3844.201 8164.372-45.866-33.356.422-.58c7.17-9.86 20.975-12.04 30.835-4.87l28.014 20.373-13.405 18.433Z" fill="#2f2e41" fill-rule="evenodd" data-name="Path 398"/><path d="m-3716.888 8064.395-35.795-34.773c-6.459-6.274-16.55-6.838-23.668-1.322l-67.586 75.083 6.05 9.41 64.533-43.693 43.694 57.139 41.678-20.839-28.906-41.005Z" fill="#2f2e41" fill-rule="evenodd" data-name="Path 399"/><path d="m-3732.349 8071.789-26.217-2.017-18.986-4.602a9.753 9.753 0 1 0-1.85 12.655l-.002.014 11.427 4.705 49.072 16.806 6.05-4.706-19.494-22.855Z" fill="#ffb8b8" fill-rule="evenodd" data-name="Path 400"/><path d="m-3669.16 8144.39-14.79 9.41h-17.477l-81.338-30.25-118.983 21.511-3.361-25.545 108.9-47.727 95.455 31.594 31.594 41.006Z" fill="#2f2e41" fill-rule="evenodd" data-name="Path 401"/><path d="M-3726.97 7954.722a26.217 26.217 0 1 1 0 .1z" fill="#ffb8b8" fill-rule="evenodd" data-name="Ellipse 209"/><path d="M-3632.921 8059.494c0 15.82-2.493 31.543-7.387 46.589l-1.964 6.04-9.41 43.021-10.084 2.69-7.394-9.412-14.79-10.755-10.754-17.478-9.223-15.367-2.877-4.8-10.083-50.416-38.317-21.511-12.772-2.017 2.689-7.394 11.428-15.461 11.427-1.345 3.361-2.689 2.689 1.345 14.823 5.71 48.057-20.304 7.031 1.15 24.2 20.166a150.5 150.5 0 0 1 9.35 52.238Z" fill="#c200bc" fill-rule="evenodd" data-name="Path 402"/><path d="m-3640.255 8053.64-25.544 16.804-38.128 34.377-2.877-4.799-8.067-40.333h2.017l20.839-38.316 51.76 32.266Z" fill="rgba(0,0,0,0.9 )" fill-rule="evenodd" data-name="Path 403"/><path d="m-3692.015 8017.34-20.84 38.315-12.1 13.445-10.754 2.69 28.905 31.593 41.005-36.972 25.544-16.806-51.76-32.266Z" fill="#c200bc" fill-rule="evenodd" data-name="Path 404"/><path d="m-3721.145 7935.33-2.84 1.093a3.965 3.965 0 0 1-1.014-5.574l-5.25-.246a39.637 39.637 0 0 1 59.174-4.77c.239-.822 2.844.78 3.908 2.403.357-1.34 2.8 5.135 3.664 9.712.4-1.524 1.938.936.59 3.296.854-.124 1.24 2.06.579 3.277.934-.439.776 2.168-.236 3.91 1.332-.118-.114 27.332-20.114 25.332-1.392-6.397-1-6-2.64-14.226-.763-.81-1.598-1.548-2.433-2.285l-4.512-3.983c-5.248-4.632-10.02-10.348-17.011-12.08-4.804-1.19-7.842-1.458-5.224-6.871-2.365.987-4.574 2.455-6.96 3.372.031-.757.365-1.604.319-2.36Z" fill="#2f2e41" fill-rule="evenodd" data-name="Path 405"/><path d="M-3692.352 7957.747a4.706 4.706 0 1 1 0 .1z" fill="#ffb8b8" fill-rule="evenodd" data-name="Ellipse 210"/><path d="m-3908.518 7868.275 1.436-21.562 21.562 1.436-1.436 21.562-21.562-1.436z" fill="#c200bc" fill-rule="evenodd" data-name="Rectangle 170"/><path d="m-3920.994 7858.162 26.183 1.744-1.744 26.183-26.183-1.744 1.744-26.183Zm24.969 2.806-23.906-1.592-1.592 23.906 23.906 1.592 1.592-23.906Z" fill="#909090" fill-rule="evenodd" data-name="Path 406"/><path d="m-3806.355 7787.314 21.128-4.54 4.54 21.128-21.128 4.54-4.54-21.128z" fill="#c200bc" fill-rule="evenodd" data-name="Rectangle 171"/><path d="m-3800.06 7772.541 5.513 25.655-25.656 5.513-5.512-25.655 25.655-5.513Zm4.157 24.78-5.033-23.425-23.424 5.033 5.033 23.425 23.424-5.033Z" fill="#909090" fill-rule="evenodd" data-name="Path 407"/><path d="m-3823.202 7899.011 15.772-14.773 14.773 15.772-15.772 14.773-14.773-15.772z" fill="#c200bc" fill-rule="evenodd" data-name="Rectangle 172"/><path d="m-3791.523 7882.028-19.152 17.938-17.939-19.152 19.152-17.938 17.939 19.152Zm-19.099 16.326 17.486-16.379-16.378-17.486-17.487 16.379 16.38 17.486Z" fill="#909090" fill-rule="evenodd" data-name="Path 408"/></g><path d="M-4736 7506.2V8039s443.383 166.33 672.4 62.4c121.593-57.97-18.465-103.57 33.6-240 70.56-184.894 614.9-279.2 438.4-368-176.5-88.8-1144.4 12.8-1144.4 12.8Z" fill="rgba(162,0,156,0.1 )" fill-rule="evenodd" data-name="Path 409"/></g></svg>