<svg xmlns="http://www.w3.org/2000/svg" width="322.159" height="391.831" viewBox="0 0 322.159 391.831">
  <g id="پپپپپپ" transform="translate(0 -44.851)">
    <path id="Path_394" data-name="Path 394" d="M314.028,475.274a9.751,9.751,0,1,0-19.407,1.282l-28.014,36.686a13.582,13.582,0,0,0,1.836,14.914l2.2,2.564,10.083-2.017,11.428-10.083-1.345-11.428,14.117-22.183-.018-.016a9.743,9.743,0,0,0,9.124-9.719Z" transform="translate(-90.258 -231.659)" fill="#ffb9b9"/>
    <path id="Path_395" data-name="Path 395" d="M30.041,422.968l-4.573-16.984L88.8,380.265l6.749,25.066Z" fill="#ffb8b8"/>
    <path id="Path_396" data-name="Path 396" d="M105,663.391,90.258,608.629l.693-.187A22.075,22.075,0,0,1,118,624.018h0l9.005,33.447Z" transform="translate(-90.258 -231.659)" fill="#2f2e41"/>
    <path id="Path_397" data-name="Path 397" d="M117.278,420.254,103.054,409.91l33.131-59.789,20.994,15.267Z" fill="#ffb8b8"/>
    <path id="Path_398" data-name="Path 398" d="M201.137,668.341l-45.866-33.356.422-.58a22.075,22.075,0,0,1,30.835-4.87h0l28.013,20.373Z" transform="translate(-90.258 -231.659)" fill="#2f2e41"/>
    <path id="Path_399" data-name="Path 399" d="M328.45,568.364l-35.795-34.773a18.076,18.076,0,0,0-23.668-1.322L201.4,607.352l6.05,9.411,64.533-43.694,43.694,57.139,41.678-20.838Z" transform="translate(-90.258 -231.659)" fill="#2f2e41"/>
    <path id="Path_400" data-name="Path 400" d="M312.989,575.758l-26.217-2.017-18.986-4.6a9.753,9.753,0,1,0-1.85,12.656l0,.014,11.428,4.706,49.072,16.805,6.05-4.706Z" transform="translate(-90.258 -231.659)" fill="#ffb9b9"/>
    <path id="Path_401" data-name="Path 401" d="M285.92,416.7l-14.789,9.411H253.653l-81.338-30.25L53.332,417.371l-3.361-25.545,108.9-47.727,95.455,31.594Z" fill="#2f2e41"/>
    <circle id="Ellipse_209" data-name="Ellipse 209" cx="26.217" cy="26.217" r="26.217" transform="translate(228.109 200.915)" fill="#ffb9b9"/>
    <path id="Path_402" data-name="Path 402" d="M412.417,563.463a150.628,150.628,0,0,1-7.387,46.589l-1.964,6.039-9.411,43.022L383.572,661.8l-7.394-9.411-14.789-10.755-10.755-17.478-9.223-15.367-2.877-4.8-10.083-50.417-38.316-21.511-12.772-2.017,2.689-7.394,11.428-15.461,11.427-1.345,3.361-2.689,2.689,1.344,14.823,5.71,48.057-20.3,7.031,1.15,24.2,20.167A150.5,150.5,0,0,1,412.417,563.463Z" transform="translate(-90.258 -231.659)" fill="#b325ab"/>
    <path id="Path_403" data-name="Path 403" d="M314.825,325.949l-25.544,16.8-38.128,34.377-2.877-4.8L240.209,332h2.017l20.839-38.316Z" opacity="0.1"/>
    <path id="Path_404" data-name="Path 404" d="M263.065,289.649l-20.839,38.316-12.1,13.445L219.371,344.1l28.9,31.594,41.005-36.972,25.544-16.806Z" fill="#b325ab"/>
    <path id="Path_405" data-name="Path 405" d="M324.193,439.3l-2.841,1.093a3.965,3.965,0,0,1-1.06-5.507l.047-.067-5.249-.246a39.637,39.637,0,0,1,59.173-4.769c.239-.823,2.844.778,3.908,2.4.357-1.339,2.8,5.135,3.664,9.712.4-1.524,1.938.936.591,3.3.854-.125,1.239,2.059.578,3.276.934-.439.777,2.169-.236,3.911,1.333-.118-.114,27.331-20.114,25.331-1.392-6.4-1-6-2.64-14.226-.763-.81-1.6-1.548-2.433-2.284l-4.513-3.983c-5.247-4.632-10.021-10.348-17.011-12.079-4.8-1.19-7.841-1.458-5.223-6.872-2.365.987-4.574,2.455-6.961,3.372C323.9,440.9,324.239,440.055,324.193,439.3Z" transform="translate(-90.258 -231.659)" fill="#2f2e41"/>
    <circle id="Ellipse_210" data-name="Ellipse 210" cx="4.706" cy="4.706" r="4.706" transform="translate(262.728 225.451)" fill="#ffb9b9"/>
    <rect id="Rectangle_170" data-name="Rectangle 170" width="21.61" height="21.61" transform="translate(46.562 140.585) rotate(-86.19)" fill="#b325ab"/>
    <path id="Path_406" data-name="Path 406" d="M124.344,362.131l26.183,1.744-1.744,26.183L122.6,388.314Zm24.969,2.806-23.906-1.592-1.592,23.906,23.906,1.592Z" transform="translate(-90.258 -231.659)" fill="#ccc"/>
    <rect id="Rectangle_171" data-name="Rectangle 171" width="21.61" height="21.61" transform="matrix(0.978, -0.21, 0.21, 0.978, 148.725, 59.624)" fill="#b325ab"/>
    <path id="Path_407" data-name="Path 407" d="M245.278,276.51l5.513,25.655-25.655,5.513-5.513-25.655Zm4.157,24.78L244.4,277.865,220.978,282.9l5.033,23.424Z" transform="translate(-90.258 -231.659)" fill="#ccc"/>
    <rect id="Rectangle_172" data-name="Rectangle 172" width="21.61" height="21.61" transform="matrix(0.73, -0.684, 0.684, 0.73, 131.878, 171.321)" fill="#b325ab"/>
    <path id="Path_408" data-name="Path 408" d="M253.815,386l-19.152,17.938-17.939-19.152,19.152-17.939Zm-19.1,16.326L252.2,385.944l-16.379-17.486-17.486,16.379Z" transform="translate(-90.258 -231.659)" fill="#ccc"/>
  </g>
</svg>
