<svg id="_instagram" data-name=")instagram" xmlns="http://www.w3.org/2000/svg" width="40.2" height="50.964" viewBox="0 0 40.2 50.964">
  <path id="Path_610" data-name="Path 610" d="M0,50.964V0H40.2V50.964Z" fill="none"/>
  <g id="Group_44" data-name="Group 44" transform="translate(0 5.406)">
    <path id="Path_611" data-name="Path 611" d="M32.611,21.5A11.112,11.112,0,0,0,21.5,32.611V50.389A11.112,11.112,0,0,0,32.611,61.5H50.389A11.112,11.112,0,0,0,61.5,50.389V32.611A11.112,11.112,0,0,0,50.389,21.5Zm22.222,4.444a2.222,2.222,0,1,1-2.222,2.222,2.223,2.223,0,0,1,2.222-2.222ZM41.5,30.389A11.111,11.111,0,1,1,30.389,41.5,11.112,11.112,0,0,1,41.5,30.389Zm0,4.444A6.667,6.667,0,1,0,48.167,41.5,6.667,6.667,0,0,0,41.5,34.833Z" transform="translate(-21.5 -21.5)" fill="#5a0ba9"/>
  </g>
</svg>
