<svg width="41" height="52" viewBox="0 0 41 52" fill="none" xmlns="http://www.w3.org/2000/svg">
<path d="M11.4353 6.36523C5.29976 6.36523 0.324219 11.3408 0.324219 17.4763V35.2541C0.324219 41.3897 5.29979 46.3652 11.4353 46.3652H29.2131C35.3487 46.3652 40.3242 41.3897 40.3242 35.2541V17.4763C40.3242 11.3408 35.3486 6.36524 29.2131 6.36524L11.4353 6.36523ZM33.6576 10.8097C34.8842 10.8097 35.8798 11.8052 35.8798 13.0319C35.8798 14.2586 34.8842 15.2541 33.6576 15.2541C32.4309 15.2541 31.4353 14.2586 31.4353 13.0319C31.4353 11.8052 32.4309 10.8097 33.6576 10.8097ZM20.3242 15.2541C26.4598 15.2541 31.4353 20.2297 31.4353 26.3652C31.4353 32.5008 26.4598 37.4764 20.3242 37.4764C14.1887 37.4764 9.21312 32.5008 9.21312 26.3652C9.21312 20.2297 14.1887 15.2541 20.3242 15.2541ZM20.3242 19.6986C16.6423 19.6986 13.6576 22.6833 13.6576 26.3652C13.6576 30.0471 16.6423 33.0319 20.3242 33.0319C24.0061 33.0319 26.9909 30.0471 26.9909 26.3652C26.9909 22.6834 24.0061 19.6986 20.3242 19.6986Z" fill="#67008F"/>
</svg>
