<svg width="48" height="54" viewBox="0 0 48 54" fill="none" xmlns="http://www.w3.org/2000/svg">
<path d="M43.7042 9.31844C42.9542 8.68244 41.7762 8.59144 40.5582 9.08044H40.5562C39.2752 9.59444 4.29506 24.5985 2.87122 25.2115C2.61222 25.3015 0.350214 26.1455 0.583215 28.0255C0.791215 29.7205 2.60922 30.4225 2.83122 30.5035L11.7242 33.5485C12.3142 35.5125 14.4893 42.7585 14.9702 44.3065C15.2702 45.2715 15.7592 46.5395 16.6162 46.8005C17.3683 47.0905 18.1163 46.8255 18.6003 46.4455L24.0373 41.4025L32.8143 48.2476L33.0233 48.3726C33.6193 48.6366 34.1903 48.7686 34.7353 48.7686C35.1563 48.7686 35.5603 48.6896 35.9463 48.5316C37.2613 47.9916 37.7873 46.7385 37.8423 46.5965L44.3983 12.5194C44.7983 10.6994 44.2422 9.77343 43.7042 9.31844ZM19.5672 34.7665L16.5672 42.7665L13.5672 32.7665L36.5673 15.7665L19.5672 34.7665Z" fill="#67008F"/>
</svg>
