<svg width="50" height="45" viewBox="0 0 50 45" fill="none" xmlns="http://www.w3.org/2000/svg">
<path d="M49.5462 8.97932C47.7032 9.79663 45.8523 10.4136 43.801 10.622C45.8523 9.38797 47.4949 7.33668 48.3122 5.07708C46.2609 6.31105 44.2097 7.12836 41.958 7.54502C39.9068 5.49374 37.2385 4.25977 34.3699 4.25977C28.825 4.25977 24.3138 8.77099 24.3138 14.3078C24.3138 15.1332 24.3138 15.9505 24.5221 16.5675C16.1087 16.1588 8.72889 12.2566 3.80101 6.10272C2.77537 7.54502 2.36671 9.38799 2.36671 11.2309C2.36671 14.7245 4.20966 17.8014 6.87793 19.6444C5.23531 19.436 3.60069 19.0274 2.36671 18.4104C2.36671 18.4104 2.36671 18.4104 2.36671 18.6187C2.36671 23.5386 5.85228 27.6412 10.3635 28.4665C9.54619 28.6668 8.72888 28.8751 7.70325 28.8751C7.08626 28.8751 6.46927 28.8751 5.85228 28.6668C7.08626 32.7694 10.7802 35.646 15.2914 35.646C11.8058 38.3142 7.49493 39.9489 2.77536 39.9489C1.95806 39.9489 1.13274 39.9489 0.31543 39.7485C4.82665 42.6171 10.1632 44.2598 15.7 44.2598C34.3699 44.2598 44.4179 28.8752 44.4179 15.5419C44.4179 15.1333 44.4179 14.7246 44.4179 14.308C46.4692 12.8737 48.1119 11.0306 49.5462 8.97932Z" fill="#67008F"/>
</svg>
