<svg id="youtube" xmlns="http://www.w3.org/2000/svg" width="52.8" height="52.8" viewBox="0 0 52.8 52.8">
  <path id="Path_614" data-name="Path 614" d="M0,52.8V0H52.8V52.8Z" fill="none"/>
  <g id="Group_46" data-name="Group 46" transform="translate(0.467 6.956)">
    <path id="Path_615" data-name="Path 615" d="M35.1,22.933A112.23,112.23,0,0,0,17.613,24.84l-.025.028a7.254,7.254,0,0,0-6.122,7.155v21.82a7.272,7.272,0,0,0,6.139,7.169l.007.011A112.031,112.031,0,0,0,35.1,62.933a112.031,112.031,0,0,0,17.488-1.91l0,0a7.272,7.272,0,0,0,6.143-7.176V32.023A7.272,7.272,0,0,0,52.6,24.851l-.007-.011A112.23,112.23,0,0,0,35.1,22.933ZM29.647,34.566l14.544,8.366L29.647,51.3Z" transform="translate(-11.467 -22.933)" fill="#5a0ba9"/>
  </g>
</svg>
