<svg width="54" height="54" viewBox="0 0 54 54" fill="none" xmlns="http://www.w3.org/2000/svg">
<path d="M24.9839 7.91504C17.3736 7.91504 7.49608 9.82183 7.49608 9.82183L7.47122 9.85024C4.00513 10.4046 1.34961 13.383 1.34961 17.0051V27.9133V27.9168V38.8214V38.8249C1.35659 42.3985 3.95901 45.4374 7.48898 45.994L7.49608 46.0047C7.49608 46.0047 17.3736 47.915 24.9839 47.915C32.5941 47.915 42.4716 46.0047 42.4716 46.0047L42.4752 46.0011C46.0092 45.4457 48.6143 42.4024 48.6181 38.8249V38.8214V27.9168V27.9133V17.0051C48.6129 13.4302 46.01 10.3893 42.4787 9.83248L42.4716 9.82183C42.4716 9.82183 32.5941 7.91504 24.9839 7.91504ZM19.5298 19.5475L34.074 27.9133L19.5298 36.279V19.5475Z" fill="#67008F"/>
</svg>
