<svg id="Group_66" data-name="Group 66" xmlns="http://www.w3.org/2000/svg" width="24.585" height="27.694" viewBox="0 0 24.585 27.694">
  <g id="skills_20_2_" data-name="skills%20(2)" transform="translate(0 1.577)">
    <path id="Path_732" data-name="Path 732" d="M190.077,63.69a.378.378,0,1,0,.535-.535l-1.18-1.179h2.426v9.818a.387.387,0,0,0,.365.4h2.1v-.757h-1.7V61.976h1.514v-.757h-1.514V51.757h1.7V51h-2.1a.385.385,0,0,0-.365.4v9.821H189.3l1.313-1.314a.379.379,0,1,0-.535-.536l-1.892,1.892a.378.378,0,0,0,0,.535Zm0,0" transform="translate(-176.21 -49.612)" fill="#434343"/>
    <path id="Path_733" data-name="Path 733" d="M41.848,29h.04a1.778,1.778,0,0,1,1.778,1.778V31.7a1.778,1.778,0,0,1-1.778,1.778h-.04A1.778,1.778,0,0,1,40.07,31.7v-.923A1.778,1.778,0,0,1,41.848,29Zm0,0" transform="translate(-37.543 -29)" fill="#434343"/>
    <path id="Path_734" data-name="Path 734" d="M0,144.088v4.221a2.035,2.035,0,0,0,.622,1.452l.4.377A2.766,2.766,0,0,1,1.867,152l.326,6.841H6.657L6.985,152a2.77,2.77,0,0,1,.839-1.858l.394-.38a2.035,2.035,0,0,0,.618-1.446v-4.225c0-.013-.007-.025-.006-.038A1.869,1.869,0,0,0,6.958,142H6.8l-.658,1.823a.371.371,0,0,1-.279.236.387.387,0,0,1-.118,0l.491,4.573a.38.38,0,0,1-.109.308l-1.438,1.438a.378.378,0,0,1-.535,0l-1.438-1.438a.377.377,0,0,1-.109-.308l.491-4.572a.379.379,0,0,1-.084,0,.375.375,0,0,1-.317-.255L2.1,142H1.88a1.868,1.868,0,0,0-1.872,2.05c0,.013,0,.025,0,.038Zm0,0" transform="translate(0 -134.872)" fill="#434343"/>
    <path id="Path_735" data-name="Path 735" d="M54.1,154.583l-.566,5.274,1.042,1.042,1.042-1.042-.563-5.237-.506-.538Zm0,0" transform="translate(-50.158 -146.192)" fill="#434343"/>
  </g>
  <g id="Group_62" data-name="Group 62" transform="translate(19.572 10.635)">
    <path id="Path_736" data-name="Path 736" d="M105.547,244.867l.239-.239-.319-2.974-.288-.306-.255.285-.322,3,.239.239q.175.014.354.015T105.547,244.867Zm0,0" transform="translate(-102.687 -237.626)" fill="#434343"/>
    <path id="Path_737" data-name="Path 737" d="M142.883,229.137h-.092l-.374,1.037a.213.213,0,0,1-.226.138l.279,2.6a.213.213,0,0,1-.006.075,4.219,4.219,0,0,0,1.475-.674v-1.983a.207.207,0,0,1,0-.022,1.061,1.061,0,0,0-1.059-1.168Zm0,0" transform="translate(-138.935 -225.851)" fill="#434343"/>
    <path id="Path_738" data-name="Path 738" d="M52.466,232.984a.215.215,0,0,1,0-.074l.279-2.6a.208.208,0,0,1-.048,0,.213.213,0,0,1-.18-.145l-.336-1.031h-.127a1.062,1.062,0,0,0-1.06,1.168.189.189,0,0,1,0,.022v1.983A4.228,4.228,0,0,0,52.466,232.984Zm0,0" transform="translate(-50.983 -225.851)" fill="#434343"/>
    <path id="Path_740" data-name="Path 740" d="M92.155,137.137h.015a1.01,1.01,0,0,1,1.01,1.01v.515a1.01,1.01,0,0,1-1.01,1.01h-.015a1.01,1.01,0,0,1-1.01-1.01v-.515A1.01,1.01,0,0,1,92.155,137.137Zm0,0" transform="translate(-89.711 -137.137)" fill="#434343"/>
  </g>
  <g id="Group_63" data-name="Group 63" transform="translate(19.572)">
    <path id="Path_741" data-name="Path 741" d="M105.547,244.867l.239-.239-.319-2.974-.288-.306-.255.285-.322,3,.239.239q.175.014.354.015T105.547,244.867Zm0,0" transform="translate(-102.687 -237.626)" fill="#434343"/>
    <path id="Path_742" data-name="Path 742" d="M142.883,229.137h-.092l-.374,1.037a.213.213,0,0,1-.226.138l.279,2.6a.213.213,0,0,1-.006.075,4.219,4.219,0,0,0,1.475-.674v-1.983a.207.207,0,0,1,0-.022,1.061,1.061,0,0,0-1.059-1.168Zm0,0" transform="translate(-138.934 -225.851)" fill="#434343"/>
    <path id="Path_743" data-name="Path 743" d="M52.466,232.984a.215.215,0,0,1,0-.074l.279-2.6a.208.208,0,0,1-.048,0,.213.213,0,0,1-.18-.145l-.336-1.031h-.127a1.062,1.062,0,0,0-1.06,1.168.189.189,0,0,1,0,.022v1.983A4.228,4.228,0,0,0,52.466,232.984Zm0,0" transform="translate(-50.983 -225.851)" fill="#434343"/>
    <path id="Path_745" data-name="Path 745" d="M92.155,137.137h.015a1.01,1.01,0,0,1,1.01,1.01v.515a1.01,1.01,0,0,1-1.01,1.01h-.015a1.01,1.01,0,0,1-1.01-1.01v-.515A1.01,1.01,0,0,1,92.155,137.137Zm0,0" transform="translate(-89.711 -137.137)" fill="#434343"/>
  </g>
  <g id="Group_64" data-name="Group 64" transform="translate(19.572 20.438)">
    <path id="Path_746" data-name="Path 746" d="M105.547,244.867l.239-.239-.319-2.974-.288-.306-.255.285-.322,3,.239.239q.175.014.354.015T105.547,244.867Zm0,0" transform="translate(-102.687 -237.626)" fill="#434343"/>
    <path id="Path_747" data-name="Path 747" d="M142.883,229.137h-.092l-.374,1.037a.213.213,0,0,1-.226.138l.279,2.6a.213.213,0,0,1-.006.075,4.219,4.219,0,0,0,1.475-.674v-1.983a.207.207,0,0,1,0-.022,1.061,1.061,0,0,0-1.059-1.168Zm0,0" transform="translate(-138.935 -225.851)" fill="#434343"/>
    <path id="Path_748" data-name="Path 748" d="M52.466,232.984a.215.215,0,0,1,0-.074l.279-2.6a.208.208,0,0,1-.048,0,.213.213,0,0,1-.18-.145l-.336-1.031h-.127a1.062,1.062,0,0,0-1.06,1.168.189.189,0,0,1,0,.022v1.983A4.228,4.228,0,0,0,52.466,232.984Zm0,0" transform="translate(-50.983 -225.851)" fill="#434343"/>
    <path id="Path_750" data-name="Path 750" d="M92.155,137.137h.015a1.01,1.01,0,0,1,1.01,1.01v.515a1.01,1.01,0,0,1-1.01,1.01h-.015a1.01,1.01,0,0,1-1.01-1.01v-.515A1.01,1.01,0,0,1,92.155,137.137Zm0,0" transform="translate(-89.711 -137.137)" fill="#434343"/>
  </g>
</svg>
