<svg id="Group_177" data-name="Group 177" xmlns="http://www.w3.org/2000/svg" width="29.813" height="23.547" viewBox="0 0 29.813 23.547">
  <path id="Path_886" data-name="Path 886" d="M175.246,365.447H146.923a.918.918,0,0,0-.524.149.423.423,0,0,0-.221.351v3a.424.424,0,0,0,.221.352.919.919,0,0,0,.524.148h28.322a.92.92,0,0,0,.524-.148.423.423,0,0,0,.221-.352v-3a.423.423,0,0,0-.221-.351A.921.921,0,0,0,175.246,365.447Z" transform="translate(-146.178 -355.674)" fill="#707070"/>
  <path id="Path_888" data-name="Path 888" d="M175.246,365.447H146.923a.918.918,0,0,0-.524.149.423.423,0,0,0-.221.351v3a.424.424,0,0,0,.221.352.919.919,0,0,0,.524.148h28.322a.92.92,0,0,0,.524-.148.423.423,0,0,0,.221-.352v-3a.423.423,0,0,0-.221-.351A.921.921,0,0,0,175.246,365.447Z" transform="translate(-146.178 -345.9)" fill="#707070"/>
  <path id="Path_887" data-name="Path 887" d="M175.246,365.447H146.923a.918.918,0,0,0-.524.149.423.423,0,0,0-.221.351v3a.424.424,0,0,0,.221.352.919.919,0,0,0,.524.148h28.322a.92.92,0,0,0,.524-.148.423.423,0,0,0,.221-.352v-3a.423.423,0,0,0-.221-.351A.922.922,0,0,0,175.246,365.447Z" transform="translate(-146.178 -365.447)" fill="#707070"/>
</svg>
