<svg id="Group_158" data-name="Group 158" xmlns="http://www.w3.org/2000/svg" width="28.997" height="29.76" viewBox="0 0 28.997 29.76">
  <path id="Path_882" data-name="Path 882" d="M22.084,6.819a1.048,1.048,0,0,1-.053,1.214c-2.879,3.75-7.233,6.854-11.587,6.854A7.443,7.443,0,0,1,10.443,0C14.784,0,19.639,3.085,22.084,6.819Z" transform="translate(0.435)" fill="#707070"/>
  <path id="Path_883" data-name="Path 883" d="M23.348,19.218a.572.572,0,0,1-.81,0l-4.454-4.454a.572.572,0,0,1,0-.81l2.88-2.88a.572.572,0,0,1,.81,0l4.454,4.453a.573.573,0,0,1,0,.81Z" transform="translate(2.6 1.583)" fill="#707070"/>
  <path id="Path_884" data-name="Path 884" d="M10.223,22.808a1.145,1.145,0,0,1,.335-.822l6.7-6.7a.573.573,0,0,1,.81,0l4.454,4.454a.572.572,0,0,1,0,.81l-3.13,3.13L16.169,26.9a1.145,1.145,0,0,1-.759.334l-5.019.221a.115.115,0,0,1-.12-.113Z" transform="translate(1.484 2.194)" fill="#707070"/>
  <path id="Path_885" data-name="Path 885" d="M16.89,15H4.581A4.581,4.581,0,0,0,0,19.581v.361a4.7,4.7,0,0,0,.667,2.537c2.015,3.167,4.992,4.579,9.749,5.1a.115.115,0,0,0,.128-.113V21.79a1.145,1.145,0,0,1,.357-.83L16.969,15.2A.115.115,0,0,0,16.89,15Z" transform="translate(0 2.177)" fill="#707070"/>
</svg>
