<svg xmlns="http://www.w3.org/2000/svg" width="30" height="24.13" viewBox="0 0 30 24.13">
  <path id="XMLID_1456_" d="M19.565,25.859v5.967a1.254,1.254,0,0,1-1.239,1.3H1.3a1.308,1.308,0,0,1-1.3-1.3V10.3A1.308,1.308,0,0,1,1.3,9H18.326a1.254,1.254,0,0,1,1.239,1.3v5.967a1.3,1.3,0,0,1-2.609,0V11.609H2.609V30.522H16.957V25.859a1.3,1.3,0,1,1,2.609,0Zm10.043-5.772-5.087-5.152a1.314,1.314,0,1,0-1.859,1.859l2.9,2.935L9.75,19.761a1.3,1.3,0,0,0,0,2.609h0l15.815-.033-2.9,2.935a1.329,1.329,0,0,0,0,1.859,1.288,1.288,0,0,0,.913.391,1.234,1.234,0,0,0,.913-.391l5.12-5.152A1.338,1.338,0,0,0,29.609,20.087Z" transform="translate(0 -9)" fill="#707070"/>
</svg>
