<svg id="menuu" xmlns="http://www.w3.org/2000/svg" width="29.813" height="23.901" viewBox="0 0 29.813 23.901">
  <g id="Group_55" data-name="Group 55">
    <path id="Path_706" data-name="Path 706" d="M3.652,201a3.521,3.521,0,0,0-2.587,1.065,3.673,3.673,0,0,0,0,5.173A3.522,3.522,0,0,0,3.652,208.3a3.522,3.522,0,0,0,2.586-1.065,3.673,3.673,0,0,0,0-5.173A3.522,3.522,0,0,0,3.652,201Z" transform="translate(0 -192.7)" fill="#707070"/>
    <path id="Path_707" data-name="Path 707" d="M3.655,54.817a3.522,3.522,0,0,0-2.587,1.065,3.674,3.674,0,0,0,0,5.173A3.522,3.522,0,0,0,3.655,62.12a3.522,3.522,0,0,0,2.586-1.065,3.674,3.674,0,0,0,0-5.173A3.521,3.521,0,0,0,3.655,54.817Z" transform="translate(-0.003 -54.817)" fill="#707070"/>
    <path id="Path_708" data-name="Path 708" d="M3.655,347.18a3.522,3.522,0,0,0-2.587,1.065,3.674,3.674,0,0,0,0,5.173,3.522,3.522,0,0,0,2.587,1.065,3.522,3.522,0,0,0,2.586-1.065,3.674,3.674,0,0,0,0-5.173A3.521,3.521,0,0,0,3.655,347.18Z" transform="translate(-0.003 -330.581)" fill="#707070"/>
    <path id="Path_709" data-name="Path 709" d="M167.543,73.272a.491.491,0,0,0-.379-.18H146.716a.49.49,0,0,0-.378.18.626.626,0,0,0-.16.428v3.652a.626.626,0,0,0,.16.428.49.49,0,0,0,.378.18h20.448a.49.49,0,0,0,.379-.18.625.625,0,0,0,.16-.428V73.7A.626.626,0,0,0,167.543,73.272Z" transform="translate(-137.89 -71.875)" fill="#707070"/>
    <path id="Path_710" data-name="Path 710" d="M167.164,219.271H146.716a.489.489,0,0,0-.378.181.625.625,0,0,0-.16.428v3.652a.625.625,0,0,0,.16.428.489.489,0,0,0,.378.181h20.448a.489.489,0,0,0,.379-.181.624.624,0,0,0,.16-.428V219.88a.624.624,0,0,0-.16-.428A.49.49,0,0,0,167.164,219.271Z" transform="translate(-137.89 -209.755)" fill="#707070"/>
    <path id="Path_711" data-name="Path 711" d="M167.164,365.447H146.716a.489.489,0,0,0-.378.181.625.625,0,0,0-.16.428v3.652a.626.626,0,0,0,.16.428.49.49,0,0,0,.378.18h20.448a.49.49,0,0,0,.379-.18.625.625,0,0,0,.16-.428v-3.652a.624.624,0,0,0-.16-.428A.491.491,0,0,0,167.164,365.447Z" transform="translate(-137.89 -347.632)" fill="#707070"/>
  </g>
</svg>
