<svg xmlns="http://www.w3.org/2000/svg" width="29.813" height="29.813" viewBox="0 0 29.813 29.813">
  <path id="icons8-home" d="M15.906,2a1.27,1.27,0,0,0-.963.466L1.275,16.275A.831.831,0,0,0,1,16.906a.737.737,0,0,0,.678.785H5.065V30.244a1.474,1.474,0,0,0,1.355,1.569h5.421A1.474,1.474,0,0,0,13.2,30.244V20.829h5.421v9.415a1.474,1.474,0,0,0,1.355,1.569h5.421a1.474,1.474,0,0,0,1.355-1.569V17.691h3.388a.737.737,0,0,0,.678-.785.831.831,0,0,0-.275-.631l-13.66-13.8-.008-.009A1.27,1.27,0,0,0,15.906,2Z" transform="translate(-1 -2)" fill="#707070"/>
</svg>
