<svg width="36" height="36" viewBox="0 0 36 36" fill="none" xmlns="http://www.w3.org/2000/svg">
<path d="M11.2758 28.4272C9.33613 28.4272 7.78264 29.9898 7.78264 31.9191C7.78264 33.8483 9.33613 35.411 11.2758 35.411C13.2155 35.411 14.7865 33.8483 14.7865 31.9191C14.7865 29.9898 13.2155 28.4272 11.2758 28.4272ZM0.743652 0.491913V3.98382H4.25437L10.5649 17.2269L8.19515 21.5044C7.92307 22.0108 7.76508 22.5782 7.76508 23.1893C7.76508 25.1186 9.33613 26.6812 11.2758 26.6812H32.3401V23.1893H12.0218C11.7761 23.1893 11.583 22.9972 11.583 22.7528C11.583 22.6742 11.6005 22.6044 11.6356 22.5433L13.2067 19.6974H26.2841C27.6006 19.6974 28.7504 18.9728 29.356 17.8991L35.6314 6.56783C35.7718 6.3234 35.8508 6.03531 35.8508 5.72977C35.8508 4.76077 35.0609 3.98382 34.0954 3.98382H8.14248L6.4749 0.491913L0.743652 0.491913ZM28.8294 28.4272C26.8897 28.4272 25.3362 29.9898 25.3362 31.9191C25.3362 33.8483 26.8897 35.411 28.8294 35.411C30.769 35.411 32.3401 33.8483 32.3401 31.9191C32.3401 29.9898 30.769 28.4272 28.8294 28.4272Z" fill="#722EB4"/>
</svg>
