<svg width="36" height="36" viewBox="0 0 36 36" fill="none" xmlns="http://www.w3.org/2000/svg">
<path d="M14.6458 0.75C6.9884 0.75 0.75 6.9884 0.75 14.6458C0.75 22.3032 6.9884 28.5416 14.6458 28.5416C17.9582 28.5416 21.0031 27.3716 23.3944 25.4271L32.7961 34.8289C33.1567 35.2044 33.6921 35.3556 34.1958 35.2243C34.6996 35.093 35.093 34.6996 35.2243 34.1958C35.3556 33.6921 35.2044 33.1567 34.8289 32.7961L25.4271 23.3944C27.3716 21.0031 28.5416 17.9582 28.5416 14.6458C28.5416 6.9884 22.3032 0.75 14.6458 0.75ZM14.6458 3.625C20.7495 3.625 25.6666 8.54216 25.6666 14.6458C25.6666 17.6192 24.4938 20.3055 22.5914 22.2844C22.4741 22.3706 22.3706 22.4741 22.2844 22.5914C20.3055 24.4939 17.6191 25.6667 14.6458 25.6667C8.54213 25.6667 3.62498 20.7495 3.62498 14.6458C3.62498 8.54218 8.54216 3.625 14.6458 3.625Z" fill="#5A0BA9"/>
</svg>
