<svg xmlns="http://www.w3.org/2000/svg" width="30" height="30" viewBox="1685 622 30 30"><path d="m1700.797 646.644-.797.889-.797-.889a71.704 71.704 0 0 1-4.359-5.458 46.535 46.535 0 0 1-2.089-3.146c-1.536-2.552-2.398-4.695-2.398-6.397A9.643 9.643 0 0 1 1700 622a9.643 9.643 0 0 1 9.643 9.643c0 1.702-.862 3.845-2.398 6.397a46.535 46.535 0 0 1-2.09 3.146 71.707 71.707 0 0 1-4.358 5.458Zm-.283-2.966a69.587 69.587 0 0 0 2.902-3.743 44.432 44.432 0 0 0 1.992-3c1.35-2.242 2.092-4.087 2.092-5.292a7.5 7.5 0 1 0-15 0c0 1.205.742 3.05 2.091 5.293a44.437 44.437 0 0 0 1.993 3 69.591 69.591 0 0 0 3.416 4.356c.164-.193.336-.399.514-.614Zm11.033-3.821h-.833a1.071 1.071 0 0 1 0-2.143h1.786c.543 0 1 .407 1.064.947l1.429 12.142a1.071 1.071 0 0 1-1.065 1.197h-27.856a1.072 1.072 0 0 1-1.065-1.197l1.429-12.142c.063-.54.52-.947 1.064-.947h1.786a1.071 1.071 0 1 1 0 2.143h-.833l-1.176 10h25.446l-1.176-10ZM1700 635.214a3.929 3.929 0 1 1 0-7.857 3.929 3.929 0 0 1 0 7.857Zm0-2.143a1.786 1.786 0 1 0 0-3.571 1.786 1.786 0 0 0 0 3.571Z" fill="#67008f" fill-rule="evenodd" data-name="map-112"/></svg>