<svg xmlns="http://www.w3.org/2000/svg" width="30" height="31.434" viewBox="1687 251 30 31.434"><path d="M1693.042 264.613c2.409 4.953 6.254 8.98 10.983 11.5l3.667-3.851a1.618 1.618 0 0 1 1.691-.428c1.867.646 3.875.995 5.95.995.925 0 1.667.778 1.667 1.747v6.112c0 .97-.742 1.746-1.667 1.746-15.65 0-28.333-13.29-28.333-29.688 0-.964.746-1.746 1.667-1.746h5.833c.925 0 1.667.777 1.667 1.746 0 2.175.333 4.279.95 6.235.183.602.05 1.292-.409 1.772l-3.666 3.86Z" fill="#67008f" fill-rule="evenodd" data-name="phone-80"/></svg>