<svg width="351" height="209" viewBox="0 0 351 209" fill="none" xmlns="http://www.w3.org/2000/svg">
<path opacity="0.1" d="M142.546 166.889C142.391 168.327 142.151 169.755 141.827 171.165H177.857V166.889H142.546ZM112.457 191.041L116.729 191.006V180.443C115.264 180.378 113.837 180.312 112.457 180.243V191.041ZM22.8927 166.889V171.165H99.2211V166.889H22.8927ZM349.617 36.3347H321.162V2.69257C319.79 2.13628 318.365 1.6236 316.886 1.15446V36.3347H219.393V0.796875C217.959 1.07759 216.536 1.37367 215.117 1.67358V36.3347H116.729V19.8578C115.31 19.8155 113.883 19.7463 112.457 19.654V36.3347H14.0678V12.4941C4.52003 18.3235 -4.44328 26.5216 -12.4375 36.3347H-12.4645V36.3654C-13.5924 37.7497 -14.6999 39.1596 -15.7868 40.5952H-12.4645V166.889H-44.3801C-43.9546 168.332 -43.4931 169.757 -42.9958 171.165H-12.4683V207.164C-10.9324 207.634 -9.36457 207.992 -7.7771 208.237C-7.31184 208.31 -6.84271 208.371 -6.37362 208.425C-4.99613 208.579 -3.61053 208.648 -2.22454 208.633L14.0524 208.456V171.157H112.457V207.383L116.729 207.337V171.165H215.117V206.295L219.393 206.249V171.165H316.867V172.999C317.159 172.391 317.459 171.784 317.759 171.165C318.433 169.767 319.116 168.342 319.808 166.889C320.252 165.955 320.696 165.007 321.143 164.043V40.6106H350.528C350.269 39.1519 349.965 37.7267 349.617 36.3347ZM14.0678 166.889V40.5952H112.457V166.889H14.0678ZM116.736 166.889V40.5952H215.117V166.889H116.736ZM316.874 166.889H219.393V40.5952H316.867L316.874 166.889Z" fill="black"/>
<path d="M283.309 200.742V205.741L224.892 206.279L224.269 206.291L202.066 206.495L201.536 206.502L194.787 206.56H194.587L153.451 206.941L85.9242 207.568H85.8665L68.6974 207.729L68.5129 207.733L-7.7771 208.433V202.665L10.1611 191.898L46.1527 191.598L46.9217 191.594L47.1755 191.59L47.9446 191.579L65.2252 191.437L65.9981 191.433L66.2442 191.429L67.0132 191.425L72.5542 191.379L72.7003 191.375L86.3703 191.26H86.4818L193.149 190.36L195.76 190.341H196.022L198.014 190.322L212.491 190.202L213.26 190.191L213.971 190.183H214.34L218.843 190.148L219.735 190.137L220.931 190.129L224.68 190.095L230.629 190.045L231.398 190.037L232.736 190.029H232.986L261.714 189.783L283.309 200.742Z" fill="#65617D"/>
<path opacity="0.2" d="M283.309 200.742V205.741L224.892 206.279L224.269 206.291L202.066 206.495L201.536 206.502L194.787 206.56H194.587L153.451 206.941L85.9242 207.568H85.8665L68.6974 207.729L68.5129 207.733L-7.7771 208.433V202.665L10.1611 191.898L46.1527 191.598L46.9217 191.594L47.1755 191.59L47.9446 191.579L65.2252 191.437L65.9981 191.433L66.2442 191.429L67.0132 191.425L72.5542 191.379L72.7003 191.375L86.3703 191.26H86.4818L193.149 190.36L195.76 190.341H196.022L198.014 190.322L212.491 190.202L213.26 190.191L213.971 190.183H214.34L218.843 190.148L219.735 190.137L220.931 190.129L224.68 190.095L230.629 190.045L231.398 190.037L232.736 190.029H232.986L261.714 189.783L283.309 200.742Z" fill="black"/>
<path d="M65.2867 181.52V190.937C65.2871 191.847 64.7632 192.676 63.9409 193.067C63.6408 193.212 63.3129 193.291 62.9796 193.297L49.5596 193.582C49.2012 193.591 48.8457 193.516 48.5214 193.363C47.6841 192.979 47.1476 192.142 47.1487 191.221V181.52H65.2867Z" fill="#3F3D56"/>
<path opacity="0.1" d="M65.2867 181.52V190.937C65.2871 191.847 64.7632 192.676 63.9409 193.067C63.6408 193.212 63.3129 193.291 62.9796 193.297L49.5596 193.582C49.2012 193.591 48.8457 193.516 48.5214 193.363C47.6841 192.979 47.1476 192.142 47.1487 191.221V181.52H65.2867Z" fill="black"/>
<path d="M66.0558 181.52V190.937C66.0562 191.847 65.5323 192.676 64.71 193.067C64.41 193.212 64.082 193.291 63.7487 193.297L50.3287 193.582C49.9704 193.591 49.6148 193.516 49.2905 193.363C48.4532 192.979 47.9168 192.142 47.9177 191.221V181.52H66.0558Z" fill="#3F3D56"/>
<rect x="213.26" y="181.516" width="18.1381" height="12.1125" fill="#3F3D56"/>
<rect opacity="0.1" x="213.26" y="181.516" width="18.1381" height="12.1125" fill="black"/>
<rect x="212.491" y="181.516" width="18.1381" height="12.1125" fill="#3F3D56"/>
<path opacity="0.1" d="M66.0519 181.516V183.427L47.9138 183.912V181.516H66.0519Z" fill="black"/>
<path d="M98.0674 115.651V180.328C98.0577 181.148 97.4064 181.816 96.587 181.847L22.8925 183.808H22.8734C22.0388 183.797 21.3649 183.124 21.3545 182.289V115.651C21.3649 114.816 22.0388 114.142 22.8734 114.132H96.5486C97.3831 114.142 98.057 114.816 98.0674 115.651Z" fill="#65617D"/>
<path opacity="0.1" d="M22.8925 114.132V183.808H22.8734C22.0388 183.797 21.3648 183.124 21.3545 182.289V115.651C21.3649 114.816 22.0388 114.142 22.8734 114.132H22.8925Z" fill="black"/>
<path d="M26.2534 118.262H94.5068V175.268L26.2534 176.806V118.262Z" fill="#6C63FF"/>
<path opacity="0.1" d="M230.629 181.516V183.981L212.491 183.496V181.516H230.629Z" fill="black"/>
<path d="M254.57 115.651V182.289C254.559 183.131 253.873 183.808 253.031 183.808L179.322 181.847C178.502 181.816 177.851 181.148 177.841 180.328V115.651C177.852 114.816 178.526 114.142 179.36 114.132H253.035C253.876 114.134 254.559 114.81 254.57 115.651Z" fill="#65617D"/>
<path opacity="0.1" d="M254.57 115.651V182.289C254.559 183.131 253.874 183.808 253.031 183.808V114.132C253.874 114.132 254.559 114.809 254.57 115.651Z" fill="black"/>
<path d="M249.663 118.262H181.41V175.268L249.663 176.806V118.262Z" fill="#6C63FF"/>
<path d="M175.934 115.651V180.328C175.924 181.148 175.273 181.816 174.454 181.847L100.759 183.808C99.9171 183.808 99.2316 183.131 99.2212 182.289V115.651C99.2315 114.816 99.9055 114.142 100.74 114.132H174.415C175.25 114.142 175.924 114.816 175.934 115.651Z" fill="#65617D"/>
<path d="M104.12 118.262H172.373V175.268L104.12 176.806V118.262Z" fill="#6C63FF"/>
<path opacity="0.1" d="M283.309 200.742V205.741L224.892 206.279L224.269 206.291L202.066 206.495L201.536 206.502L194.787 206.56H194.587L153.451 206.941L85.9242 207.568H85.8665L68.6974 207.729L68.5129 207.733L-7.7771 208.433V202.665L70.0933 202.153H70.2778L86.0396 202.046H86.1126L194.964 201.327H195.076L195.141 201.323H195.322L197.164 201.311H197.725L226.368 201.119L228.06 201.111L228.437 201.107L283.309 200.742Z" fill="black"/>
<ellipse cx="138.793" cy="110.186" rx="19.7377" ry="19.7377" fill="#FBBEBE"/>
<path d="M158.534 140.568C158.534 140.568 120.274 145.182 123.927 140.568C125.25 138.899 125.615 133.954 125.542 128.321C125.519 126.61 125.457 124.837 125.369 123.072C124.946 114.612 123.927 106.345 123.927 106.345C123.927 106.345 157.381 90.5796 153.535 103.077C151.997 108.125 152.501 115.216 153.67 121.872C154.012 123.814 154.408 125.717 154.824 127.525C155.837 131.933 157.076 136.286 158.534 140.568Z" fill="#FBBEBE"/>
<path d="M146.049 139.003C150.475 138.184 155.162 136.696 159.326 138.411C160.422 138.86 161.43 139.518 162.553 139.895C163.675 140.272 164.906 140.364 166.075 140.629C170.182 141.56 173.512 144.686 175.65 148.32C177.788 151.953 178.895 156.064 179.979 160.132L182.633 170.065C184.94 178.697 187.247 187.403 187.781 196.328C155.661 198.166 123.467 198.35 91.3269 196.878C93.4187 192.902 95.5567 188.683 95.3798 184.188C95.2029 179.693 92.6151 175.26 93.5494 170.83C94.1455 168.007 96.0758 165.681 97.2563 163.055C100.621 155.549 98.0023 145.447 103.916 139.733C106.577 137.165 110.453 136.192 114.156 136.315C118.878 136.473 123.712 137.945 128.384 138.664C134.367 139.572 140.019 140.11 146.049 139.003Z" fill="#FF6584"/>
<path opacity="0.1" d="M196.383 181.75L196.345 182.3V182.339L196.279 183.223L195.768 190.341L195.149 198.916L194.972 201.33L194.587 206.498V206.564L153.443 206.948L85.9242 207.679V208.002H85.8704V207.679V207.571L86.0434 202.05L86.374 191.26L86.6585 182.112L86.6856 181.201C86.7195 180.089 87.2093 179.04 88.0399 178.301C88.8704 177.561 89.9687 177.196 91.0768 177.29C92.8918 177.444 95.249 177.632 98.0675 177.832L99.2211 177.917C115.498 179.047 145.58 180.508 175.934 178.686C176.572 178.651 177.214 178.613 177.857 178.567C182.563 178.271 187.266 177.89 191.923 177.413C193.114 177.288 194.3 177.698 195.161 178.531C196.022 179.364 196.469 180.536 196.383 181.731V181.75Z" fill="black"/>
<path d="M85.9126 208.002V207.679L153.443 206.945L194.587 206.56H194.703V206.495L195.087 201.327L195.252 199.02L195.883 190.325L196.379 183.442V183.273C196.402 182.956 196.388 182.637 196.337 182.323C196.339 182.311 196.339 182.298 196.337 182.285C196.231 181.636 195.967 181.023 195.568 180.501C194.707 179.397 193.338 178.816 191.946 178.963C187.289 179.439 182.586 179.82 177.88 180.116C177.237 180.162 176.595 180.201 175.957 180.235C145.602 182.039 115.521 180.578 99.2441 179.466L98.0905 179.382C95.2719 179.182 92.9149 178.997 91.0998 178.84C89.0319 178.665 87.1662 180.081 86.7778 182.12C86.7389 182.328 86.7158 182.539 86.7086 182.75L86.4471 191.271L86.0895 202.065L85.9203 207.587V207.694V208.017L85.9126 208.002Z" fill="#3F3D56"/>
<path opacity="0.1" d="M196.498 184.446L196.025 190.341L195.322 199.127L195.145 201.327L194.76 206.252L194.737 206.498V206.564L194.68 207.133L194.722 206.564H194.61L153.466 206.948L85.9241 207.679V207.571L86.1125 202.05L86.497 191.26L86.7431 184.088C86.7677 183.259 87.2106 182.499 87.9198 182.07C88.3552 181.803 88.8643 181.681 89.3733 181.723C90.1808 181.789 91.1729 181.866 92.3303 181.95C94.2107 182.089 96.5294 182.25 99.2287 182.419C104.228 182.735 110.499 183.073 117.686 183.35C137.681 184.119 164.675 184.377 190.315 182.131C191.469 182.031 192.661 181.92 193.826 181.808C194.287 181.762 194.752 181.85 195.164 182.062C195.281 182.12 195.392 182.19 195.495 182.269C195.829 182.512 196.095 182.838 196.264 183.215C196.303 183.29 196.335 183.369 196.36 183.45C196.475 183.769 196.523 184.108 196.498 184.446Z" fill="black"/>
<path opacity="0.1" d="M66.0558 189.71V190.937C66.0562 191.847 65.5323 192.676 64.71 193.067L49.2905 193.363C48.4532 192.979 47.9168 192.142 47.9177 191.221V190.068L66.0558 189.71Z" fill="black"/>
<path d="M66.244 193.79L46.1526 194.174V190.841L66.244 190.456V193.79Z" fill="#3F3D56"/>
<path opacity="0.1" d="M66.244 193.79L46.1526 194.174V190.841L66.244 190.456V193.79Z" fill="black"/>
<path d="M67.0131 193.79L46.9216 194.174V190.841L67.0131 190.456V193.79Z" fill="#3F3D56"/>
<path opacity="0.1" d="M212.606 190.479V191.706C212.606 192.616 213.13 193.445 213.952 193.836L229.372 194.132C230.209 193.748 230.745 192.911 230.744 191.99V190.837L212.606 190.479Z" fill="black"/>
<path opacity="0.1" d="M212.414 194.559L232.505 194.943V191.61L212.414 191.225V194.559Z" fill="black"/>
<path d="M211.645 194.559L231.736 194.943V191.61L211.645 191.225V194.559Z" fill="#3F3D56"/>
<path d="M126.307 116.235C126.338 118.927 125.092 121.465 124.034 123.952C120.184 133.015 118.517 142.855 119.166 152.68C119.447 156.91 120.158 161.14 119.447 165.331C118.736 169.522 116.206 173.702 112.141 174.906C118.882 178.924 128.007 178.501 134.351 173.883C137.731 171.422 140.25 167.988 142.715 164.612C142.422 170.677 140.666 176.581 137.597 181.82C148.816 180.826 159.089 175.122 165.863 166.123C167.52 163.889 168.962 161.436 169.601 158.729C170.789 153.73 169.132 148.535 167.866 143.54C166.809 139.365 166.017 135.126 165.494 130.851C165.329 129.482 165.194 128.075 165.532 126.736C165.917 125.171 166.944 123.849 167.701 122.422C169.854 118.369 169.905 113.463 168.801 109.01C167.697 104.557 165.536 100.45 163.394 96.3935C161.679 93.1405 159.818 89.7374 156.681 87.8264C154.72 86.6343 152.451 86.1383 150.19 85.6576L140.434 83.5696C138.3 83.112 136.105 82.6545 133.947 82.9889C130.306 83.558 127.741 86.1883 125.488 88.8876C123.723 90.9871 119.409 94.9284 119.105 97.6778C118.828 100.212 121.066 104.457 121.447 107.129C121.946 110.59 122.3 109.437 124.254 111.559C125.488 112.874 126.284 114.393 126.307 116.235Z" fill="#3F3D56"/>
<path d="M66.8863 123.814H28.5876C28.4813 123.814 28.3953 123.728 28.3953 123.622C28.3953 123.516 28.4813 123.43 28.5876 123.43H66.8863C66.9925 123.43 67.0786 123.516 67.0786 123.622C67.0786 123.728 66.9925 123.814 66.8863 123.814Z" fill="#F2F2F2"/>
<path d="M66.8863 127.275H28.5876C28.4813 127.275 28.3953 127.189 28.3953 127.082C28.3953 126.976 28.4813 126.89 28.5876 126.89H66.8863C66.9925 126.89 67.0786 126.976 67.0786 127.082C67.0786 127.189 66.9925 127.275 66.8863 127.275Z" fill="#F2F2F2"/>
<path d="M66.8863 130.736H28.5876C28.4813 130.736 28.3953 130.65 28.3953 130.543C28.3953 130.437 28.4813 130.351 28.5876 130.351H66.8863C66.9925 130.351 67.0786 130.437 67.0786 130.543C67.0786 130.65 66.9925 130.736 66.8863 130.736Z" fill="#F2F2F2"/>
</svg>
