<svg id="download" xmlns="http://www.w3.org/2000/svg" width="49.231" height="43.3" viewBox="0 0 49.231 43.3">
  <path id="Path_602" data-name="Path 602" d="M0,39.6V0H39.6V39.6Z" transform="translate(0)" fill="none"/>
  <g id="Group_40" data-name="Group 40" transform="translate(0 3.3)">
    <path id="Path_603" data-name="Path 603" d="M49.231,19.053A18.636,18.636,0,0,1,43.485,20.7,10.916,10.916,0,0,0,48,15.151a18.717,18.717,0,0,1-6.354,2.468,10.739,10.739,0,0,0-7.588-3.285A10.066,10.066,0,0,0,24,24.381a7.589,7.589,0,0,0,.208,2.26A28.061,28.061,0,0,1,3.485,16.176,8.83,8.83,0,0,0,2.051,21.3a10.286,10.286,0,0,0,4.511,8.413,14.588,14.588,0,0,1-4.511-1.234v.208a9.956,9.956,0,0,0,8,9.848,10.533,10.533,0,0,1-2.66.409,5.625,5.625,0,0,1-1.851-.208,9.737,9.737,0,0,0,9.439,6.979,20.508,20.508,0,0,1-12.516,4.3,10.207,10.207,0,0,1-2.46-.2,28.741,28.741,0,0,0,15.385,4.511c18.67,0,28.718-15.385,28.718-28.718V24.382a21.061,21.061,0,0,0,5.128-5.329" transform="translate(0 -14.333)" fill="#5a0ba9"/>
  </g>
</svg>
