<svg xmlns="http://www.w3.org/2000/svg" xmlns:xlink="http://www.w3.org/1999/xlink" width="52.725" height="61.079" viewBox="0 0 52.725 61.079">
  <defs>
    <linearGradient id="linear-gradient" x1="0.5" x2="0.788" y2="0.72" gradientUnits="objectBoundingBox">
      <stop offset="0" stop-color="#7c09a7"/>
      <stop offset="1" stop-color="#b606af"/>
    </linearGradient>
  </defs>
  <g id="key" transform="translate(-34.88)">
    <path id="Path_704" data-name="Path 704" d="M94.358,18.881a13.042,13.042,0,1,1,26.083,0v6.152h5.838V18.881a18.88,18.88,0,1,0-37.76,0v6.152h5.838Z" transform="translate(-47.216)" fill="url(#linear-gradient)"/>
    <path id="Path_705" data-name="Path 705" d="M85.209,239.02H37.275a2.4,2.4,0,0,0-2.4,2.4v27.663a2.4,2.4,0,0,0,2.4,2.4H85.209a2.4,2.4,0,0,0,2.4-2.4V241.415a2.4,2.4,0,0,0-2.4-2.4ZM63.039,265.1a1.8,1.8,0,0,1-3.593,0v-.159a1.8,1.8,0,0,1,3.593,0Zm.246-8.634a.341.341,0,0,0-.246.317v1.59a1.8,1.8,0,0,1-3.593,0v-1.59a3.928,3.928,0,0,1,2.722-3.733,2.975,2.975,0,1,0-3.9-2.828,1.8,1.8,0,1,1-3.593,0,6.568,6.568,0,1,1,8.61,6.243Z" transform="translate(0 -210.394)" fill="url(#linear-gradient)"/>
  </g>
</svg>
