<svg xmlns="http://www.w3.org/2000/svg" width="30.203" height="37.035" viewBox="0 0 30.203 37.035">
  <g id="checkout-step" transform="translate(0 0)">
    <path id="Path_906" data-name="Path 906" d="M16.6,10.432H7.3a1.041,1.041,0,1,1,0-2.081h9.3a1.041,1.041,0,1,1,0,2.081Z" fill="#c200bc"/>
    <path id="Path_907" data-name="Path 907" d="M13.329,19.558H7.3a1.041,1.041,0,1,1,0-2.082h6.031a1.041,1.041,0,1,1,0,2.082Z" fill="#c200bc"/>
    <path id="Path_908" data-name="Path 908" d="M18.562,28.681H7.3a1.041,1.041,0,0,1,0-2.082H18.562a1.041,1.041,0,1,1,0,2.082Z" fill="#c200bc"/>
    <path id="Path_909" data-name="Path 909" d="M25.93,37.035H4.273A4.278,4.278,0,0,1,0,32.762V4.273A4.278,4.278,0,0,1,4.273,0H25.93A4.278,4.278,0,0,1,30.2,4.273a1.041,1.041,0,1,1-2.081,0A2.194,2.194,0,0,0,25.93,2.081H4.273A2.194,2.194,0,0,0,2.082,4.273V32.762a2.194,2.194,0,0,0,2.191,2.192H25.93a2.194,2.194,0,0,0,2.192-2.192,1.041,1.041,0,1,1,2.081,0,4.278,4.278,0,0,1-4.273,4.273Z" fill="rgba(0,0,0,0.9)"/>
  </g>
</svg>
