<svg xmlns="http://www.w3.org/2000/svg" xmlns:xlink="http://www.w3.org/1999/xlink" width="41.275" height="36.178" viewBox="0 0 41.275 36.178">
  <defs>
    <clipPath id="clip-path">
      <rect id="Rectangle_464" data-name="Rectangle 464" width="41.275" height="36.178" fill="rgba(0,0,0,0.9)"/>
    </clipPath>
  </defs>
  <g id="order-step" clip-path="url(#clip-path)">
    <path id="Path_910" data-name="Path 910" d="M7.63,32.644a4,4,0,0,1-2.35-.772,4.284,4.284,0,0,1-1.7-2.707L.08,10.318a4.159,4.159,0,0,1,3.233-4.9L32.082.068a3.981,3.981,0,0,1,3.08.7,4.281,4.281,0,0,1,1.7,2.707l1.5,7.454a1,1,0,0,1-1.956.393l-1.5-7.469A2.309,2.309,0,0,0,34,2.385a2,2,0,0,0-1.546-.36L3.681,7.375A2.162,2.162,0,0,0,2.044,9.95L5.544,28.8a2.3,2.3,0,0,0,.907,1.454A2,2,0,0,0,8,30.611l7.745-1.479a1,1,0,0,1,.375,1.959l-7.75,1.48A3.979,3.979,0,0,1,7.63,32.644Z" fill="rgba(0,0,0,0.9)"/>
    <path id="Path_911" data-name="Path 911" d="M6.639,11.941a1,1,0,0,1-.181-1.978L35.934,4.481A1,1,0,0,1,36.3,6.442L6.822,11.924A1,1,0,0,1,6.639,11.941Z" fill="rgba(0,0,0,0.9)"/>
    <path id="Path_912" data-name="Path 912" d="M2.153,16.521a1,1,0,0,1-.181-1.978L36.515,8.119a1,1,0,1,1,.364,1.961L2.337,16.5A1.072,1.072,0,0,1,2.153,16.521Z" fill="rgba(0,0,0,0.9)"/>
    <path id="Path_913" data-name="Path 913" d="M8.457,22.7a1,1,0,0,1-.181-1.979l6.151-1.143a1,1,0,0,1,.365,1.961L8.641,22.684A1,1,0,0,1,8.457,22.7Z" fill="#c200bc"/>
    <path id="Path_914" data-name="Path 914" d="M34.327,19.268c-3.458,0-6.946-.911-6.946-2.946s3.489-2.946,6.946-2.946,6.947.911,6.947,2.946S37.785,19.268,34.327,19.268Zm-4.838-2.946a12.787,12.787,0,0,0,9.677,0A12.783,12.783,0,0,0,29.489,16.322Z" fill="rgba(0,0,0,0.9)"/>
    <path id="Path_915" data-name="Path 915" d="M34.328,24.208a18.147,18.147,0,0,1-2.311-.143,1,1,0,1,1,.256-1.978,16.153,16.153,0,0,0,2.055.127c2.951,0,4.661-.717,4.956-1.053a1,1,0,0,1,1.99.1C41.274,23.3,37.785,24.208,34.328,24.208Z" fill="rgba(0,0,0,0.9)"/>
    <path id="Path_916" data-name="Path 916" d="M34.328,29.206a1,1,0,1,1,0-2c2.95,0,4.661-.717,4.956-1.054a1,1,0,0,1,1.99.1C41.274,28.3,37.786,29.206,34.328,29.206Z" fill="rgba(0,0,0,0.9)"/>
    <path id="Path_917" data-name="Path 917" d="M28.379,22.129a1,1,0,0,1-1-1V16.32a1,1,0,1,1,2,0v4.809a1,1,0,0,1-1,1Z" fill="rgba(0,0,0,0.9)"/>
    <path id="Path_918" data-name="Path 918" d="M34.328,34.28a1,1,0,1,1,0-1.995c2.934,0,4.641-.709,4.951-1.048V16.323a1,1,0,0,1,2,0V31.334C41.274,33.369,37.786,34.28,34.328,34.28Z" fill="rgba(0,0,0,0.9)"/>
    <path id="Path_919" data-name="Path 919" d="M25.637,36.178a6.674,6.674,0,1,1,4.712-1.955A6.666,6.666,0,0,1,25.637,36.178Zm0-11.339a4.678,4.678,0,1,0,3.3,1.37A4.672,4.672,0,0,0,25.637,24.839Z" fill="#c200bc"/>
  </g>
</svg>
